<svg width="414" height="349" viewBox="0 0 414 349" fill="none" xmlns="http://www.w3.org/2000/svg">
<path fill-rule="evenodd" clip-rule="evenodd" d="M0.625898 94.1053V93.5789C0.529479 93.3763 -0.263303 93.28 0.0902349 92.2632H0.358066V91.7368C0.537513 91.6492 0.714282 91.5613 0.893729 91.4737V90.9474C1.07318 90.8597 1.24995 90.7718 1.42939 90.6842C1.51778 90.3334 1.60884 89.9824 1.69722 89.6316C1.87667 89.5439 2.05344 89.4561 2.23289 89.3684V88.8421L3.03638 88.3158C3.66846 87.4526 3.3926 87.0608 4.9112 87C5.80308 87.7895 6.69585 88.5789 7.58952 89.3684V89.8947L8.39301 90.4211V90.9474L10 92V93.5789C9.44291 94.0263 9.36256 94.5647 8.92867 95.1579C8.21356 95.7719 7.49935 96.386 6.78602 97H4.64337V96.7368H4.10771C3.92826 96.4737 3.75149 96.2105 3.57204 95.9474H3.03638C2.948 95.7718 2.85693 95.5966 2.76855 95.4211H2.50072C2.41233 95.2455 2.32127 95.0703 2.23289 94.8947H1.69722V94.6316C1.39698 94.3615 1.02593 94.1792 0.625898 94.1053Z" fill="black"/>
<path fill-rule="evenodd" clip-rule="evenodd" d="M49.6577 334H53.5892V334.252H54.1134V334.504L55.6859 335.008C55.7724 335.176 55.8615 335.343 55.948 335.511H56.4722C56.9099 336.015 57.345 336.519 57.7827 337.023L58.569 337.526V338.03H58.8311V338.534H59.0932V339.29H59.3553V339.793H59.6174V340.549H59.8795C60.2255 341.609 59.7563 344.428 59.3553 344.831C59.2059 345.439 58.4851 346.542 58.0448 346.846H57.5206C57.345 347.098 57.172 347.35 56.9964 347.602C56.0817 348.179 52.3258 349.413 50.444 348.861V348.61H49.3956V348.358H48.3472V348.106H47.2988V347.854H46.5125V347.602H45.9883V347.35H45.4641V347.098C45.0264 346.762 44.5913 346.426 44.1536 346.091V345.587C43.978 345.503 43.805 345.419 43.6294 345.335C43.3254 344.777 42.7671 341.803 43.1052 340.801H43.3673C43.4538 340.297 43.543 339.793 43.6294 339.29H43.8915C43.978 338.954 44.0671 338.618 44.1536 338.282H44.4157V337.778C44.5913 337.694 44.7643 337.61 44.9399 337.526V337.023C45.1155 336.939 45.2885 336.855 45.4641 336.771V336.267H45.7262C45.9018 336.015 46.0748 335.763 46.2504 335.511H46.7746C46.8611 335.343 46.9502 335.176 47.0367 335.008H47.5609V334.756H48.0851V334.504L49.6577 334.252V334ZM46.5125 344.076C47.6631 344.091 48.1821 344.151 48.8714 344.579C48.9579 344.747 49.047 344.915 49.1335 345.083L50.1819 345.335V345.587C51.322 345.984 53.749 345.411 54.6376 345.335C55.3767 344.285 56.3648 344.63 56.4722 342.816H56.7343C56.6478 342.06 56.5587 341.305 56.4722 340.549H56.2101C56.0345 340.045 55.8615 339.542 55.6859 339.038C55.2482 338.702 54.8132 338.366 54.3755 338.03C54.289 337.862 54.1998 337.694 54.1134 337.526H53.5892V337.275C53.2668 337.036 53.0833 337.082 52.8029 336.771L49.6577 337.023V337.275L48.6093 337.526L47.823 338.534H47.5609C47.4744 338.87 47.3853 339.206 47.2988 339.542H47.0367C46.8611 340.045 46.6881 340.549 46.5125 341.053H46.2504C45.8992 341.999 46.392 343.437 46.5125 344.076Z" fill="black"/>
<path fill-rule="evenodd" clip-rule="evenodd" d="M258.57 9.06667L257.262 8.8V8H257C256.99 7.9 257.233 7.4008 257.262 6.93333C257.61 6.66667 257.96 6.4 258.308 6.13333V5.6L259.877 4.26667C259.964 4.0888 260.052 3.9112 260.139 3.73333H260.662C261.01 3.28907 261.36 2.84427 261.708 2.4L262.493 2.13333C262.929 1.6 263.363 1.06667 263.8 0.533333H264.323C264.41 0.355467 264.498 0.177867 264.585 0H266.939V0.266667H267.462V0.533333L268.246 0.8C268.683 1.33333 269.117 1.86667 269.554 2.4C269.729 2.4888 269.902 2.57787 270.077 2.66667V3.2C270.948 4 271.82 4.8 272.692 5.6V6.13333L273.477 6.66667C273.867 7.27573 273.953 7.884 274 8.8C273.563 9.33333 273.129 9.86667 272.692 10.4H272.169C271.994 10.6667 271.821 10.9333 271.646 11.2H271.123L269.554 13.0667L268.769 13.3333C268.594 13.6 268.421 13.8667 268.246 14.1333H267.723C267.637 14.3112 267.548 14.4888 267.462 14.6667C266.756 15.3467 266.434 15.9061 265.108 16C264.655 15.4728 264.498 15.7744 264.062 15.4667L262.493 13.6C261.295 12.3781 259.03 10.9101 258.57 9.06667ZM270.339 8.26667V7.46667C268.903 6.62347 268.155 5.0896 267.2 3.73333H266.939L266.154 2.66667H265.631L264.062 4.53333H263.539C263.452 4.7112 263.363 4.8888 263.277 5.06667C262.406 5.86667 261.534 6.66667 260.662 7.46667C260.881 7.76933 260.628 7.50533 260.923 7.73333C262.056 8.97778 263.189 10.2222 264.323 11.4667H264.846V11.7333C265.171 11.9888 265.354 11.9269 265.631 12.2667C267.49 11.7576 268.471 8.79307 270.339 8.26667Z" fill="black"/>
<path fill-rule="evenodd" clip-rule="evenodd" d="M408.168 131L411.211 131.266C411.581 131.881 412.349 132.039 412.732 132.599C413.161 133.227 413.201 133.975 413.746 134.464C413.83 135.618 413.915 136.773 414 137.927C413.81 138.546 413.404 139.22 413.239 140.059C412.621 140.421 412.402 141.078 411.971 141.391C411.548 141.699 411.391 141.387 410.957 141.924C409.958 141.956 407.955 142.183 407.407 141.658H406.9V141.391C406.309 140.858 405.717 140.325 405.125 139.792C405.041 139.437 404.955 139.082 404.871 138.727C404.701 138.638 404.534 138.549 404.364 138.46V137.661H404.11C403.872 136.88 404.049 134.824 404.364 134.464C404.607 133.417 405.216 132.925 405.885 132.332V132.066H406.392V131.799C406.704 131.545 406.882 131.602 407.153 131.266H408.168V131ZM410.703 138.727C410.787 138.372 410.873 138.016 410.957 137.661H411.211C411.604 136.447 410.665 134.173 410.196 133.931H408.421L406.9 135.263V137.128L407.66 137.395C407.744 137.572 407.83 137.75 407.914 137.927H408.421C408.505 138.105 408.591 138.283 408.675 138.46C409.129 138.772 409.253 138.45 409.689 138.993L410.703 138.727Z" fill="black"/>
</svg>
