<svg width="589" height="304" viewBox="0 0 589 304" fill="none" xmlns="http://www.w3.org/2000/svg">
<path fill-rule="evenodd" clip-rule="evenodd" d="M504.571 161.368L502.514 161.632C502.093 160.816 502.026 161.158 502 159.789C502.81 159.022 502.044 158.512 502.514 157.684H502.771C503.113 157.302 503.327 157.175 504.057 157.158V157.421H504.314L505.086 156.368H505.343V155.842L506.886 154.526V154L508.429 152.684V152.421C508.601 152.333 508.771 152.246 508.943 152.158V151.632L511.257 149.526C512.052 148.704 512.296 147.508 513.571 147.158C514.07 145.261 516.657 144.584 517.171 142.684C516.513 142.123 516.387 141.328 516.4 140.053C516.893 139.863 517.417 139.773 517.943 139.789C518.249 140.373 518.91 140.817 519.486 141.105V140.842C520.998 140.11 521.247 139.034 523.6 139C524.04 139.773 524.343 139.753 524.371 141.105C523.942 141.632 523.515 142.158 523.086 142.684H522.571C522.487 142.86 522.399 143.035 522.314 143.211H522.057V143.737C523.515 145.14 524.972 146.544 526.429 147.947V148.474L527.971 149.789C528.313 150.228 528.658 150.667 529 151.105C529.172 151.193 529.342 151.281 529.514 151.368V151.895C530.113 152.421 530.713 152.947 531.314 153.474C532.353 154.541 533.158 156.653 534.914 156.895C535.029 156.696 535.188 156.527 535.378 156.402C535.567 156.276 535.783 156.198 536.007 156.172C536.232 156.147 536.459 156.175 536.671 156.255C536.883 156.334 537.074 156.463 537.229 156.632H537.486V158.474C536.149 159.727 537.684 159.641 538 160.316V162.158L537.229 162.684V162.947H536.457V163.211C535.842 162.985 535.241 162.721 534.657 162.421V162.684C534.315 162.947 533.971 163.211 533.629 163.474V164C533.199 164.351 532.772 164.702 532.343 165.053V165.579C531.913 165.93 531.487 166.281 531.057 166.632V167.158L529.514 168.474V169C529.085 169.351 528.658 169.702 528.229 170.053V170.579L526.686 171.895V172.421L524.371 174.526V175.053C523.942 175.403 523.515 175.754 523.086 176.105C523.001 176.456 522.913 176.807 522.829 177.158H522.571C522.091 178.325 522.962 177.87 521.8 178.737V179H520C519.655 178.568 519.113 178.327 518.714 177.947C518.629 177.772 518.542 177.597 518.457 177.421L517.429 177.158C517.344 176.982 517.256 176.807 517.171 176.632C516.742 176.281 516.315 175.93 515.886 175.579C514.942 174.526 513.999 173.474 513.057 172.421C512.628 172.07 512.201 171.719 511.771 171.368V170.842C511.599 170.754 511.429 170.667 511.257 170.579V170.053C510.915 169.789 510.571 169.526 510.229 169.263V168.737L509.457 168.211V167.684L508.686 167.158V166.632L507.914 166.105V165.579L507.143 165.053V164.526L506.371 164V163.474H506.114C505.564 162.801 504.826 162.319 504.571 161.368ZM519.229 145.579C518.799 146.105 518.372 146.632 517.943 147.158C517.771 147.246 517.601 147.333 517.429 147.421V147.947C516.572 148.737 515.715 149.526 514.857 150.316C514.171 151.105 513.485 151.895 512.8 152.684C512.458 152.947 512.113 153.211 511.771 153.474V154C510.915 154.789 510.058 155.579 509.2 156.368V156.895C509.028 156.982 508.858 157.07 508.686 157.158C508.102 157.789 507.127 158.624 506.886 159.526L509.2 161.632V162.158C509.542 162.421 509.887 162.684 510.229 162.947V163.474C510.571 163.737 510.915 164 511.257 164.263V164.789L512.029 165.316V165.842C512.371 166.105 512.715 166.368 513.057 166.632V167.158C513.399 167.421 513.744 167.684 514.086 167.947V168.474C514.772 169.088 515.458 169.702 516.143 170.316V170.842L517.686 172.158C517.771 172.333 517.858 172.509 517.943 172.684H518.457C518.542 172.86 518.629 173.035 518.714 173.211C519.113 173.593 519.653 173.831 520 174.263C520.517 174.112 520.224 174.295 520.514 174L522.057 172.158L522.829 171.632V171.105L524.371 169.789V169.263C524.713 169 525.058 168.737 525.4 168.474V167.947C525.742 167.684 526.087 167.421 526.429 167.158V166.632C526.858 166.281 527.285 165.93 527.714 165.579V165.053C528.144 164.702 528.571 164.351 529 164V163.474L529.771 162.947C529.856 162.684 529.944 162.421 530.029 162.158C530.201 162.07 530.371 161.982 530.543 161.895C531.039 161.351 531.62 160.61 531.829 159.789C531.229 159.263 530.629 158.737 530.029 158.211V157.684C529.429 157.158 528.829 156.632 528.229 156.105V155.579L526.686 154.263V153.737C525.742 152.86 524.799 151.982 523.857 151.105V150.579H523.6L522.829 149.526C522.487 149.263 522.142 149 521.8 148.737V148.211L520.257 146.895V146.368C519.915 146.105 519.571 145.842 519.229 145.579Z" fill="black"/>
<path fill-rule="evenodd" clip-rule="evenodd" d="M571.104 61.0013C577.658 60.9474 580.99 62.6047 583.683 66.4647L584.454 66.985V67.5054H584.71V68.0257H584.967V68.546H585.224V69.0663H585.481V69.5867H585.737C585.822 69.9335 585.909 70.2805 585.994 70.6273C586.166 70.7139 586.335 70.8008 586.507 70.8875V71.4078H586.764C586.849 71.7546 586.936 72.1017 587.021 72.4485H587.278C587.362 72.9688 587.45 73.4891 587.534 74.0094C588.669 76.9584 589.75 81.2995 588.305 84.6761C586.009 90.0355 580.336 94.1078 574.441 95.8632C572.223 96.524 571.296 94.548 569.307 95.0827V95.3428C567.818 95.7539 565.238 95.3324 564.429 94.8225C564.344 94.649 564.257 94.4757 564.172 94.3022L563.145 94.042C563.061 93.8685 562.973 93.6952 562.889 93.5217H562.375V93.2615L561.348 93.0014C561.264 92.8278 561.176 92.6546 561.092 92.481L559.551 91.9607C559.467 91.7872 559.379 91.6139 559.295 91.4404H558.781C558.696 91.2669 558.609 91.0936 558.524 90.9201H558.011C557.582 90.3997 557.156 89.8794 556.727 89.3591C556.555 89.2724 556.386 89.1855 556.214 89.0989V88.5786C556.042 88.492 555.872 88.4051 555.7 88.3184C555.616 87.9716 555.528 87.6246 555.444 87.2778H555.187C555.102 86.931 555.015 86.5839 554.93 86.2371H554.673V85.4566H554.417V84.9363H554.16C554.075 84.416 553.988 83.8956 553.903 83.3753H553.647V82.5948H553.39V81.8143H553.133C552.82 80.8044 553.123 77.0411 553.39 76.3509H553.647V75.8306H553.903V75.0501H554.16C554.332 74.5298 554.501 74.0094 554.673 73.4891H554.93V72.9688H555.187V72.4485H555.444V71.668H555.7V71.1476C555.872 71.061 556.042 70.9741 556.214 70.8875C556.299 70.5407 556.386 70.1936 556.471 69.8468C556.643 69.7602 556.812 69.6733 556.984 69.5867V69.0663C557.669 68.4593 558.354 67.8522 559.038 67.2452L559.808 66.2045H560.321C560.493 65.9444 560.663 65.6842 560.835 65.424H561.348C561.433 65.2505 561.52 65.0772 561.605 64.9037L562.375 64.6436V64.3834H562.889C563.061 64.1232 563.23 63.8631 563.402 63.6029L564.429 63.3427V63.0826L565.969 62.5622V62.3021H566.74V62.0419L568.537 61.7818V61.5216C569.348 61.2336 570.534 61.5047 571.104 61.0013ZM572.644 64.9037V65.1639H570.59V65.424H569.564V65.6842H568.793V65.9444H567.767V66.2045H567.253V66.4647H566.483V66.7249L565.713 66.985C565.628 67.1586 565.541 67.3318 565.456 67.5054H564.943C564.858 67.6789 564.771 67.8522 564.686 68.0257H564.172C564 68.2858 563.831 68.546 563.659 68.8062H563.145C562.973 69.0663 562.804 69.3265 562.632 69.5867H562.119C561.69 70.107 561.264 70.6273 560.835 71.1476C560.663 71.2343 560.493 71.3212 560.321 71.4078V71.9281C560.149 72.0148 559.98 72.1017 559.808 72.1883V72.7086H559.551C559.379 73.2289 559.21 73.7493 559.038 74.2696H558.781C558.696 74.703 558.609 75.137 558.524 75.5704H558.268C557.736 76.5983 556.655 79.3306 557.241 81.294H557.497C557.582 81.901 557.669 82.5082 557.754 83.1152H558.011V83.6355H558.268C558.352 84.1558 558.44 84.6761 558.524 85.1965H558.781C558.866 85.5433 558.953 85.8903 559.038 86.2371C559.21 86.3237 559.379 86.4106 559.551 86.4973V87.0176C559.723 87.1042 559.893 87.1911 560.065 87.2778L560.835 88.3184H561.348C561.433 88.492 561.52 88.6652 561.605 88.8387L562.375 89.0989V89.3591L563.402 89.6192C563.487 89.7928 563.574 89.966 563.659 90.1396L564.686 90.3997C564.858 90.6599 565.027 90.9201 565.199 91.1802C565.787 91.598 566.298 91.6831 566.74 92.2209L573.158 91.9607V91.7005L574.698 91.4404V91.1802H575.212V90.9201H575.982V90.6599H576.495V90.3997L577.779 90.1396C577.864 89.966 577.951 89.7928 578.036 89.6192H578.549V89.3591L579.319 89.0989C579.404 88.9254 579.491 88.7521 579.576 88.5786H580.089C580.518 88.0583 580.944 87.5379 581.373 87.0176C582.058 86.4106 582.743 85.8035 583.427 85.1965V84.6761C583.599 84.5895 583.768 84.5026 583.94 84.416V83.8956H584.197V83.1152H584.454V82.5948H584.71V81.8143H584.967C585.432 80.3158 584.479 78.2361 584.197 77.3916V76.0907H583.94V75.3103H583.683V74.5298H583.427V73.7493H583.17V73.2289C582.998 73.1423 582.829 73.0554 582.657 72.9688V72.4485H582.4V71.9281H582.143V71.4078H581.886V70.8875H581.63V70.3672H581.373V69.8468H581.116V69.3265C580.944 69.2399 580.775 69.153 580.603 69.0663V68.546C580.005 68.0257 579.406 67.5054 578.806 66.985C578.721 66.8115 578.634 66.6382 578.549 66.4647H578.036C577.951 66.2912 577.864 66.1179 577.779 65.9444L572.644 64.9037Z" fill="black"/>
<path fill-rule="evenodd" clip-rule="evenodd" d="M18.6068 269.001C25.3431 268.947 28.768 270.605 31.5358 274.465L32.3274 274.985V275.505H32.5912V276.026H32.8551V276.546H33.119V277.066H33.3828V277.587H33.6467C33.7337 277.933 33.8235 278.281 33.9105 278.627C34.0873 278.714 34.2615 278.801 34.4382 278.887V279.408H34.7021C34.7892 279.755 34.8789 280.102 34.966 280.448H35.2298C35.3169 280.969 35.4066 281.489 35.4937 282.009C36.6599 284.958 37.7708 289.299 36.2852 292.676C33.9264 298.035 28.0951 302.108 22.037 303.863C19.7572 304.524 18.8047 302.548 16.7598 303.083V303.343C15.2295 303.754 12.5777 303.332 11.7465 302.823C11.6595 302.649 11.5698 302.476 11.4827 302.302L10.4273 302.042C10.3402 301.868 10.2505 301.695 10.1634 301.522H9.63569V301.262L8.58026 301.001C8.49319 300.828 8.40348 300.655 8.3164 300.481L6.73326 299.961C6.64619 299.787 6.55648 299.614 6.46941 299.44H5.94169C5.85462 299.267 5.76491 299.094 5.67783 298.92H5.15012C4.70948 298.4 4.27148 297.879 3.83084 297.359C3.65405 297.272 3.47991 297.186 3.30312 297.099V296.579C3.12634 296.492 2.95219 296.405 2.77541 296.318C2.68834 295.972 2.59862 295.625 2.51155 295.278H2.2477C2.16062 294.931 2.07091 294.584 1.98384 294.237H1.71998V293.457H1.45612V292.936H1.19227C1.10519 292.416 1.01548 291.896 0.928411 291.375H0.664554V290.595H0.400697V289.814H0.13684C-0.185066 288.804 0.126286 285.041 0.400697 284.351H0.664554V283.831H0.928411V283.05H1.19227C1.36905 282.53 1.5432 282.009 1.71998 281.489H1.98384V280.969H2.2477V280.448H2.51155V279.668H2.77541V279.148C2.95219 279.061 3.12634 278.974 3.30312 278.887C3.3902 278.541 3.47991 278.194 3.56698 277.847C3.74376 277.76 3.91791 277.673 4.09469 277.587V277.066C4.79919 276.459 5.50281 275.852 6.20555 275.245L6.99712 274.205H7.52483C7.70162 273.944 7.87576 273.684 8.05255 273.424H8.58026C8.66733 273.251 8.75705 273.077 8.84412 272.904L9.63569 272.644V272.383H10.1634C10.3402 272.123 10.5143 271.863 10.6911 271.603L11.7465 271.343V271.083L13.3297 270.562V270.302H14.1213V270.042L15.9683 269.782V269.522C16.802 269.234 18.0211 269.505 18.6068 269.001ZM20.19 272.904V273.164H18.0791V273.424H17.0237V273.684H16.2321V273.944H15.1767V274.205H14.649V274.465H13.8574V274.725L13.0658 274.985C12.9788 275.159 12.889 275.332 12.802 275.505H12.2743C12.1872 275.679 12.0975 275.852 12.0104 276.026H11.4827C11.3059 276.286 11.1318 276.546 10.955 276.806H10.4273C10.2505 277.066 10.0763 277.326 9.89955 277.587H9.37183C8.93119 278.107 8.49319 278.627 8.05255 279.148C7.87576 279.234 7.70162 279.321 7.52483 279.408V279.928C7.34805 280.015 7.1739 280.102 6.99712 280.188V280.709H6.73326C6.55648 281.229 6.38233 281.749 6.20555 282.27H5.94169C5.85462 282.703 5.76491 283.137 5.67783 283.57H5.41398C4.86779 284.598 3.75696 287.331 4.35855 289.294H4.62241C4.70948 289.901 4.79919 290.508 4.88626 291.115H5.15012V291.635H5.41398C5.50105 292.156 5.59076 292.676 5.67783 293.196H5.94169C6.02876 293.543 6.11848 293.89 6.20555 294.237C6.38233 294.324 6.55648 294.411 6.73326 294.497V295.018C6.91005 295.104 7.08419 295.191 7.26098 295.278L8.05255 296.318H8.58026C8.66733 296.492 8.75705 296.665 8.84412 296.839L9.63569 297.099V297.359L10.6911 297.619C10.7782 297.793 10.8679 297.966 10.955 298.14L12.0104 298.4C12.1872 298.66 12.3613 298.92 12.5381 299.18C13.1423 299.598 13.6674 299.683 14.1213 300.221L20.7177 299.961V299.701L22.3008 299.44V299.18H22.8285V298.92H23.6201V298.66H24.1478V298.4L25.4671 298.14C25.5542 297.966 25.6439 297.793 25.731 297.619H26.2587V297.359L27.0502 297.099C27.1373 296.925 27.227 296.752 27.3141 296.579H27.8418C28.2825 296.058 28.7205 295.538 29.1611 295.018C29.8656 294.411 30.5692 293.804 31.272 293.196V292.676C31.4487 292.59 31.6229 292.503 31.7997 292.416V291.896H32.0635V291.115H32.3274V290.595H32.5912V289.814H32.8551C33.3327 288.316 32.3538 286.236 32.0635 285.392V284.091H31.7997V283.31H31.5358V282.53H31.272V281.749H31.0081V281.229C30.8313 281.142 30.6572 281.055 30.4804 280.969V280.448H30.2165V279.928H29.9527V279.408H29.6888V278.887H29.425V278.367H29.1611V277.847H28.8972V277.326C28.7205 277.24 28.5463 277.153 28.3695 277.066V276.546C27.7547 276.026 27.1391 275.505 26.5225 274.985C26.4355 274.811 26.3457 274.638 26.2587 274.465H25.731C25.6439 274.291 25.5542 274.118 25.4671 273.944L20.19 272.904Z" fill="black"/>
<path fill-rule="evenodd" clip-rule="evenodd" d="M543.626 7.10526V6.57895C543.529 6.37632 542.737 6.28 543.09 5.26316H543.358V4.73684C543.538 4.64921 543.714 4.56132 543.894 4.47368V3.94737C544.073 3.85974 544.25 3.77184 544.429 3.68421C544.518 3.33342 544.609 2.98237 544.697 2.63158C544.877 2.54395 545.053 2.45605 545.233 2.36842V1.84211L546.036 1.31579C546.668 0.452632 546.393 0.0607895 547.911 0C548.803 0.789474 549.696 1.57895 550.59 2.36842V2.89474L551.393 3.42105V3.94737L553 5V6.57895C552.443 7.02632 552.363 7.56474 551.929 8.1579C551.214 8.77193 550.499 9.38597 549.786 10H547.643V9.73684H547.108C546.928 9.47368 546.751 9.21053 546.572 8.94737H546.036C545.948 8.77184 545.857 8.59658 545.769 8.42105H545.501C545.412 8.24553 545.321 8.07026 545.233 7.89474H544.697V7.63158C544.397 7.36153 544.026 7.17924 543.626 7.10526Z" fill="black"/>
</svg>
