<svg width="666" height="425" viewBox="0 0 666 425" fill="none" xmlns="http://www.w3.org/2000/svg">
<path fill-rule="evenodd" clip-rule="evenodd" d="M616.054 24.7129C614.763 25.0398 614.941 25.809 613.097 26C612.137 24.9304 611.745 25.618 611.753 23.4257C611.987 23.208 612.171 22.9447 612.29 22.6535H612.022C610.589 21.1947 609.155 19.736 607.72 18.2772H607.183L606.376 17.2475H605.839C605.75 17.0758 605.659 16.9044 605.57 16.7327C604.93 16.1527 604.067 15.1673 603.151 14.9307C602.79 15.288 601.723 15.6376 601 15.703C601.089 15.0167 601.18 14.3299 601.269 13.6436C601.449 13.5578 601.626 13.4719 601.806 13.3861V12.099C602.094 11.9567 602.255 11.6318 602.344 11.5842H603.151C603.599 11.0693 604.046 10.5545 604.495 10.0396L607.72 7.20792L608.527 5.92079H609.065C609.782 5.14852 610.499 4.37624 611.215 3.60396H611.484C611.616 3.26236 611.298 3.70152 611.215 3.34653C611.054 2.66513 611.344 2.16804 611.484 1.80198C611.994 1.59931 612.546 1.51125 613.097 1.54455V1.80198H613.366C613.454 1.63028 613.546 1.45883 613.634 1.28713C614.508 0.58204 614.981 0.0489109 616.591 0C617.301 0.823762 617.597 0.441228 617.667 2.05941C617.239 2.38145 616.914 2.92255 616.591 3.34653H616.323V3.86139H616.591C617.065 4.56055 617.763 4.66327 618.473 5.14852L619.28 6.17822L620.086 6.43564C620.804 7.20792 621.521 7.9802 622.237 8.75248C622.685 9.09562 623.132 9.43903 623.581 9.78218V10.297C623.938 10.5545 624.298 10.8119 624.656 11.0693V11.5842C624.836 11.6699 625.013 11.7559 625.194 11.8416C625.505 12.1649 625.642 12.5904 626 12.8713V14.4158C625.675 14.6673 625.468 15.2509 625.194 15.4455H624.656C624.207 15.9604 623.761 16.4752 623.312 16.9901C623.132 17.0758 622.954 17.1618 622.774 17.2475V17.7624C621.25 19.1353 619.727 20.5083 618.204 21.8812V22.396C618.024 22.4818 617.847 22.5677 617.667 22.6535C617.081 23.2455 616.304 23.8253 616.054 24.7129ZM613.366 5.92079C612.672 7.0738 611.527 7.72277 610.409 8.49505C610.228 8.75248 610.051 9.0099 609.871 9.26733L605.839 12.8713C606.065 13.1635 605.804 12.9086 606.108 13.1287C606.656 14.0127 606.93 13.8783 607.72 14.4158C607.901 14.6733 608.078 14.9307 608.258 15.1881H608.796C608.976 15.4455 609.153 15.703 609.333 15.9604H609.871C609.96 16.1321 610.051 16.3035 610.14 16.4752H610.677L612.29 18.2772H612.828C613.454 18.9637 614.082 19.6502 614.71 20.3366H614.978V20.0792C615.739 19.6452 615.992 18.8559 616.591 18.2772C617.849 17.0604 620.957 14.83 621.43 13.1287H621.161C620.817 11.8398 619.624 11.0969 618.742 10.297C618.653 10.1253 618.562 9.95388 618.473 9.78218H617.935C617.218 9.0099 616.501 8.23762 615.785 7.46535H615.247V7.20792C614.64 6.71881 614.245 6.14347 613.366 5.92079Z" fill="black"/>
<path fill-rule="evenodd" clip-rule="evenodd" d="M661.195 41C662.067 41.0825 662.94 41.1675 663.813 41.25V41.5C664.074 41.5825 664.336 41.6675 664.598 41.75C664.685 41.9175 664.773 42.0825 664.86 42.25H665.122V42.75H665.383C666.208 44.175 665.999 45.05 665.907 46.75C665.319 47.11 665.524 47.33 665.122 47.75L662.504 50H660.409C659.031 49.4925 658.368 47.38 657.268 46.5V45.25H657.006C656.959 44.9 657.189 45.345 657.268 45V43.75C657.792 43.3325 658.315 42.9175 658.839 42.5C658.926 42.3325 659.013 42.1675 659.101 42H659.624C659.711 41.8325 659.799 41.6675 659.886 41.5C660.322 41.4175 660.758 41.3325 661.195 41.25V41Z" fill="black"/>
<path fill-rule="evenodd" clip-rule="evenodd" d="M34.8866 193.228V192.714C33.8157 192.416 33.8888 191.943 33.3271 191.171L32.2874 190.4V189.885C32.114 189.801 31.9409 189.713 31.7675 189.628V189.114C31.5941 189.029 31.421 188.942 31.2477 188.857V188.343C31.0743 188.258 30.9012 188.17 30.7278 188.085V187.571H30.4679V187.057H30.2079V186.543H29.948V186.028C29.7746 185.943 29.6015 185.856 29.4282 185.771L28.9083 184.228H28.6484V183.714H28.3885L27.8686 182.171H27.6087V181.4H27.3488V180.885H27.0888V180.114H26.8289V179.6H26.569C26.4824 179 26.3956 178.399 26.3091 177.8H26.0491V177.028H25.7892V176H25.5293V174.714H25.2693C25.1827 172.399 25.0961 170.085 25.0094 167.771C25.0094 163.924 24.8558 159.853 25.7892 156.971C25.8758 156.199 25.9625 155.428 26.0491 154.656H26.3091V153.885H26.569V153.113H26.8289V152.085H27.0888C27.1755 151.571 27.2621 151.056 27.3488 150.542H27.6087V150.028H27.8686V149.256H28.1285V148.742H28.3885V147.97H28.6484L29.1682 146.428H29.4282V145.913H29.6881L30.2079 144.37L30.7278 144.113V143.599L31.2477 143.342V142.827H31.5076L31.7675 142.056L32.2874 141.799V141.285L33.0671 140.77V140.256L34.8866 138.713V138.199L36.7061 136.656L36.966 136.142H37.4859L38.5256 134.856H39.0454L40.3451 133.313H40.8649L41.3848 132.542H41.9046L42.4245 131.77H42.9443L43.4642 130.999H43.984L44.244 130.484H44.7638L45.2837 129.713H45.8035L46.0634 129.199L47.1032 128.942L47.3631 128.427L48.6627 128.17V127.913H49.4425V127.656L51.002 127.141V126.884H51.5219V126.627H52.3017L52.5616 126.113L57.5002 124.056H58.7998V123.799H66.8575V123.541H68.1572V123.284H71.5362V123.027L72.0561 123.284V123.027C72.7293 122.896 72.8358 123.284 72.8358 123.284H75.4351V123.541H76.9947V123.799H78.2943V124.056H79.0741V124.313H80.1138V124.57H80.6336V124.827H81.4134V125.084L82.973 125.599V125.856L84.5325 126.37C84.6192 126.541 84.7058 126.713 84.7925 126.884H85.3123V127.141H85.8322V127.399H86.352V127.656H86.8719V127.913H87.3917C87.4784 128.084 87.565 128.256 87.6516 128.427L88.6914 128.684C88.778 128.856 88.8646 129.027 88.9513 129.199H89.4711L89.991 129.97H90.5108L91.0307 130.742H91.5505L92.0704 131.513H92.5902L93.1101 132.284H93.63L94.4097 133.313H94.9296L98.5686 137.17L100.128 138.456V138.97L101.168 139.742V140.256L101.688 140.513V141.027L102.467 141.542C102.554 141.799 102.641 142.056 102.727 142.313L103.247 142.57C103.334 142.913 103.421 143.256 103.507 143.599L104.027 143.856C104.114 144.113 104.2 144.37 104.287 144.628H104.547C104.633 144.97 104.72 145.313 104.807 145.656H105.067V146.17H105.327C105.5 146.685 105.673 147.199 105.846 147.713H106.106C106.28 148.485 106.453 149.256 106.626 150.028H106.886C106.973 150.885 107.059 151.742 107.146 152.599C108.752 157.811 107.863 166.346 106.366 170.857L106.106 173.428C105.413 175.485 104.72 177.542 104.027 179.6H103.767C103.594 180.114 103.421 180.628 103.247 181.142H102.987C102.814 181.657 102.641 182.171 102.467 182.685H102.208C102.121 182.942 102.034 183.2 101.948 183.457C101.774 183.542 101.601 183.629 101.428 183.714V184.228C101.254 184.313 101.081 184.401 100.908 184.485V185C100.648 185.172 100.388 185.342 100.128 185.514V186.028L99.0884 186.8V187.314C98.6551 187.656 98.2221 188.001 97.7888 188.343V188.857C97.5288 189.029 97.2689 189.199 97.009 189.371C96.4025 190.058 95.796 190.743 95.1895 191.428H94.6697C94.3232 191.858 93.9764 192.285 93.63 192.714H93.1101C92.0704 193.828 91.0307 194.942 89.991 196.057H89.4711L88.9513 196.828L86.6119 197.6V197.857H86.0921V198.114H85.3123V198.371H84.2726C84.1861 198.544 84.0992 198.713 84.0127 198.886H83.4928C83.4063 199.058 83.3195 199.228 83.2329 199.4H82.7131C82.6265 199.572 82.5397 199.742 82.4531 199.914H81.9333C81.8467 200.087 81.7599 200.256 81.6733 200.429C81.24 200.513 80.807 200.601 80.3737 200.686V200.943H79.8539V201.2H79.0741V201.457H78.0344V201.714H76.7347V201.971H74.9153V202.229H73.3557V202.486C70.0633 202.571 66.7709 202.656 63.4785 202.743H62.6987V203H54.1212V202.743C53.2548 202.658 52.3882 202.571 51.5219 202.486V202.229H50.2223V201.971H49.1826V201.714H48.1429V201.457H47.3631V201.2H46.3234V200.943C45.9769 200.858 45.6302 200.771 45.2837 200.686V200.429C44.8506 200.344 44.4171 200.256 43.984 200.171C43.8975 199.999 43.8107 199.829 43.7241 199.657C43.3776 199.572 43.0309 199.485 42.6844 199.4V199.143C42.4245 199.058 42.1646 198.97 41.9046 198.886C41.8181 198.713 41.7313 198.544 41.6447 198.371H41.1248C40.8649 198.029 40.605 197.685 40.3451 197.343H39.8252C39.5653 197.001 39.3054 196.656 39.0454 196.314H38.5256C38.2657 195.972 38.0057 195.628 37.7458 195.286H37.226C37.1394 195.113 37.0526 194.944 36.966 194.771C36.3653 194.208 35.7836 193.473 34.8866 193.228ZM69.4568 126.884V127.141H67.8973C65.2892 127.911 61.083 127.086 58.5399 127.913H57.5002V128.17L56.4605 128.427V128.684L54.1212 129.456L53.8612 129.97H53.0815V130.227H52.5616V130.484L51.5219 130.742V130.999L48.9226 131.77L48.6627 132.284H48.1429V132.542L47.3631 132.799L47.1032 133.313H46.5833L46.0634 134.084H45.5436L45.2837 134.599H44.7638L44.5039 135.113L43.7241 135.37L43.2043 136.142H42.6844L41.3848 137.685H40.8649L39.8252 138.97H39.3054L38.2657 140.256L37.7458 140.513V141.027L36.1862 142.313V142.827L35.1465 143.599L34.8866 144.628L34.3668 144.885V145.399L33.587 145.913L33.0671 147.456L32.5473 147.713C32.4606 148.142 32.374 148.57 32.2874 148.999H32.0274V149.513H31.7675L31.5076 150.542H31.2477V151.313H30.9877V151.828H30.7278C30.5544 152.684 30.3813 153.543 30.2079 154.399H29.948V155.171H29.6881V155.942H29.4282C29.3415 156.713 29.2549 157.485 29.1682 158.256C28.3851 160.656 27.808 168.164 28.6484 171.114V173.428H28.9083V174.714H29.1682V176H29.4282V176.771H29.6881C29.7746 177.37 29.8615 177.972 29.948 178.571H30.2079V179.085H30.4679C30.5545 179.6 30.6412 180.114 30.7278 180.628H30.9877L31.5076 182.171H31.7675V182.685H32.0274V183.2H32.2874C32.3739 183.542 32.4607 183.886 32.5473 184.228C32.7207 184.313 32.8938 184.401 33.0671 184.485L33.587 186.028C33.7604 186.113 33.9335 186.201 34.1068 186.285V186.8H34.3668L34.6267 187.571C34.8001 187.656 34.9732 187.743 35.1465 187.828V188.343C35.5796 188.685 36.0131 189.029 36.4462 189.371C37.3126 190.315 38.179 191.258 39.0454 192.2H39.5653C39.8252 192.542 40.0851 192.886 40.3451 193.228H40.8649C41.1248 193.57 41.3848 193.915 41.6447 194.257H42.1646C42.511 194.686 42.8578 195.113 43.2043 195.543H43.7241C43.8107 195.715 43.8975 195.885 43.984 196.057H44.5039C44.5904 196.229 44.6773 196.399 44.7638 196.571C45.1103 196.656 45.457 196.744 45.8035 196.828V197.086C46.3234 197.258 46.8432 197.428 47.3631 197.6V197.857C48.2295 198.029 49.0959 198.201 49.9623 198.371V198.628H51.002V198.886H52.3017V199.143H53.6013V199.4H54.9009V199.657C61.0525 199.572 67.2041 199.487 73.3557 199.4C74.7333 196.54 78.0557 196.432 81.1535 195.286V195.028C81.8465 194.944 82.5399 194.856 83.2329 194.771V194.514H84.5325V194.257H85.0524V194H85.8322V193.743C86.1786 193.658 86.5254 193.57 86.8719 193.486C87.3917 192.886 87.9116 192.286 88.4314 191.686H88.9513C89.7311 190.829 90.5108 189.972 91.2906 189.114H91.8105L93.8899 186.8L94.9296 186.028V185.514L95.9693 184.743V184.228C96.2292 184.056 96.4891 183.886 96.7491 183.714V183.2C97.009 183.027 97.2689 182.858 97.5288 182.685C97.6154 182.343 97.7022 181.999 97.7888 181.657C97.9622 181.572 98.1353 181.484 98.3086 181.4C98.3953 181.142 98.4819 180.885 98.5686 180.628H98.8285L101.428 174.457L103.507 164.171V159.799C103.507 155.572 103.138 152.447 101.948 149.513V148.742H101.688V148.228H101.428V147.713L100.908 147.456C100.821 147.113 100.735 146.77 100.648 146.428L100.128 146.17V145.656L99.6083 145.399C99.5216 145.056 99.435 144.713 99.3483 144.37L98.5686 143.856V143.342L98.0487 143.085V142.57L97.2689 142.056V141.542L95.1895 139.742V139.227L93.37 137.685C93.2834 137.513 93.1967 137.342 93.1101 137.17H92.5902L91.2906 135.627L90.5108 135.37C90.4242 135.199 90.3376 135.027 90.2509 134.856H89.7311L88.9513 133.827H88.4314C88.3448 133.656 88.2581 133.484 88.1715 133.313H87.9116C87.8249 133.142 87.7383 132.97 87.6516 132.799H87.1318C87.0452 132.627 86.9585 132.456 86.8719 132.284L86.0921 132.027V131.77L85.0524 131.513C84.9657 131.342 84.8791 131.17 84.7925 130.999L83.2329 130.484C83.1463 130.313 83.0596 130.142 82.973 129.97L81.9333 129.713C81.8466 129.542 81.76 129.37 81.6733 129.199L79.334 128.427V128.17H78.8142V127.913H77.7745V127.656C75.4926 126.895 72.459 126.888 69.4568 126.884Z" fill="black"/>
<path fill-rule="evenodd" clip-rule="evenodd" d="M0.266328 362.5C0.0989136 361.76 0.00970527 361.006 0 360.25C0.266328 360.082 0.532656 359.918 0.798984 359.75V359.25L1.8643 358.5V358C2.04194 357.918 2.21931 357.832 2.39695 357.75V357.25C2.57459 357.168 2.75197 357.082 2.92961 357C3.0183 356.668 3.10725 356.332 3.19594 356C3.37358 355.918 3.55095 355.832 3.72859 355.75V355.25H3.99492L4.26125 354.5H4.52758V354.25C4.97128 354.167 5.41551 354.083 5.85922 354C6.39959 354.795 7.15677 354.97 7.98984 355.5C8.07853 355.668 8.16748 355.832 8.25617 356H8.78882C9.41026 356.668 10.0317 357.334 10.6531 358H11.1858C11.3389 358.11 12.1179 359.43 11.9848 359.75H11.7184C11.5666 360.332 11.4787 360.345 11.1858 360.75H10.9194C10.7419 361.5 10.5643 362.25 10.3868 363C10.2092 363.083 10.0318 363.167 9.85414 363.25V363.75C9.67649 363.833 9.49912 363.917 9.32148 364V364.5L7.45718 366H5.85922C5.77053 365.833 5.68157 365.667 5.59289 365.5C5.06023 365.417 4.52758 365.333 3.99492 365.25L3.46226 364.5H2.92961C2.84092 364.333 2.75197 364.167 2.66328 364C1.95858 363.375 1.37718 362.75 0.266328 362.5ZM3.19594 361.25C4.46818 361.555 5.04532 362.663 6.39187 363V362.75C7.26463 362.275 8.29931 360.85 8.78882 360L7.72351 359.25V358.75C7.45718 358.668 7.19086 358.582 6.92453 358.5C6.24033 358.023 6.47177 357.54 5.32656 357.25V357.5C4.78778 357.932 5.10631 358.043 4.7939 358.5C4.61626 358.582 4.43889 358.668 4.26125 358.75C4.17256 359.082 4.08361 359.418 3.99492 359.75C3.81728 359.832 3.6399 359.918 3.46226 360C3.37358 360.418 3.28462 360.832 3.19594 361.25Z" fill="black"/>
<path fill-rule="evenodd" clip-rule="evenodd" d="M474.682 256.256V257.793C474.51 257.878 474.341 257.964 474.17 258.049V258.561C473.999 258.646 473.83 258.732 473.658 258.817V259.329C473.487 259.414 473.318 259.5 473.147 259.585V260.097C472.976 260.183 472.807 260.268 472.635 260.353V260.609H472.891L473.658 261.634H474.17L475.705 263.426H476.216L479.285 266.755L483.122 270.34V270.852C483.549 271.193 483.974 271.535 484.401 271.876V272.388C484.828 272.729 485.252 273.071 485.679 273.412V273.925C486.02 274.181 486.362 274.437 486.703 274.693V275.205C486.874 275.29 487.043 275.376 487.214 275.461C487.298 275.717 487.385 275.973 487.47 276.229C487.81 276.485 488.153 276.741 488.493 276.997V277.509L489.26 278.021V278.534C489.6 278.79 489.943 279.046 490.283 279.302V279.814C490.455 279.899 490.623 279.985 490.795 280.07V280.326C490.966 280.411 491.135 280.497 491.306 280.582V281.094C491.733 281.436 492.158 281.777 492.585 282.118V282.631C493.78 283.74 494.973 284.85 496.166 285.959V286.215C496.337 286.301 496.506 286.386 496.677 286.471V286.984C497.273 287.496 497.87 288.008 498.468 288.52C498.639 288.776 498.808 289.032 498.979 289.288C500.53 290.449 501.984 291.733 503.327 293.129C503.754 293.641 504.179 294.153 504.606 294.665C506.691 296.174 508.195 298.001 509.977 299.787C510.916 300.64 511.854 301.494 512.791 302.347V302.859C513.387 303.371 513.983 303.884 514.581 304.396V304.908L516.116 306.188V306.7C516.712 307.212 517.308 307.724 517.906 308.237V308.749L519.441 310.029V310.541C520.292 311.309 521.145 312.077 521.998 312.846V313.358L524.3 315.406V315.918L526.602 317.967C526.686 318.223 526.773 318.479 526.858 318.735C527.965 319.759 529.074 320.784 530.183 321.808C530.267 322.064 530.354 322.32 530.439 322.576C532.569 324.624 534.7 326.673 536.833 328.721C537.913 330.182 539.111 331.552 540.413 332.818C541.521 333.843 542.629 334.867 543.738 335.891V336.403C544.165 336.744 544.59 337.087 545.017 337.427V337.94C545.529 338.367 546.04 338.792 546.552 339.22V339.476C546.979 339.56 547.403 339.647 547.831 339.732V339.988H548.086C548.171 340.416 548.258 340.841 548.342 341.268H548.598C549.191 342.5 549.074 342.887 548.598 344.085C548.342 344.17 548.086 344.257 547.831 344.341V344.597H545.784C545.189 345.281 544.592 345.964 543.994 346.646C542.631 347.841 541.267 349.036 539.902 350.23V350.743C539.73 350.827 539.562 350.914 539.39 350.999C539.135 351.339 538.879 351.682 538.623 352.023C537.866 352.573 537.37 352.502 537.088 353.559H536.577C535.638 354.583 534.7 355.608 533.763 356.632H533.252C532.569 357.4 531.887 358.168 531.206 358.936C529.671 360.388 528.137 361.839 526.602 363.29C525.835 364.142 525.067 364.996 524.3 365.85C523.96 366.106 523.617 366.362 523.277 366.618V367.13C521.998 368.239 520.719 369.349 519.441 370.459C518.502 371.483 517.564 372.508 516.627 373.532H516.116C514.581 375.153 513.046 376.774 511.512 378.397C510.745 379.081 509.977 379.764 509.21 380.446V380.958C508.102 381.982 506.994 383.006 505.885 384.03C505.629 384.371 505.373 384.714 505.118 385.055H504.862V385.567C504.179 386.163 503.497 386.761 502.816 387.359V387.615C502.644 387.7 502.476 387.787 502.304 387.871V388.383C501.453 389.152 500.6 389.92 499.747 390.688V391.2C498.979 391.884 498.212 392.567 497.445 393.249C495.826 394.956 494.206 396.664 492.585 398.37C491.741 399.215 490.383 399.888 490.028 401.186H489.516C487.897 402.894 486.277 404.601 484.656 406.308H484.145C483.462 407.076 482.78 407.844 482.099 408.612C481.16 409.465 480.222 410.318 479.285 411.173V411.685H479.03C478.858 411.941 478.689 412.197 478.518 412.453C477.922 412.965 477.325 413.477 476.728 413.989V414.502C475.96 415.185 475.193 415.868 474.426 416.55V417.062H474.17C473.802 417.508 473.582 417.679 473.403 418.342C474.104 418.78 474.39 419.528 474.426 420.647C473.935 421.072 473.551 421.963 472.891 422.183C472.045 422.468 470.935 421.543 470.078 421.415C469.651 421.927 469.226 422.439 468.799 422.952H468.287C468.032 423.292 467.776 423.635 467.52 423.976H467.009C466.924 424.147 466.837 424.316 466.753 424.488C466.047 424.931 465.323 424.995 464.195 425C464.006 424.613 463.745 424.266 463.428 423.976V423.72H463.684V422.952H463.939C464.024 422.78 464.111 422.611 464.195 422.439H464.707C465.814 421.244 466.922 420.049 468.032 418.855C466.413 417.318 464.793 415.782 463.172 414.245V413.733C462.405 413.05 461.637 412.367 460.87 411.685C460.187 410.917 459.505 410.149 458.824 409.38H458.313C457.289 408.272 456.266 407.162 455.243 406.052H454.732C453.965 405.199 453.197 404.345 452.43 403.491H451.918C451.322 402.807 450.726 402.124 450.128 401.442C446.166 398.575 443.054 394.872 439.642 391.456C435.299 387.108 430.751 382.929 427.109 377.885C426.513 377.373 425.916 376.861 425.319 376.349V375.836C424.296 374.897 423.273 373.958 422.25 373.02V372.508C421.482 371.824 420.715 371.141 419.948 370.459C419.265 369.691 418.583 368.923 417.902 368.155H417.39C417.219 367.899 417.05 367.643 416.878 367.386H416.623C415.381 365.746 414.012 364.205 412.53 362.777C412.019 362.35 411.507 361.925 410.996 361.497V360.985C410.4 360.473 409.803 359.961 409.205 359.449V358.936C409.034 358.852 408.865 358.765 408.694 358.68V358.424C408.438 358.253 408.182 358.084 407.927 357.912V357.4C407.587 357.144 407.244 356.888 406.904 356.632V356.12C406.563 355.864 406.221 355.608 405.881 355.352V354.84C405.625 354.668 405.369 354.499 405.113 354.327V353.815C404.773 353.559 404.43 353.303 404.09 353.047V352.535C403.663 352.194 403.238 351.851 402.811 351.511V350.999C402.128 350.402 401.446 349.805 400.765 349.206V348.694C400.254 348.266 399.742 347.841 399.231 347.414C397.013 345.109 394.797 342.805 392.581 340.5C391.476 340.994 390.969 341.263 389.256 341.268C389.041 340.979 389.289 341.23 389 341.012C389.294 340.345 389.551 339.661 389.767 338.964C390.473 338.779 390.34 338.892 390.535 338.196C389.742 337.765 389.512 337.42 389.512 336.147C389.803 335.855 389.614 336.147 389.767 335.635C390.56 335.568 391.082 335.248 391.813 335.635V335.891C392.299 336.227 392.302 336.288 393.092 336.403C393.519 335.891 393.944 335.379 394.371 334.867H394.883C395.734 333.928 396.587 332.989 397.44 332.05H397.952C398.975 330.941 399.998 329.831 401.021 328.721L407.927 322.064C408.267 321.637 408.61 321.21 408.95 320.784C409.121 320.698 409.29 320.613 409.461 320.527V320.015L410.996 318.735V318.223C412.446 316.857 413.895 315.492 415.344 314.126V313.614L418.413 310.797L422.25 306.444C422.845 305.932 423.442 305.42 424.04 304.908C425.682 302.634 427.72 300.968 429.667 299.018C430.518 298.08 431.371 297.141 432.224 296.202H432.736L435.805 292.873L436.572 292.617C437.168 291.934 437.765 291.251 438.363 290.568H438.874C439.557 289.8 440.239 289.032 440.92 288.264H441.432C442.115 287.496 442.797 286.728 443.478 285.959C443.818 285.703 444.161 285.447 444.501 285.191V284.679L446.803 282.631V282.118C447.742 281.265 448.68 280.411 449.617 279.558V279.046C450.468 278.278 451.321 277.509 452.174 276.741V276.229C452.346 276.144 452.514 276.058 452.686 275.973L453.453 274.949C453.793 274.693 454.136 274.437 454.476 274.181V273.668C454.903 273.327 455.328 272.986 455.755 272.644V272.132L458.057 270.084V269.572L459.591 268.291L461.893 265.731H462.405C462.745 265.304 463.088 264.877 463.428 264.45H463.684C463.768 264.28 463.855 264.109 463.939 263.938H464.451C465.047 263.255 465.644 262.573 466.241 261.89C466.909 261.227 467.594 261.32 467.776 260.097C466.924 259.329 466.072 258.561 465.218 257.793V256.512C465.507 256.296 465.257 256.545 465.474 256.256H466.241V256C466.336 255.99 466.817 256.229 467.264 256.256C467.965 257.078 469.226 257.38 469.822 258.305C471.484 257.529 472.175 256.303 474.682 256.256ZM495.143 291.081V290.568C493.948 289.459 492.755 288.349 491.562 287.24V286.728C490.966 286.215 490.369 285.703 489.772 285.191V284.679C489.345 284.338 488.92 283.996 488.493 283.655V283.143C488.322 283.057 488.153 282.972 487.981 282.887V282.631C487.81 282.545 487.641 282.46 487.47 282.375V281.862L486.703 281.35V280.838L485.935 280.326V279.814C485.595 279.558 485.252 279.302 484.912 279.046V278.534C484.741 278.448 484.572 278.363 484.401 278.278C484.316 278.021 484.229 277.765 484.145 277.509C483.805 277.253 483.462 276.997 483.122 276.741V276.229L482.355 275.717V275.205C482.183 275.12 482.014 275.034 481.843 274.949V274.693C481.672 274.607 481.503 274.522 481.331 274.437V273.925C480.991 273.668 480.649 273.412 480.308 273.156V272.644C479.626 272.047 478.943 271.449 478.262 270.852V270.34L476.728 269.059C475.62 267.864 474.512 266.669 473.403 265.475C472.587 264.66 471.449 264.2 470.845 263.17C470.556 263.386 470.807 263.137 470.589 263.426C469.482 264.365 468.374 265.304 467.264 266.243L466.497 267.267H465.986C465.558 267.779 465.134 268.291 464.707 268.803H464.195C463.599 269.486 463.002 270.169 462.405 270.852C462.065 271.108 461.722 271.364 461.382 271.62V272.132C460.699 272.73 460.017 273.327 459.336 273.925V274.437L457.801 275.717V276.229C457.205 276.741 456.608 277.253 456.011 277.765C453.601 281.104 450.494 283.645 448.082 286.984L446.547 288.264C445.696 289.203 444.843 290.142 443.99 291.081H443.478C442.795 291.849 442.113 292.617 441.432 293.385H440.92L438.619 295.946H438.107C437.424 296.714 436.742 297.482 436.061 298.25L435.294 298.762V299.018H434.782C433.675 300.213 432.566 301.408 431.457 302.603C428.529 305.534 425.214 308.168 422.761 311.565L419.692 314.382C418.147 315.927 416.641 317.45 415.344 319.247C414.405 320.101 413.467 320.954 412.53 321.808V322.32L409.461 325.137C407.515 327.086 405.85 329.125 403.579 330.77C402.471 331.965 401.363 333.16 400.254 334.355H399.742C399.146 335.038 398.549 335.72 397.952 336.403H397.44C397.1 336.831 396.757 337.256 396.417 337.684C395.714 338.196 395.409 337.975 395.138 338.964C396.502 340.16 397.866 341.355 399.231 342.549C399.486 342.889 399.742 343.232 399.998 343.573H400.509C401.277 344.426 402.044 345.279 402.811 346.133C403.919 347.158 405.027 348.182 406.136 349.206V349.718C406.732 350.23 407.329 350.743 407.927 351.255V351.767C408.267 352.023 408.61 352.279 408.95 352.535V353.047C409.546 353.559 410.142 354.071 410.74 354.583V355.096C411.252 355.523 411.763 355.948 412.275 356.376V356.888C417.474 362.009 422.675 367.13 427.876 372.252V372.764C428.559 373.36 429.241 373.958 429.923 374.556V375.068C430.605 375.665 431.287 376.262 431.969 376.861V377.373C432.565 377.885 433.161 378.397 433.759 378.909V379.421C435.122 380.702 436.486 381.982 437.851 383.262C439.698 385.818 442.054 387.725 444.245 389.92C447.463 393.141 450.478 396.429 454.22 399.138C455.159 400.162 456.097 401.186 457.034 402.211H457.545C458.313 403.063 459.08 403.917 459.847 404.771H460.359C460.955 405.455 461.551 406.138 462.149 406.82C463.599 408.185 465.049 409.55 466.497 410.917V411.173C466.668 411.257 466.837 411.344 467.009 411.429V411.941C467.86 412.709 468.713 413.477 469.566 414.245C469.906 414.673 470.249 415.098 470.589 415.526H471.101C471.528 415.014 471.953 414.502 472.38 413.989C472.551 413.905 472.72 413.818 472.891 413.733V413.221C473.487 412.709 474.084 412.197 474.682 411.685V411.173H474.937C475.109 410.917 475.277 410.661 475.449 410.405C475.96 409.977 476.472 409.552 476.983 409.124V408.612C477.495 408.185 478.007 407.759 478.518 407.332C479.797 405.967 481.076 404.601 482.355 403.235H482.866C483.633 402.382 484.401 401.529 485.168 400.674C486.958 398.966 488.749 397.259 490.539 395.553C490.71 395.297 490.879 395.041 491.051 394.785H491.306V394.273C491.562 394.101 491.818 393.932 492.074 393.761V393.505C492.329 393.42 492.585 393.333 492.841 393.249V392.736C493.948 391.712 495.057 390.688 496.166 389.664C496.337 389.408 496.506 389.152 496.677 388.896H496.933V388.383C497.616 387.787 498.298 387.189 498.979 386.591V386.079C499.831 385.311 500.684 384.542 501.537 383.774V383.262C502.304 382.579 503.072 381.896 503.839 381.214C504.095 380.873 504.35 380.53 504.606 380.189C504.778 380.105 504.946 380.018 505.118 379.933V379.421C506.312 378.313 507.506 377.203 508.698 376.093V375.58C509.55 374.812 510.403 374.044 511.256 373.276C512.023 372.423 512.791 371.57 513.558 370.715H514.069C517.394 367.302 520.719 363.888 524.044 360.473C525.495 359.108 526.944 357.742 528.392 356.376C528.733 355.864 529.075 355.352 529.415 354.84H529.927C530.61 354.071 531.292 353.303 531.973 352.535H532.485C533.763 351.17 535.042 349.805 536.321 348.438C536.833 348.01 537.344 347.585 537.856 347.158V346.646C538.111 346.474 538.367 346.305 538.623 346.133C538.707 345.962 538.794 345.793 538.879 345.621H539.39C540.242 344.682 541.095 343.743 541.948 342.805C542.375 342.464 542.8 342.121 543.227 341.78V341.268C541.958 340.523 541.401 339.215 540.413 338.196C539.475 337.343 538.537 336.489 537.6 335.635C537.26 335.207 536.917 334.782 536.577 334.355H536.065C535.981 334.099 535.894 333.843 535.81 333.587C535.554 333.415 535.298 333.246 535.042 333.074C534.446 332.392 533.85 331.709 533.252 331.026C531.802 329.66 530.352 328.295 528.904 326.929V326.417C528.733 326.332 528.564 326.246 528.392 326.161C527.965 325.649 527.541 325.137 527.114 324.624L524.044 321.808V321.296L521.742 319.247V318.735H521.487C521.315 318.479 521.147 318.223 520.975 317.967C520.635 317.711 520.292 317.455 519.952 317.199V316.687C519.013 315.833 518.076 314.98 517.139 314.126V313.614L515.604 312.334V311.821L514.069 310.541V310.029C513.642 309.688 513.218 309.346 512.791 309.005V308.493L511.256 307.212V306.7C510.66 306.188 510.063 305.676 509.466 305.164C506.675 301.302 502.816 298.506 499.491 295.178C498.504 294.189 496.468 291.439 495.143 291.081Z" fill="black"/>
</svg>
