<svg xmlns="http://www.w3.org/2000/svg" width="826" height="826" viewBox="0 0 2000 2000">
  <defs>
    <style>
      .cls-1 {
        fill-rule: evenodd;
      }
    </style>
  </defs>
  <path class="cls-1" d="M432,173c-0.927-4.416-1.97-5.5-2-12,3.166-1.9,3.017-3.068,5-6l2-1,1-4,3-2,1-3h3l1-2c2.134-1.842,3.8-1.963,8-2,5.438,9.56,25.25,11.4,26,24h1c0.745,1.339-.7,6.419-1,7h-1v2l-2,1-1,3-2,1v2h-1v2l-3,2v1h-4v1c-1.86,1.277-1.9,1.687-5,2v-1l-7-1v-1l-2-1v-5h-1c-1.47,1.5-5.539,2.355-8,1l-3-4h-2l-2-3Zm17-18c-0.482,2.257-3.671,7.74-5,9h-2v1h1l3,4h2l1,2,3,1c1.712,2.732-.457,5.042,1,7v-1c1.139-1.139.4,0,1-2h3v-1h1v1h5l1-3h1v-2h1c1.368-1.8,1.587-1.969,2-5-1.139-1.139-.4,0-1-2l-3-1v-1l-5-1v-1h-2l-1-2h-2v-1h-2v-1ZM762,288c1.5,5.474,3.859,2.453,4,11-4.145,2.809-4.682,9.366-9,12-1.89,1.968-.478.054-3,1-5.8,2.175-9.358-3.123-11-8v-5h-1q-0.5-3-1-6c5.014-2.959,6.012-7.577,14-8v1h4C759.905,286.436,758.952,287.274,762,288Zm810,246c0.67,2,1.33,4,2,6h1v4h1a22.776,22.776,0,0,0-1,4c-2.39,1.6-2.6,4.414-5,6v1h-3v1h-2v1h-2v1h-9c-1.38-2.612-1.77-1.693-2-6h-1c-0.33-1.375.7,0.383,1-1v-3h1c3.61-3.042,7.67.482,11-5-2.3-1.3-9.22-6.891-13-6v1l-6,2v1a8.4,8.4,0,0,1-4,2c0.33,3.666.67,7.334,1,11,1.13,0.844.15-.127,1,1,6.15-.175,8.1.729,8,7l-3,2v1l-10,1c-1.44-2.465-3.14-2.788-4-6h-2c-0.47-3.969-2.09-6.88-3-10-2.69-9.233,4.49-13.519,8-17l3-4h4v-1c1.93-.871,8.69-3.179,12-2v1c1.67,0.333,3.33.667,5,1v1h2v1h4v1C1568.92,532.374,1569.31,533.235,1572,534ZM707,768c8.165-.142,12.939,1.728,19,3,3.439,5.783,6.991,4.87,7,15-1.139,1.139-.4,0-1,2l-4,3v1h-3v1l-4,1v1h-3c-3.617,2.531,2.661,6.282-7,7v1h-6v-1h-4v1c-3.256.8-6.915-2.283-8-4h-1v-3h-1v-2h-1V783c2.535-2.239.688-2.711,2-5l3-2q0.5-1.5,1-3h2q0.5-1,1-2h2v-1l6-1v-1Zm-5,24a34.651,34.651,0,0,1,7-1v-4c3.3-1.644,7.617-3.451,11-5v-1h-4c-2.449-2.289-7.55-.28-11,0a13.3,13.3,0,0,1-3,4v7ZM265,885c5.305-.226,9.866-0.02,13,2l2,3,3-1c3.249,1.23,3.953,3.336,4,8-1.139,1.139-.4,0-1,2a7.49,7.49,0,0,0-3,2l-10-2-1-2h-3v-1h-2c-1.863-1.031-6.117-4.4-4-9A12.383,12.383,0,0,0,265,885Zm1396,170c-0.36-1.9-2.01-4.26-1-7h1v-2c1.33-1,2.67-2,4-3v-2c0.67-.33,1.33-0.67,2-1a20.125,20.125,0,0,0,3-7c3.08-.63,3.46-1.6,7-2,3.07,4.63,7.15,3.85,8,12h-1c-0.33,2.33-.67,4.67-1,7-0.67.33-1.33,0.67-2,1v2c-1.33,1-2.67,2-4,3v2c-1,.67-2,1.33-3,2v1h-6c-1.02-1.31-3.06-1.81-4-3-0.33-1-.67-2-1-3h-2ZM432,173c-0.927-4.416-1.97-5.5-2-12,3.166-1.9,3.017-3.068,5-6l2-1,1-4,3-2,1-3h3l1-2c2.134-1.842,3.8-1.963,8-2,5.438,9.56,25.25,11.4,26,24h1c0.745,1.339-.7,6.419-1,7h-1v2l-2,1-1,3-2,1v2h-1v2l-3,2v1h-4v1c-1.86,1.277-1.9,1.687-5,2v-1l-7-1v-1l-2-1v-5h-1c-1.47,1.5-5.539,2.355-8,1l-3-4h-2l-2-3Zm17-18c-0.482,2.257-3.671,7.74-5,9h-2v1h1l3,4h2l1,2,3,1c1.712,2.732-.457,5.042,1,7v-1c1.139-1.139.4,0,1-2h3v-1h1v1h5l1-3h1v-2h1c1.368-1.8,1.587-1.969,2-5-1.139-1.139-.4,0-1-2l-3-1v-1l-5-1v-1h-2l-1-2h-2v-1h-2v-1ZM762,288c1.5,5.474,3.859,2.453,4,11-4.145,2.809-4.682,9.366-9,12-1.89,1.968-.478.054-3,1-5.8,2.175-9.358-3.123-11-8v-5h-1q-0.5-3-1-6c5.014-2.959,6.012-7.577,14-8v1h4C759.905,286.436,758.952,287.274,762,288Zm810,246c0.67,2,1.33,4,2,6h1v4h1a22.776,22.776,0,0,0-1,4c-2.39,1.6-2.6,4.414-5,6v1h-3v1h-2v1h-2v1h-9c-1.38-2.612-1.77-1.693-2-6h-1c-0.33-1.375.7,0.383,1-1v-3h1c3.61-3.042,7.67.482,11-5-2.3-1.3-9.22-6.891-13-6v1l-6,2v1a8.4,8.4,0,0,1-4,2c0.33,3.666.67,7.334,1,11,1.13,0.844.15-.127,1,1,6.15-.175,8.1.729,8,7l-3,2v1l-10,1c-1.44-2.465-3.14-2.788-4-6h-2c-0.47-3.969-2.09-6.88-3-10-2.69-9.233,4.49-13.519,8-17l3-4h4v-1c1.93-.871,8.69-3.179,12-2v1c1.67,0.333,3.33.667,5,1v1h2v1h4v1C1568.92,532.374,1569.31,533.235,1572,534ZM707,768c8.165-.142,12.939,1.728,19,3,3.439,5.783,6.991,4.87,7,15-1.139,1.139-.4,0-1,2l-4,3v1h-3v1l-4,1v1h-3c-3.617,2.531,2.661,6.282-7,7v1h-6v-1h-4v1c-3.256.8-6.915-2.283-8-4h-1v-3h-1v-2h-1V783c2.535-2.239.688-2.711,2-5l3-2q0.5-1.5,1-3h2q0.5-1,1-2h2v-1l6-1v-1Zm-5,24a34.651,34.651,0,0,1,7-1v-4c3.3-1.644,7.617-3.451,11-5v-1h-4c-2.449-2.289-7.55-.28-11,0a13.3,13.3,0,0,1-3,4v7ZM265,885c5.305-.226,9.866-0.02,13,2l2,3,3-1c3.249,1.23,3.953,3.336,4,8-1.139,1.139-.4,0-1,2a7.49,7.49,0,0,0-3,2l-10-2-1-2h-3v-1h-2c-1.863-1.031-6.117-4.4-4-9A12.383,12.383,0,0,0,265,885Zm1396,170c-0.36-1.9-2.01-4.26-1-7h1v-2c1.33-1,2.67-2,4-3v-2c0.67-.33,1.33-0.67,2-1a20.125,20.125,0,0,0,3-7c3.08-.63,3.46-1.6,7-2,3.07,4.63,7.15,3.85,8,12h-1c-0.33,2.33-.67,4.67-1,7-0.67.33-1.33,0.67-2,1v2c-1.33,1-2.67,2-4,3v2c-1,.67-2,1.33-3,2v1h-6c-1.02-1.31-3.06-1.81-4-3-0.33-1-.67-2-1-3h-2ZM432,173c-0.927-4.416-1.97-5.5-2-12,3.166-1.9,3.017-3.068,5-6l2-1,1-4,3-2,1-3h3l1-2c2.134-1.842,3.8-1.963,8-2,5.438,9.56,25.25,11.4,26,24h1c0.745,1.339-.7,6.419-1,7h-1v2l-2,1-1,3-2,1v2h-1v2l-3,2v1h-4v1c-1.86,1.277-1.9,1.687-5,2v-1l-7-1v-1l-2-1v-5h-1c-1.47,1.5-5.539,2.355-8,1l-3-4h-2l-2-3Zm17-18c-0.482,2.257-3.671,7.74-5,9h-2v1h1l3,4h2l1,2,3,1c1.712,2.732-.457,5.042,1,7v-1c1.139-1.139.4,0,1-2h3v-1h1v1h5l1-3h1v-2h1c1.368-1.8,1.587-1.969,2-5-1.139-1.139-.4,0-1-2l-3-1v-1l-5-1v-1h-2l-1-2h-2v-1h-2v-1ZM762,288c1.5,5.474,3.859,2.453,4,11-4.145,2.809-4.682,9.366-9,12-1.89,1.968-.478.054-3,1-5.8,2.175-9.358-3.123-11-8v-5h-1q-0.5-3-1-6c5.014-2.959,6.012-7.577,14-8v1h4C759.905,286.436,758.952,287.274,762,288Zm810,246c0.67,2,1.33,4,2,6h1v4h1a22.776,22.776,0,0,0-1,4c-2.39,1.6-2.6,4.414-5,6v1h-3v1h-2v1h-2v1h-9c-1.38-2.612-1.77-1.693-2-6h-1c-0.33-1.375.7,0.383,1-1v-3h1c3.61-3.042,7.67.482,11-5-2.3-1.3-9.22-6.891-13-6v1l-6,2v1a8.4,8.4,0,0,1-4,2c0.33,3.666.67,7.334,1,11,1.13,0.844.15-.127,1,1,6.15-.175,8.1.729,8,7l-3,2v1l-10,1c-1.44-2.465-3.14-2.788-4-6h-2c-0.47-3.969-2.09-6.88-3-10-2.69-9.233,4.49-13.519,8-17l3-4h4v-1c1.93-.871,8.69-3.179,12-2v1c1.67,0.333,3.33.667,5,1v1h2v1h4v1C1568.92,532.374,1569.31,533.235,1572,534ZM707,768c8.165-.142,12.939,1.728,19,3,3.439,5.783,6.991,4.87,7,15-1.139,1.139-.4,0-1,2l-4,3v1h-3v1l-4,1v1h-3c-3.617,2.531,2.661,6.282-7,7v1h-6v-1h-4v1c-3.256.8-6.915-2.283-8-4h-1v-3h-1v-2h-1V783c2.535-2.239.688-2.711,2-5l3-2q0.5-1.5,1-3h2q0.5-1,1-2h2v-1l6-1v-1Zm-5,24a34.651,34.651,0,0,1,7-1v-4c3.3-1.644,7.617-3.451,11-5v-1h-4c-2.449-2.289-7.55-.28-11,0a13.3,13.3,0,0,1-3,4v7ZM265,885c5.305-.226,9.866-0.02,13,2l2,3,3-1c3.249,1.23,3.953,3.336,4,8-1.139,1.139-.4,0-1,2a7.49,7.49,0,0,0-3,2l-10-2-1-2h-3v-1h-2c-1.863-1.031-6.117-4.4-4-9A12.383,12.383,0,0,0,265,885Zm1396,170c-0.36-1.9-2.01-4.26-1-7h1v-2c1.33-1,2.67-2,4-3v-2c0.67-.33,1.33-0.67,2-1a20.125,20.125,0,0,0,3-7c3.08-.63,3.46-1.6,7-2,3.07,4.63,7.15,3.85,8,12h-1c-0.33,2.33-.67,4.67-1,7-0.67.33-1.33,0.67-2,1v2c-1.33,1-2.67,2-4,3v2c-1,.67-2,1.33-3,2v1h-6c-1.02-1.31-3.06-1.81-4-3-0.33-1-.67-2-1-3h-2Z"/>
</svg>
