<svg width="490" height="202" viewBox="0 0 490 202" fill="none" xmlns="http://www.w3.org/2000/svg">
<path fill-rule="evenodd" clip-rule="evenodd" d="M13.2175 179.286C12.8977 179.286 9.38073 181.204 9.38073 181.204L8.10181 187.918C8.10181 187.918 7.03584 194.099 6.50317 197.19H6.18345V198.789H5.86372C5.37741 200.02 5.64183 200.647 4.26508 201.027V201.347H1.70725C1.23821 200.586 0.402763 200.023 0.108613 199.109C-0.290408 197.868 0.521701 195.991 0.748069 195.272V193.673H1.0678V192.394H1.38752V190.796H1.70725V189.197H2.02698V187.279H2.34671V183.762H2.66644V181.843H2.98617V180.884H3.30589V179.286H3.62562C3.7322 178.007 3.83877 176.728 3.94535 175.449H4.26508V173.211H4.58481C4.69138 172.037 4.79796 170.865 4.90453 169.694H5.22426V168.415H5.54399C5.65057 167.456 5.75714 166.497 5.86372 165.537H6.18345V163.939H6.50317C6.71633 162.66 6.92948 161.381 7.14263 160.102H7.46236V158.823H7.78209V157.864H8.10181C8.31507 156.799 8.52801 155.731 8.74127 154.667H9.061C9.16747 153.813 9.27426 152.962 9.38073 152.109C12.8216 142.574 15.225 132.228 18.6528 122.694V121.415H18.9726V120.456H19.2923V119.496H19.612V118.218H19.9318V116.939C21.0032 113.956 21.8613 110.519 22.8093 107.347C23.2403 105.905 22.652 102.161 23.4488 101.272V100.633C23.9814 100.207 24.5147 99.7788 25.0474 99.3536V99.0339H25.6869L26.3263 98.0747H26.9658C27.0722 97.8605 27.179 97.6495 27.2855 97.4352C27.7117 97.3297 28.1382 97.221 28.5644 97.1155C28.6709 96.9013 28.7777 96.6903 28.8841 96.4761H29.5236L30.163 95.5169H30.8025C30.909 95.3027 31.0158 95.0916 31.1222 94.8774H31.7617L32.4011 93.9182H33.0406C33.1471 93.704 33.2539 93.493 33.3603 93.2788C33.6801 93.1733 33.9998 93.0646 34.3195 92.959V92.6393H34.959C35.0654 92.4251 35.1722 92.2141 35.2787 91.9999H35.9182C36.0246 91.7856 36.1314 91.5746 36.2379 91.3604H36.8773L37.5168 90.4012H38.1562C38.2627 90.187 38.3695 89.976 38.476 89.7618C38.7957 89.6563 39.1154 89.5476 39.4352 89.442V89.1223H40.0746C40.1811 88.9081 40.2879 88.6971 40.3943 88.4829H41.0338C41.1403 88.2686 41.2471 88.0576 41.3535 87.8434H41.993C42.0995 87.6292 42.2062 87.4182 42.3127 87.2039H42.9522C43.0586 86.9897 43.1654 86.7787 43.2719 86.5645H43.9114C44.0178 86.3503 44.1246 86.1393 44.2311 85.925H44.8705C44.977 85.7108 45.0838 85.4998 45.1903 85.2856H45.8297C45.9362 85.0714 46.043 84.8603 46.1495 84.6461H46.7889C46.8954 84.4319 47.0022 84.2209 47.1086 84.0067C47.5348 83.9012 47.9613 83.7924 48.3876 83.6869C48.494 83.4727 48.6008 83.2617 48.7073 83.0475H49.3467V82.7278C49.6665 82.6222 49.9862 82.5135 50.3059 82.408C50.4124 82.1938 50.5192 81.9828 50.6256 81.7686H51.2651C51.3716 81.5544 51.4784 81.3433 51.5848 81.1291C51.9046 81.0236 52.2243 80.9149 52.544 80.8094V80.4897C52.9702 80.3841 53.3967 80.2754 53.8229 80.1699C53.9294 79.9557 54.0362 79.7447 54.1427 79.5305H54.7821V79.2107C55.1018 79.1052 55.4216 78.9965 55.7413 78.891C55.8478 78.6768 55.9546 78.4658 56.061 78.2516H56.7005C56.8069 78.0373 56.9137 77.8263 57.0202 77.6121H57.6597L58.2991 76.6529H58.9386C59.045 76.4387 59.1518 76.2277 59.2583 76.0135H59.8978C60.0042 75.7992 60.111 75.5882 60.2175 75.374H60.8569C60.9634 75.1598 61.0702 74.9488 61.1767 74.7346H61.8161C61.9226 74.5203 62.0294 74.3093 62.1359 74.0951C62.5621 73.9896 62.9886 73.8809 63.4148 73.7754V73.4556C63.7345 73.3501 64.0542 73.2414 64.374 73.1359C64.4804 72.9217 64.5872 72.7107 64.6937 72.4965C65.1199 72.391 65.5464 72.2822 65.9726 72.1767C66.0791 71.9625 66.1859 71.7515 66.2923 71.5373H66.9318V71.2176C67.2515 71.112 67.5712 71.0033 67.891 70.8978C67.9974 70.6836 68.1042 70.4726 68.2107 70.2584H68.8501C68.9566 70.0441 69.0634 69.8331 69.1699 69.6189C69.4896 69.5134 69.8093 69.4047 70.1291 69.2992V68.9795C70.5553 68.8739 70.9818 68.7652 71.408 68.6597C71.5144 68.4455 71.6212 68.2345 71.7277 68.0203H72.3671C72.4736 67.8061 72.5804 67.595 72.6869 67.3808H73.3263C73.4328 67.1666 73.5396 66.9556 73.6461 66.7414H74.2855C74.392 66.5271 74.4988 66.3161 74.6052 66.1019C75.0314 65.9964 75.458 65.8877 75.8842 65.7822C75.9906 65.568 76.0974 65.3569 76.2039 65.1427C76.6301 65.0372 77.0566 64.9285 77.4828 64.823V64.5033C77.8025 64.3978 78.1223 64.289 78.442 64.1835C78.5485 63.9693 78.6552 63.7583 78.7617 63.5441C79.1879 63.4386 79.6144 63.3299 80.0406 63.2243C80.1471 63.0101 80.2539 62.7991 80.3604 62.5849H80.9998V62.2652H81.6393V61.9454H82.2787V61.6257H82.9182C83.0246 61.4115 83.1314 61.2005 83.2379 60.9863C83.8774 60.772 84.5168 60.561 85.1563 60.3468C85.2627 60.1326 85.3695 59.9216 85.476 59.7073H86.1155V59.3876H86.7549C86.8614 59.1734 86.9682 58.9624 87.0746 58.7482C87.7141 58.5339 88.3535 58.3229 88.993 58.1087C89.0995 57.8945 89.2063 57.6835 89.3127 57.4692C89.9522 57.255 90.5916 57.044 91.2311 56.8298C91.3376 56.6156 91.4444 56.4045 91.5508 56.1903H92.1903V55.8706H92.8297C92.9362 55.6564 93.043 55.4454 93.1495 55.2311C93.7889 55.0169 94.4284 54.8059 95.0678 54.5917C95.1743 54.3775 95.2811 54.1665 95.3876 53.9522C95.8138 53.8467 96.2403 53.738 96.6665 53.6325C96.7729 53.4183 96.8797 53.2073 96.9862 52.9931C97.6257 52.7788 98.2651 52.5678 98.9046 52.3536C99.011 52.1394 99.1178 51.9284 99.2243 51.7141C99.6505 51.6086 100.077 51.4999 100.503 51.3944C100.61 51.1802 100.716 50.9692 100.823 50.755H101.462V50.4352C101.889 50.3297 102.315 50.221 102.741 50.1155V49.7958C103.061 49.6903 103.381 49.5816 103.7 49.476C103.807 49.2618 103.914 49.0508 104.02 48.8366C104.66 48.6224 105.299 48.4114 105.939 48.1971V47.8774C106.258 47.7719 106.578 47.6632 106.898 47.5577C107.004 47.3435 107.111 47.1324 107.218 46.9182C107.644 46.8127 108.07 46.704 108.496 46.5985C108.603 46.3843 108.71 46.1733 108.816 45.959H109.456L110.095 44.9999H110.735C110.841 44.7856 110.948 44.5746 111.054 44.3604C111.374 44.2549 111.694 44.1462 112.013 44.0407V43.7209H112.653C112.759 43.5067 112.866 43.2957 112.973 43.0815C113.399 42.976 113.825 42.8673 114.252 42.7618C114.358 42.5475 114.465 42.3365 114.571 42.1223H115.211C115.317 41.9081 115.424 41.6971 115.53 41.4828C115.85 41.3773 116.17 41.2686 116.49 41.1631L117.129 40.2039H117.769C117.875 39.9897 117.982 39.7787 118.088 39.5645H118.728L119.367 38.6053C119.793 38.4998 120.22 38.3911 120.646 38.2856C120.753 38.0713 120.859 37.8603 120.966 37.6461H121.605C122.031 37.1122 122.458 36.5814 122.884 36.0475H123.524C123.843 35.6222 124.163 35.1938 124.483 34.7686H125.122C125.229 34.5543 125.336 34.3433 125.442 34.1291H126.081L126.721 33.1699H127.36C128 32.4249 128.639 31.6789 129.279 30.9318H129.918C130.025 30.7176 130.131 30.5066 130.238 30.2924H130.877C130.984 30.0781 131.091 29.8671 131.197 29.6529H131.837C131.943 29.4387 132.05 29.2277 132.156 29.0134H132.796C132.902 28.7992 133.009 28.5882 133.115 28.374H133.755V28.0543H134.394V27.7345H135.034V27.4148H135.673C135.78 27.2006 135.887 26.9896 135.993 26.7754C136.419 26.6698 136.846 26.5611 137.272 26.4556C137.378 26.2414 137.485 26.0304 137.592 25.8162H138.231V25.4964H138.871V25.1767H139.51V24.857H140.149V24.5373H140.789V24.2175H141.428V23.8978H142.068V23.5781H142.707V23.2583H143.347V22.9386H143.986V22.6189H144.626V22.2992C145.265 22.0849 145.905 21.8739 146.544 21.6597V21.34H147.503V21.0202H148.143V20.7005H149.102V20.3808H150.061V20.0611H151.02V19.7413H151.979V19.4216H153.258V19.1019H153.898V18.7822C154.857 18.5679 155.816 18.3569 156.775 18.1427V17.823H157.735V17.5032H158.694V17.1835H159.653V16.8638H160.612V16.5441H161.571V16.2243H162.53V15.9046C163.17 15.7991 163.809 15.6904 164.449 15.5849V15.2651H165.728V14.9454H166.687V14.6257H167.966C174.588 12.2245 182.194 10.4373 189.068 8.23113C190.134 8.12562 191.2 8.01691 192.265 7.9114C195.93 6.72521 200.426 5.89072 204.095 4.71412H205.694V4.39439H207.292V4.07466H208.891V3.75494H210.49V3.43521H211.769V3.11548H213.048V2.79575H214.326V2.47602H215.605V2.1563H217.204V1.83657C218.377 1.73106 219.548 1.62235 220.721 1.51684V1.19711C222.403 0.707928 227.064 1.46249 228.075 0.557655C240.877 0.301873 253.621 0.212349 262.605 3.75494C263.35 3.86045 264.098 3.96915 264.843 4.07466V4.39439C265.483 4.60861 266.122 4.81963 266.762 5.03385V5.35358H267.401V5.6733H268.041V5.99303H268.68V6.31276H269.32V6.63249H269.959V6.95222H270.599C270.704 7.16643 270.813 7.37745 270.918 7.59167H271.558C271.772 7.9114 271.983 8.23113 272.197 8.55086C272.622 8.65637 273.051 8.76507 273.476 8.87058C273.69 9.19031 273.901 9.51004 274.116 9.82977H274.755V10.1495H275.394C275.5 10.3637 275.609 10.5747 275.714 10.789C276.139 10.8945 276.568 11.0032 276.993 11.1087C277.207 11.4284 277.418 11.7481 277.633 12.0679H278.272C278.378 12.2821 278.486 12.4931 278.592 12.7073C279.231 12.9215 279.871 13.1326 280.51 13.3468C280.616 13.561 280.724 13.772 280.83 13.9862H281.469V14.306H282.109C282.214 14.5202 282.323 14.7312 282.428 14.9454C282.748 15.0509 283.068 15.1596 283.388 15.2651V15.5849C284.027 15.7991 284.667 16.0101 285.306 16.2243C285.412 16.4385 285.52 16.6496 285.626 16.8638C286.265 17.078 286.905 17.289 287.544 17.5032C287.65 17.7175 287.758 17.9285 287.864 18.1427C288.289 18.2482 288.718 18.3569 289.143 18.4624C289.248 18.6766 289.357 18.8877 289.462 19.1019C290.102 19.3161 290.741 19.5271 291.381 19.7413C291.486 19.9556 291.595 20.1666 291.701 20.3808H292.34V20.7005H292.98V21.0202H293.619V21.34H294.258C294.364 21.5542 294.473 21.7652 294.578 21.9794C295.218 22.1936 295.857 22.4047 296.497 22.6189V22.9386H297.136V23.2583C297.775 23.4726 298.415 23.6836 299.054 23.8978V24.2175H300.014V24.5373C300.653 24.7515 301.292 24.9625 301.932 25.1767V25.4964H302.571V25.8162C303.211 26.0304 303.85 26.2414 304.49 26.4556C304.595 26.6698 304.704 26.8809 304.809 27.0951C305.235 27.2006 305.663 27.3093 306.088 27.4148C306.194 27.629 306.303 27.84 306.408 28.0543C306.833 28.1598 307.262 28.2685 307.687 28.374V28.6937C310.67 28.7992 313.654 28.9058 316.639 29.0134V29.3332C317.918 29.4387 319.197 29.5453 320.476 29.6529C324.348 30.8359 329.278 31.0373 333.265 32.2107C335.398 32.4249 337.529 32.6381 339.66 32.8502V33.1699C340.833 33.2754 342.003 33.3841 343.177 33.4896V33.8094H345.095V34.1291H346.694V34.4488H348.292V34.7686H349.571V35.0883C350.636 35.1938 351.704 35.3025 352.769 35.408C356.714 36.6837 361.635 37.3456 365.558 38.6053C366.622 38.7108 367.69 38.8195 368.755 38.925V39.2447H370.034V39.5645H371.313V39.8842H372.912V40.2039H374.19V40.5237H375.469V40.8434C376.429 40.9489 377.388 41.0576 378.347 41.1631V41.4828H379.946V41.8026H381.224V42.1223H382.823L396.252 45.959C400.942 46.8127 405.631 47.6653 410.32 48.5169V48.8366C410.854 48.9421 411.384 49.0508 411.918 49.1563C412.024 49.3705 412.133 49.5816 412.238 49.7958H412.878V50.1155C413.092 50.221 413.303 50.3297 413.517 50.4352V51.0747C413.837 51.2889 414.156 51.4999 414.476 51.7141V52.3536H414.796C415.116 52.7788 415.435 53.2073 415.755 53.6325H416.395C417.139 54.4862 417.886 55.3388 418.633 56.1903H419.272V56.5101C419.592 56.7243 419.912 56.9353 420.231 57.1495C420.445 57.4692 420.657 57.789 420.871 58.1087H421.51C422.044 58.7482 422.575 59.3876 423.109 60.0271H423.748C424.068 60.4523 424.388 60.8807 424.707 61.306H425.347C425.667 61.7312 425.986 62.1597 426.306 62.5849H426.946C427.16 62.9046 427.371 63.2243 427.585 63.5441H428.224C428.439 63.8638 428.65 64.1835 428.864 64.5033H429.503C429.823 64.9285 430.143 65.3569 430.463 65.7822H431.102C431.208 65.9964 431.316 66.2074 431.422 66.4216H432.061C432.275 66.7414 432.486 67.0611 432.701 67.3808H433.34C433.554 67.7005 433.765 68.0203 433.98 68.34H434.619C434.939 68.7652 435.258 69.1937 435.578 69.6189C435.898 69.7244 436.218 69.8331 436.537 69.9386C436.643 70.1529 436.752 70.3639 436.857 70.5781H437.497C437.602 70.7923 437.711 71.0033 437.816 71.2176H438.136C438.242 71.4318 438.35 71.6428 438.456 71.857H439.095C439.52 72.391 439.949 72.9217 440.374 73.4556H441.014C441.548 74.0951 442.078 74.7346 442.612 75.374H443.252C444.211 76.4387 445.17 77.5045 446.129 78.5713H446.769C447.194 79.1052 447.622 79.636 448.048 80.1699H448.687C448.793 80.3841 448.901 80.5952 449.007 80.8094C449.327 80.9149 449.646 81.0236 449.966 81.1291C450.286 81.5544 450.605 81.9828 450.925 82.408H451.565C451.99 82.942 452.418 83.4727 452.844 84.0067H453.483C453.697 84.3264 453.908 84.6461 454.122 84.9659H454.762C454.976 85.2856 455.187 85.6053 455.401 85.925H456.041C456.575 86.5645 457.105 87.2039 457.639 87.8434H458.279C459.663 89.3365 461.049 90.8286 462.435 92.3196C463.82 93.5985 465.205 94.8774 466.592 96.1563V96.7958C468.405 98.4999 470.216 100.205 472.027 101.911C472.772 102.765 473.518 103.618 474.265 104.469H474.905L477.782 108.306H478.422C478.636 108.626 478.847 108.945 479.061 109.265H479.701C480.126 109.799 480.554 110.33 480.98 110.864C481.833 111.609 482.686 112.355 483.537 113.102V113.741C483.752 113.847 483.963 113.956 484.177 114.061V114.381C484.711 114.806 485.242 115.234 485.776 115.66V116.299C486.095 116.513 486.415 116.724 486.735 116.939V117.578C487.054 117.792 487.374 118.003 487.694 118.218V118.857C489.261 121.197 490.277 122.166 489.612 125.891C488.829 126.24 488.58 126.47 487.374 126.53C486.735 125.997 486.095 125.466 485.456 124.932V124.292C485.242 124.187 485.031 124.078 484.816 123.973V123.333C484.497 123.119 484.177 122.908 483.857 122.694V122.054C483.537 121.84 483.218 121.629 482.898 121.415V120.775C482.578 120.561 482.259 120.35 481.939 120.136V119.496C481.514 119.177 481.085 118.857 480.66 118.537C480.554 118.218 480.446 117.898 480.34 117.578C479.595 116.939 478.849 116.299 478.102 115.66C477.143 114.595 476.184 113.529 475.224 112.462C474.611 112.293 467.436 105.62 467.231 105.748C466.592 105.962 350.211 147.313 350.211 147.313L94.7481 179.925C94.7481 179.925 16.6386 180.638 13.2175 179.286Z" fill="black"/>
<path fill-rule="evenodd" clip-rule="evenodd" d="M28.8841 103.19C27.9713 109.505 26.9316 114.918 25.0474 120.136C24.8342 121.309 24.6211 122.482 24.4079 123.653H24.0882V124.932H23.7685V125.891H23.4488V127.17H23.129C23.0226 127.915 22.9158 128.663 22.8093 129.408H22.4896C22.2763 130.473 22.0634 131.541 21.8501 132.605H21.5304V133.565H21.2107V134.524H20.8909V135.483H20.5712V136.442H20.2515V137.721H19.9318V138.361H19.612V139.639H19.2923V140.599H18.9726V141.558H18.6528V142.837H18.3331V143.796H18.0134V144.755H17.6937C17.5872 145.5 17.4804 146.248 17.3739 146.993H17.0542C16.9477 147.738 16.8409 148.486 16.7345 149.231H16.4147C16.3083 149.976 16.2015 150.724 16.095 151.469H15.7753C15.6688 152.214 15.562 152.963 15.4556 153.707H15.1358C15.0294 154.561 14.9226 155.412 14.8161 156.265H14.4964V157.224H14.1766C14.0702 157.969 13.9634 158.718 13.8569 159.463H13.5372C13.324 160.636 13.1109 161.808 12.8977 162.98H12.578C12.4715 163.833 12.3647 164.684 12.2583 165.537H11.9385V167.136H11.6188V168.415H11.2991V170.014H10.9794V171.612H10.6596C10.4465 173.531 10.2333 175.449 10.0202 177.367C9.41551 179.446 9.09289 181.597 9.061 183.762C9.42389 184.03 9.10736 183.72 9.38073 184.082C11.6828 184.12 13.7357 185.05 15.4556 185.68H16.7345V186H17.3739V186.32H18.6528V186.639H19.612V186.959H20.5712V187.279H21.5304V187.599H22.8093V187.918H24.0882V188.238H25.3671V188.558H26.646V188.878C27.6052 188.983 28.5644 189.092 29.5236 189.197V189.517H30.4828V189.837H31.7617C34.0142 190.614 37.1091 191.039 39.4352 191.755C40.7141 191.861 41.993 191.967 43.2719 192.075C47.2538 193.299 51.8803 194.022 55.7413 195.272C63.095 196.446 70.4488 197.618 77.8025 198.789H81.959V199.109H85.1563C85.7813 199.163 85.7957 199.429 85.7957 199.429H90.5917V199.748C94.7481 199.854 98.9046 199.96 103.061 200.068C104.616 200.509 107.384 199.892 109.136 200.388C111.529 201.066 115.466 200.708 118.408 200.708C121.499 200.813 124.589 200.92 127.68 201.027V201.347H151.66V201.027H151.979V201.347C152.72 201.449 152.939 201.027 152.939 201.027C153.365 201.133 153.791 201.241 154.218 201.347V201.027H157.415C159.077 201.452 166.582 201.791 169.245 201.027H174.36V200.708H178.197V200.388H181.394V200.068H185.231V199.748H189.068V199.429H192.265V199.109C194.503 199.003 196.741 198.897 198.979 198.789C202.874 197.66 207.916 197.987 211.769 196.871H214.646V196.551C218.588 196.337 222.532 196.124 226.476 195.912V195.592H228.714V195.272H230.633C237.388 193.194 245.868 193.021 252.374 190.796C253.758 190.582 255.144 190.369 256.531 190.156C260.063 188.942 264.485 188.174 268.041 186.959C269 186.854 269.959 186.745 270.918 186.639C277.879 184.366 285.763 183.122 292.66 180.884C293.724 180.779 294.792 180.67 295.857 180.565V180.245H297.136V179.925H298.415V179.605H299.694V179.286H300.973V178.966H302.571V178.646H303.85V178.327C305.024 178.112 306.196 177.899 307.367 177.687V177.367H308.326V177.048C309.071 176.942 309.82 176.833 310.565 176.728V176.408C311.418 176.303 312.269 176.194 313.122 176.088V175.769H314.082V175.449C314.827 175.343 315.575 175.235 316.32 175.129V174.81H317.599V174.49C318.452 174.384 319.303 174.276 320.156 174.17V173.85C321.01 173.745 321.861 173.636 322.714 173.531C327.82 171.683 333.403 170.071 338.381 168.095C339.126 167.99 339.874 167.881 340.619 167.776V167.456C341.258 167.35 341.898 167.242 342.537 167.136V166.816H343.497V166.497H344.456V166.177H345.415V165.857H346.374V165.537H347.333V165.218C347.973 165.112 348.612 165.003 349.252 164.898V164.578H349.891V164.258H350.85V163.939H351.809V163.619H352.769V163.299H353.728V162.98H354.687V162.66H355.326V162.34C355.86 162.235 356.391 162.126 356.925 162.02V161.701C357.565 161.595 358.204 161.486 358.843 161.381V161.061H359.483V160.742H360.442V160.422H361.082V160.102C361.721 159.997 362.36 159.888 363 159.782V159.463H363.959V159.143H364.599V158.823H365.558V158.503H366.517V158.184H367.156V157.864C367.796 157.758 368.435 157.65 369.075 157.544V157.224C369.609 157.119 370.139 157.01 370.673 156.905V156.585H371.313V156.265H372.272V155.946C372.697 155.84 373.126 155.731 373.551 155.626V155.306C374.19 155.201 374.83 155.092 375.469 154.986V154.667C375.895 154.561 376.323 154.452 376.748 154.347V154.027H377.707V153.707H378.347V153.388C378.772 153.282 379.201 153.174 379.626 153.068V152.748H380.585V152.429C381.01 152.323 381.439 152.214 381.864 152.109V151.789H382.823V151.469H383.463V151.15C383.888 151.044 384.316 150.935 384.741 150.83V150.51H385.701V150.19C386.126 150.085 386.554 149.976 386.98 149.871V149.551H387.939V149.231H388.578V148.912H389.218V148.592C389.857 148.378 390.497 148.167 391.136 147.952V147.633H392.095V147.313C392.735 147.099 393.374 146.888 394.014 146.673V146.354H394.653V146.034H395.292V145.714H395.932V145.395H396.571V145.075H397.211V144.755H397.85V144.435H398.49V144.116H399.129V143.796H399.769V143.476H400.728V143.156H401.367V142.837H402.007V142.517H402.646V142.197C403.286 141.983 403.925 141.772 404.565 141.558V141.238H405.524V140.918C405.949 140.813 406.377 140.704 406.803 140.599V140.279H407.762V139.959H408.401V139.639C408.827 139.534 409.255 139.425 409.68 139.32V139C410.959 138.575 412.238 138.148 413.517 137.721V137.401C413.942 137.296 414.371 137.187 414.796 137.082V136.762H415.755V136.442C416.18 136.337 416.609 136.228 417.034 136.122V135.803H417.993V135.483C418.418 135.377 418.847 135.269 419.272 135.163V134.844H420.231V134.524H420.871V134.204H421.51V133.884C422.15 133.67 422.789 133.459 423.429 133.245V132.925H424.388V132.605H425.027V132.286H425.667V131.966H426.306V131.646H427.265V131.327H427.905V131.007C428.33 130.901 428.758 130.793 429.184 130.687V130.367H430.143V130.048H430.782V129.728H431.422V129.408H432.061V129.088H433.02V128.769C433.66 128.554 434.299 128.343 434.939 128.129V127.81C436.643 127.065 438.348 126.319 440.054 125.571C440.16 125.357 440.269 125.146 440.374 124.932H441.014V124.612H441.653V124.292H442.293V123.973H442.932V123.653H443.571C443.677 123.439 443.786 123.228 443.891 123.014C444.531 122.799 445.17 122.588 445.81 122.374C445.915 122.16 446.024 121.949 446.129 121.735C446.769 121.52 447.408 121.309 448.048 121.095C448.153 120.881 448.262 120.67 448.367 120.456H449.007V120.136H449.646V119.816H450.286V119.497H450.925V119.177H451.565V118.857H452.204V118.537H452.844V118.218H453.483C453.588 118.003 453.697 117.792 453.803 117.578H454.442V117.258H455.082V116.939H455.721V116.619H456.361V116.299C456.786 116.194 457.214 116.085 457.639 115.98C457.745 115.765 457.854 115.554 457.959 115.34H458.599V115.02H459.238V114.701H459.878V114.381H460.517C460.622 114.167 460.731 113.956 460.837 113.741C461.476 113.527 462.116 113.316 462.755 113.102C462.861 112.888 462.969 112.677 463.075 112.463C463.5 112.357 463.928 112.248 464.354 112.143C464.459 111.929 464.568 111.718 464.673 111.503H465.313V111.184H465.952V110.864H466.592V110.544H467.231C467.337 110.33 467.446 110.119 467.551 109.905H468.19V109.585C468.83 109.371 469.469 109.16 470.109 108.946C470.214 108.626 470.323 108.306 470.429 107.986C468.996 107.149 468.056 105.614 466.912 104.469C465.207 102.871 463.502 101.272 461.796 99.6734V99.034C461.156 98.5 460.517 97.9693 459.878 97.4353C458.762 96.3195 457.361 94.043 455.721 93.5986V92.9591C454.621 92.6714 453.895 91.7314 453.163 91.0408C453.058 90.8266 452.949 90.6155 452.844 90.4013H452.204C451.884 89.9761 451.565 89.5477 451.245 89.1224H450.605C450.391 88.8027 450.18 88.483 449.966 88.1632H449.327C449.007 87.738 448.687 87.3096 448.367 86.8843H447.728C447.408 86.4591 447.088 86.0306 446.769 85.6054H446.129C445.915 85.2857 445.704 84.9659 445.49 84.6462H444.85C444.425 84.1123 443.997 83.5815 443.571 83.0476H442.932C441.867 81.8742 440.802 80.7018 439.735 79.5306H439.095C438.456 78.7856 437.816 78.0396 437.177 77.2925H436.537C436.218 76.8672 435.898 76.4388 435.578 76.0136H434.939C434.833 75.7993 434.725 75.5883 434.619 75.3741H434.299C434.194 75.1599 434.085 74.9489 433.98 74.7346H433.34C433.126 74.4149 432.915 74.0952 432.701 73.7755H432.061C431.847 73.4557 431.636 73.136 431.422 72.8163H430.782C430.463 72.391 430.143 71.9626 429.823 71.5374H429.184C428.969 71.2176 428.758 70.8979 428.544 70.5782H427.905C427.799 70.364 427.691 70.1529 427.585 69.9387H426.946C426.626 69.5135 426.306 69.0851 425.986 68.6598C425.667 68.5543 425.347 68.4456 425.027 68.3401C424.922 68.1259 424.813 67.9149 424.707 67.7006H424.068C423.748 67.2754 423.429 66.847 423.109 66.4217H422.469C422.15 65.9965 421.83 65.568 421.51 65.1428H420.871C420.445 64.6089 420.017 64.0781 419.592 63.5442H418.952C418.418 62.9047 417.888 62.2653 417.354 61.6258H416.714C416.289 61.0919 415.861 60.5611 415.435 60.0272H415.116C415.01 59.8129 414.901 59.6019 414.796 59.3877H414.156C413.517 58.6427 412.878 57.8967 412.238 57.1496C411.333 56.2448 410.061 55.698 409.68 54.2721C409.255 54.1665 408.827 54.0578 408.401 53.9523V53.6326H406.803V53.3129H405.204V52.9931H403.286V52.6734H402.007V52.3537H400.408V52.034H398.809V51.7142H397.531V51.3945H395.932V51.0748H394.653V50.755H393.374V50.4353H391.775C387.936 49.1788 383.523 48.178 379.626 46.9183L373.551 45.9591C366.527 43.6699 358.268 42.8098 351.17 40.5238H349.571V40.204H348.292V39.8843H346.694V39.5646H345.095V39.2448H343.497V38.9251C341.578 38.7109 339.66 38.4977 337.741 38.2857V37.9659H335.823V37.6462H333.905V37.3265H331.667C326.231 36.2618 320.796 35.196 315.36 34.1292C312.163 33.915 308.966 33.7018 305.769 33.4897C303.636 32.2108 301.505 30.9319 299.374 29.653C298.949 29.5475 298.52 29.4388 298.095 29.3333V29.0135C297.67 28.908 297.241 28.7993 296.816 28.6938V28.3741C296.391 28.2686 295.963 28.1599 295.537 28.0544V27.7346H294.898V27.4149H294.258V27.0952H293.619V26.7754H292.98V26.4557C292.554 26.3502 292.126 26.2415 291.701 26.136C291.595 25.9218 291.486 25.7107 291.381 25.4965H290.741V25.1768H290.102V24.8571H289.462V24.5373H288.823C288.718 24.3231 288.609 24.1121 288.503 23.8979C288.078 23.7924 287.65 23.6837 287.224 23.5782C287.119 23.3639 287.01 23.1529 286.905 22.9387C286.479 22.8332 286.051 22.7245 285.626 22.619C285.52 22.4048 285.412 22.1937 285.306 21.9795C284.881 21.874 284.452 21.7653 284.027 21.6598C283.922 21.4456 283.813 21.2346 283.707 21.0203C283.282 20.9148 282.854 20.8061 282.428 20.7006C282.323 20.4864 282.214 20.2754 282.109 20.0612C281.684 19.9556 281.255 19.8469 280.83 19.7414C280.724 19.5272 280.616 19.3162 280.51 19.102C280.085 18.9965 279.656 18.8878 279.231 18.7822C279.126 18.568 279.017 18.357 278.911 18.1428H278.272V17.8231H277.633C277.527 17.6088 277.418 17.3978 277.313 17.1836H276.673C276.568 16.9694 276.459 16.7584 276.354 16.5441H275.714C275.609 16.3299 275.5 16.1189 275.394 15.9047H274.755V15.585C274.435 15.4795 274.116 15.3707 273.796 15.2652C273.69 15.051 273.582 14.84 273.476 14.6258H272.837C272.731 14.4116 272.622 14.2005 272.517 13.9863H271.877V13.6666C271.558 13.5611 271.238 13.4524 270.918 13.3469C270.813 13.1326 270.704 12.9216 270.599 12.7074H269.959C269.745 12.3877 269.534 12.068 269.32 11.7482H268.68C268.466 11.4285 268.255 11.1088 268.041 10.789H267.401V10.4693C266.762 10.3638 266.122 10.2551 265.483 10.1496V9.82986H264.843C264.738 9.61564 264.629 9.40462 264.524 9.1904C264.098 9.08489 263.67 8.97618 263.245 8.87067V8.55094H262.286V8.23122H261.326V7.91149H260.367V7.59176H259.088V7.27203H257.809V6.9523H256.531V6.63258H254.932V6.31285H253.653V5.99312H252.054V5.67339H249.816V5.35366H247.578V5.03394C241.398 5.13945 235.216 5.24602 229.034 5.35366C221.613 5.35366 214.697 7.05462 208.891 8.87067H207.292V9.1904H205.694V9.51013H204.415V9.82986H203.136V10.1496H201.537V10.4693H200.258V10.789H198.979V11.1088H197.701V11.4285H196.422V11.7482H194.823V12.068H193.544V12.3877H191.945V12.7074H190.347V13.0271H189.068V13.3469H187.789V13.6666H186.83V13.9863C185.977 14.0918 185.124 14.2005 184.272 14.306V14.6258H183.313V14.9455H182.354V15.2652L174.041 17.1836V17.5033H173.081V17.8231H172.122V18.1428H171.163V18.4625H170.204V18.7822H169.245V19.102H167.966V19.4217H166.687V19.7414C166.047 19.8469 165.408 19.9556 164.769 20.0612C161.754 21.2633 158.192 22.376 155.177 23.5782L148.462 25.4965V25.8163H147.823V26.136C147.397 26.2415 146.97 26.3502 146.544 26.4557V26.7754H145.905V27.0952H145.265V27.4149H144.626V27.7346H143.986V28.0544H143.347V28.3741H142.707V28.6938H142.068V29.0135H141.428V29.3333H140.789V29.653H140.149C140.043 29.8672 139.936 30.0782 139.83 30.2925C139.404 30.398 138.977 30.5067 138.551 30.6122C138.444 30.8264 138.338 31.0374 138.231 31.2516H137.592V31.5714H136.952V31.8911H136.313V32.2108H135.673C135.567 32.425 135.46 32.6361 135.354 32.8503H134.714V33.17C134.394 33.2755 134.075 33.3842 133.755 33.4897C133.648 33.7039 133.542 33.915 133.435 34.1292H132.796C132.689 34.3434 132.582 34.5544 132.476 34.7686H131.837C131.197 35.5136 130.558 36.2596 129.918 37.0067H129.279C129.172 37.221 129.065 37.432 128.959 37.6462C128.639 37.7517 128.32 37.8604 128 37.9659V38.2857H127.36L126.721 39.2448H126.081L125.442 40.204H124.803L124.163 41.1632H123.524C123.417 41.3774 123.31 41.5884 123.204 41.8027H122.564L121.925 42.7618H121.286C120.966 43.1871 120.646 43.6155 120.326 44.0408H119.687C119.367 44.466 119.047 44.8944 118.728 45.3197H118.088C117.982 45.5339 117.875 45.7449 117.769 45.9591H117.449C117.342 46.1733 117.236 46.3844 117.129 46.5986H116.49C116.383 46.8128 116.276 47.0238 116.17 47.238H115.53L114.891 48.1972H114.252C114.145 48.4114 114.038 48.6225 113.932 48.8367H113.292L112.653 49.7959H112.013C111.907 50.0101 111.8 50.2211 111.694 50.4353C111.374 50.5408 111.054 50.6495 110.735 50.755V51.0748H110.095C109.989 51.289 109.882 51.5 109.775 51.7142H109.136C109.029 51.9284 108.923 52.1395 108.816 52.3537H108.177C108.07 52.5679 107.963 52.7789 107.857 52.9931H107.218C107.111 53.2074 107.004 53.4184 106.898 53.6326C106.472 53.7381 106.045 53.8468 105.619 53.9523V54.2721C105.299 54.3776 104.979 54.4863 104.66 54.5918C104.553 54.806 104.446 55.017 104.34 55.2312C103.914 55.3368 103.487 55.4455 103.061 55.551V55.8707C102.741 55.9762 102.422 56.0849 102.102 56.1904C101.995 56.4046 101.889 56.6157 101.782 56.8299H101.143V57.1496H100.503C100.397 57.3638 100.29 57.5748 100.183 57.7891C99.7573 57.8946 99.3308 58.0033 98.9046 58.1088C98.7981 58.323 98.6913 58.534 98.5848 58.7482C98.1586 58.8538 97.7321 58.9625 97.3059 59.068C97.1995 59.2822 97.0927 59.4932 96.9862 59.7074H96.3468V60.0272H95.7073C95.6008 60.2414 95.494 60.4524 95.3876 60.6666C94.7481 60.8808 94.1087 61.0919 93.4692 61.3061C93.3627 61.5203 93.2559 61.7313 93.1495 61.9455C92.51 62.1597 91.8706 62.3708 91.2311 62.585C91.1246 62.7992 91.0178 63.0102 90.9114 63.2244C90.4852 63.33 90.0587 63.4387 89.6325 63.5442C89.526 63.7584 89.4192 63.9694 89.3127 64.1836C88.8865 64.2891 88.46 64.3978 88.0338 64.5034C87.9274 64.7176 87.8206 64.9286 87.7141 65.1428H87.0746V65.4625H86.4352V65.7823H85.7957C85.6893 65.9965 85.5825 66.2075 85.476 66.4217C84.8365 66.6359 84.1971 66.847 83.5576 67.0612C83.4512 67.2754 83.3444 67.4864 83.2379 67.7006C82.8117 67.8061 82.3852 67.9148 81.959 68.0204C81.8525 68.2346 81.7457 68.4456 81.6393 68.6598C81.2131 68.7653 80.7866 68.874 80.3604 68.9795C80.2539 69.1938 80.1471 69.4048 80.0406 69.619C79.6144 69.7245 79.1879 69.8332 78.7617 69.9387C78.6552 70.1529 78.5485 70.364 78.442 70.5782H77.8025C77.6961 70.7924 77.5893 71.0034 77.4828 71.2176H76.8433C76.7369 71.4319 76.6301 71.6429 76.5236 71.8571H75.8842C75.7777 72.0713 75.6709 72.2823 75.5644 72.4966C75.1382 72.6021 74.7117 72.7108 74.2855 72.8163V73.136C73.9658 73.2415 73.6461 73.3502 73.3263 73.4557C73.2199 73.67 73.1131 73.881 73.0066 74.0952C72.5804 74.2007 72.1539 74.3094 71.7277 74.4149C71.6212 74.6291 71.5144 74.8402 71.408 75.0544H70.7685C70.662 75.2686 70.5553 75.4796 70.4488 75.6938H69.8093C69.7029 75.9081 69.5961 76.1191 69.4896 76.3333H68.8501V76.653C68.5304 76.7585 68.2107 76.8672 67.891 76.9727C67.7845 77.187 67.6777 77.398 67.5712 77.6122H66.9318C66.8253 77.8264 66.7185 78.0374 66.612 78.2517C66.2923 78.3572 65.9726 78.4659 65.6529 78.5714V78.8911C65.2267 78.9966 64.8001 79.1053 64.374 79.2108C64.2675 79.4251 64.1607 79.6361 64.0542 79.8503H63.4148L62.7753 80.8095H62.1359V81.1292C61.8161 81.2347 61.4964 81.3434 61.1767 81.4489C61.0702 81.6632 60.9634 81.8742 60.8569 82.0884H60.2175L59.578 83.0476H58.9386C58.8321 83.2618 58.7253 83.4728 58.6188 83.687H57.9794C57.8729 83.9013 57.7661 84.1123 57.6597 84.3265C57.3399 84.432 57.0202 84.5407 56.7005 84.6462V84.966C56.2743 85.0715 55.8478 85.1802 55.4216 85.2857C55.3151 85.4999 55.2083 85.7109 55.1018 85.9251H54.4624C54.3559 86.1394 54.2491 86.3504 54.1427 86.5646H53.5032C53.3967 86.7788 53.2899 86.9898 53.1835 87.204H52.544C52.4375 87.4183 52.3308 87.6293 52.2243 87.8435C51.9046 87.949 51.5848 88.0577 51.2651 88.1632V88.483C50.8389 88.5885 50.4124 88.6972 49.9862 88.8027C49.8797 89.0169 49.7729 89.2279 49.6665 89.4421H49.027V89.7619H48.3875L47.7481 90.7211H47.1086C47.0022 90.9353 46.8954 91.1463 46.7889 91.3605C46.4692 91.466 46.1495 91.5747 45.8297 91.6802V92H45.1903C45.0838 92.2142 44.977 92.4252 44.8705 92.6394H44.2311C44.1246 92.8536 44.0178 93.0647 43.9114 93.2789H43.2719C43.1654 93.4931 43.0586 93.7041 42.9522 93.9183H42.3127C42.2062 94.1326 42.0995 94.3436 41.993 94.5578H41.3535L40.7141 95.517H40.0746V95.8367C39.7549 95.9422 39.4352 96.0509 39.1154 96.1564C39.009 96.3706 38.9022 96.5817 38.7957 96.7959H38.1562L37.5168 97.7551H36.8773C36.7709 97.9693 36.6641 98.1803 36.5576 98.3945H35.9182V98.7143C35.5984 98.8198 35.2787 98.9285 34.959 99.034C34.8525 99.2482 34.7457 99.4592 34.6392 99.6734H33.9998L33.3603 100.633H32.7209C31.536 101.432 30.4668 102.772 28.8841 103.19Z" fill="#4B81D7"/>
</svg>
