<svg width="384" height="202" viewBox="0 0 384 202" fill="none" xmlns="http://www.w3.org/2000/svg">
<path fill-rule="evenodd" clip-rule="evenodd" d="M100.918 46.2787H101.877V46.5984H102.197C102.5 47.0876 102.466 51.4679 102.197 52.3535C100.945 56.4876 101.925 61.8974 101.877 66.7413C100.872 67.2784 100.348 67.6685 98.6801 67.7005C98.3195 66.9331 98.1008 66.3192 97.7209 65.4624H97.4012V60.3467C97.4012 54.8698 98.3668 50.7773 99.959 46.9181C100.326 46.7858 100.655 46.5664 100.918 46.2787ZM245.435 54.9113C245.65 55.7011 246.177 56.4141 246.394 57.1494C247.066 59.4035 245.857 64.0364 245.435 65.4624V68.0202H245.116V69.6188H244.796V71.2175H244.476V72.4964H244.156V73.7753H243.837V74.7345H243.517V75.6937H243.197V76.6529H242.877V77.2923H242.558C242.452 77.9318 242.344 78.5712 242.238 79.2107H241.918V79.8501H241.599V80.8093H241.279C241.173 81.2346 241.065 81.663 240.959 82.0882H240.639C240.534 82.9419 240.425 83.7924 240.32 84.6461H240V85.2855H239.68V86.2447H239.36C239.146 86.8841 238.935 87.5236 238.721 88.1631H238.401V88.8025H238.082V89.7617H237.762C237.656 90.1869 237.548 90.6154 237.442 91.0406C237.017 91.3603 236.588 91.6801 236.163 91.9998C234.584 94.3402 234.769 96.7765 230.728 96.7957C230.191 95.7886 229.801 95.2674 229.769 93.5984C230.798 92.8918 230.968 91.7568 231.687 90.7209C232.007 90.5067 232.326 90.2956 232.646 90.0814C232.752 89.6562 232.86 89.2278 232.966 88.8025C233.18 88.697 233.391 88.5883 233.605 88.4828C233.711 88.0575 233.82 87.6291 233.925 87.2039C234.139 87.0984 234.35 86.9897 234.565 86.8841V85.925H234.884V85.2855H235.204C235.31 84.7516 235.418 84.2208 235.524 83.6869H235.843V82.7277H236.163V82.0882H236.483C236.588 81.4488 236.697 80.8093 236.803 80.1699H237.122C237.228 79.7446 237.337 79.3162 237.442 78.8909H237.762C237.867 78.357 237.976 77.8263 238.082 77.2923C238.296 77.1868 238.507 77.0781 238.721 76.9726C238.935 76.0134 239.146 75.0542 239.36 74.095H239.68V73.1358H240V72.1767H240.32V71.2175H240.639V70.2583H240.959V69.2991H241.279V66.4216H241.599C241.813 65.2482 242.026 64.0758 242.238 62.9045H242.558V61.6256H242.877C242.983 59.8128 243.09 58.001 243.197 56.1903H243.517V55.5508H243.837C244.051 55.2311 244.262 54.9113 244.476 54.5916C244.796 54.6971 245.116 54.8058 245.435 54.9113ZM378.122 64.1835C378.017 65.2482 377.908 66.316 377.803 67.3807H377.483V68.0202H377.163C377.058 68.8739 376.949 69.7243 376.844 70.578H376.524V71.5372H376.204V72.8161H375.884V74.095H375.565V75.3739H375.245V76.3331H374.925V78.5712H374.605V79.5304H374.286C373.221 84.6461 372.155 89.7617 371.088 94.8773C371.303 96.0508 371.516 97.2231 371.728 98.3944H372.048C372.153 99.8875 372.26 101.38 372.367 102.871H372.687V105.109H373.007V106.388H373.327V107.986H373.646C373.966 110.65 374.286 113.314 374.605 115.979H374.925C375.031 116.939 375.139 117.898 375.245 118.857H375.565V122.374H375.884V123.653H376.204V124.932H376.524V126.211H376.844V128.769H377.163V130.047H377.483V131.966H377.803V133.884H378.122V135.803H378.442V138.041H378.762V140.279H379.082V142.197H379.401C379.616 145.075 379.829 147.952 380.041 150.83H380.361V153.388H380.68V155.945H381V158.503H381.32V159.462H381.639V160.422H381.959V161.701H382.279V163.299H382.599V165.537H382.918C383.276 166.81 382.743 169.502 382.279 170.013V170.333H381C380.041 169.479 379.082 168.627 378.122 167.775V167.136C377.908 167.03 377.697 166.922 377.483 166.816C377.377 166.391 377.269 165.962 377.163 165.537H376.844C376.629 164.044 376.416 162.552 376.204 161.061H375.884C375.779 160.102 375.67 159.143 375.565 158.184H375.245V156.905H374.925V153.388H374.605V150.51H374.286V147.313H373.966C373.86 145.5 373.754 143.688 373.646 141.877H373.327V139.639H373.007V137.081H372.687V134.204H372.367V132.925H372.048V131.007H371.728V129.088H371.408C371.303 128.024 371.194 126.956 371.088 125.891H370.769C370.663 123.973 370.557 122.054 370.449 120.136H370.129V118.537C369.608 116.804 369.375 114.195 368.85 112.462V110.864H368.531V107.347H368.211V105.109H367.891V101.592C367.655 100.201 366.587 97.5982 367.252 95.5168H367.571V94.5576H367.891V92.959H368.211V91.3603H368.531V90.0814H368.85V88.8025H369.17V87.5236H369.49C369.595 86.6699 369.704 85.8195 369.81 84.9658H370.129V84.0066H370.449V83.0474H370.769V81.129H371.088V80.1699H371.408V79.2107H371.728V77.2923H372.048V76.3331H372.367V75.3739H372.687V74.095H373.007C373.112 73.3501 373.221 72.6019 373.327 71.8569H373.646V70.8977H373.966V69.9386H374.286V68.9794H374.605V68.0202H374.925V67.061C375.139 66.9555 375.35 66.8468 375.565 66.7413V65.7821H375.884V65.1426C376.204 65.0371 376.524 64.9284 376.844 64.8229C376.949 64.6087 377.058 64.3977 377.163 64.1835H378.122ZM1.16305 121.735H1.8025C2.01565 122.694 2.22881 123.653 2.44196 124.612H2.76169V125.252H3.08141L3.40114 128.449H3.72087V130.047H4.0406V131.326H4.36033V132.925H4.68006V134.204H4.99978V135.483H5.31951V137.401H5.63924V139.32H5.95897V141.238H6.2787V144.115H6.59842V145.075H6.91815C7.1313 146.459 7.34446 147.845 7.55761 149.231H7.87734C7.98391 150.19 8.09049 151.149 8.19706 152.109H8.51679V153.388H8.83652V154.666H9.15625V155.945H9.47598V159.143H9.7957V161.701H10.1154V166.496H10.4352C10.5417 167.99 10.6483 169.482 10.7549 170.973H11.0746L11.3943 175.129C12.0392 177.335 12.3481 180.021 12.993 182.163V184.081C13.1967 184.759 13.5883 185.699 13.6324 186.639V189.517H13.9522V190.476H14.2719V191.755H14.5916V193.034H14.9114V194.633C15.0412 195.064 15.1547 194.508 15.2311 194.952C15.601 197.11 15.4434 200.554 14.2719 201.347C13.7153 201.922 12.867 201.983 11.7141 201.986C11.0832 201.027 10.8108 201.686 10.4352 200.388C9.63136 199.422 10.5458 197.328 10.1154 195.911H9.7957V194.633H9.47598V193.354H9.15625V192.075H8.83652V189.197H8.51679V185.68H8.19706V184.081H7.87734V181.843C6.93446 178.646 6.9092 174.263 5.95897 170.973V168.415H5.63924V163.299H5.31951C5.21293 160.527 5.10636 157.756 4.99978 154.986H4.68006V153.707H4.36033V152.109H4.0406V150.51H3.72087V149.231H3.40114V147.952H3.08141V145.075H2.76169V143.156H2.44196V141.238H2.12223V137.081C1.64264 135.419 1.32291 132.989 0.843318 131.326V128.129H0.52359V123.333H0.843318C0.949788 122.799 1.05658 122.268 1.16305 121.735Z" fill="black"/>
<path fill-rule="evenodd" clip-rule="evenodd" d="M235.204 5.67334C235.309 6.09858 235.418 6.52702 235.524 6.95225H235.843C235.738 7.4862 235.629 8.01695 235.524 8.5509C234.622 9.04647 234.437 9.43654 232.966 9.51008C232.371 8.83226 231.508 8.74913 230.728 8.23117C230.622 8.01695 230.514 7.80593 230.408 7.59171H229.769C229.663 7.37749 229.554 7.16647 229.449 6.95225H228.809V6.63253H227.85V6.3128C226.466 6.20729 225.08 6.10071 223.694 5.99307V5.67334H222.415V5.35361C221.241 5.2481 220.071 5.1394 218.898 5.03389C219.138 6.01545 219.752 6.52382 220.177 7.27198V7.91144C220.391 8.01695 220.602 8.12566 220.816 8.23117V8.87062H221.136V9.51008H221.456V10.1495H221.775V10.789H222.095V11.4284H222.415C222.52 11.8537 222.629 12.2821 222.735 12.7074C222.949 12.8129 223.16 12.9216 223.374 13.0271C223.588 13.6665 223.799 14.306 224.013 14.9455C224.228 15.051 224.439 15.1597 224.653 15.2652L225.612 18.1427H225.932V18.7822H226.252V19.4216H226.571C226.786 20.0611 226.997 20.7006 227.211 21.34H227.531C227.636 21.9795 227.745 22.6189 227.85 23.2584C228.49 23.7923 229.129 24.3231 229.769 24.857V25.4965C229.983 25.602 230.194 25.7107 230.408 25.8162C230.622 26.4557 230.833 27.0951 231.048 27.7346C231.262 27.8401 231.473 27.9488 231.687 28.0543C231.792 28.5883 231.901 29.119 232.007 29.653H232.326V30.2924H232.646C232.752 30.9319 232.86 31.5713 232.966 32.2108H233.286V33.17H233.605V34.1291H233.925C234.031 34.8741 234.139 35.6223 234.245 36.3672H234.565C234.67 37.2209 234.779 38.0714 234.884 38.9251H235.204V40.5237C236.361 44.3381 236.288 53.6198 235.204 57.4693V60.6666H234.884V62.5849H234.565V63.8639H234.245C234.139 64.9286 234.031 65.9964 233.925 67.0611H233.605V68.0203H233.286V68.9795H232.966V69.9387H232.646V70.5781H232.326C232.221 71.2176 232.112 71.8571 232.007 72.4965H231.687V73.136H231.367V74.0952H231.048V74.7346H230.728V75.6938H230.408C230.194 76.3333 229.983 76.9727 229.769 77.6122H229.449V78.2516H229.129V78.8911H228.809C228.595 79.5305 228.384 80.17 228.17 80.8094H227.85C227.745 81.1292 227.636 81.4489 227.531 81.7686C227.316 81.8741 227.105 81.9828 226.891 82.0883V82.7278H226.571V83.3673C226.357 83.4728 226.146 83.5815 225.932 83.687C225.826 84.1122 225.718 84.5407 225.612 84.9659H225.292C225.187 85.2856 225.078 85.6054 224.973 85.9251C224.758 86.0306 224.547 86.1393 224.333 86.2448C224.228 86.6701 224.119 87.0985 224.013 87.5237C223.694 87.7379 223.374 87.949 223.054 88.1632C222.949 88.5884 222.84 89.0169 222.735 89.4421C222.52 89.5476 222.309 89.6563 222.095 89.7618C221.99 90.1871 221.881 90.6155 221.775 91.0407C221.561 91.1462 221.35 91.255 221.136 91.3605V91.9999C220.711 92.3196 220.282 92.6394 219.857 92.9591V93.5986C218.578 94.772 217.299 95.9443 216.02 97.1156C214.741 98.6087 213.462 100.101 212.184 101.592H211.544C211.439 101.806 211.33 102.017 211.224 102.231H210.585C210.479 102.445 210.371 102.656 210.265 102.871H209.626C209.52 103.085 209.412 103.296 209.306 103.51H208.667C208.561 103.724 208.452 103.935 208.347 104.15H207.707C207.602 104.364 207.493 104.575 207.388 104.789C206.962 104.895 206.534 105.003 206.109 105.109C206.003 105.323 205.895 105.534 205.789 105.748C205.364 105.854 204.935 105.962 204.51 106.068C204.405 106.282 204.296 106.493 204.19 106.707H203.551V107.027H202.911V107.347H202.272V107.667H201.633V107.986H200.993V108.306H200.354V108.626H199.714V108.946H199.075V109.265H198.435V109.585H197.796V109.905C197.371 110.01 196.942 110.119 196.517 110.224V110.544H195.877V110.864H194.918V111.184H194.279V111.503H193.32V111.823H192.68V112.143H191.721V112.463H191.082V112.782C187.459 113.847 183.835 114.913 180.211 115.98H178.292V116.299H176.374V116.619H173.816V116.939H170.299V117.258C168.648 117.719 165.387 117.265 164.224 116.939H159.109V116.619H156.871V116.299H155.272V115.98H154.313V115.66H152.714V115.34H151.755V115.02H150.796V114.701H149.837V114.381H148.877V114.061C148.238 113.956 147.598 113.847 146.959 113.741V113.422C146.533 113.316 146.106 113.207 145.68 113.102V112.782H144.721V112.463C144.081 112.248 143.442 112.037 142.803 111.823V111.503H142.163V111.184H141.524V110.864H140.564V110.544C139.925 110.33 139.286 110.119 138.646 109.905V109.585H138.007V109.265H137.367V108.946H136.728V108.626H136.088V108.306H135.449V107.986H134.809V107.667H134.17V107.347H133.53C133.424 107.133 133.317 106.922 133.211 106.707H132.571C132.465 106.493 132.358 106.282 132.252 106.068H131.612C131.506 105.854 131.399 105.643 131.292 105.428H130.653C130.546 105.214 130.44 105.003 130.333 104.789H129.694L129.054 103.83H128.415C128.308 103.616 128.202 103.405 128.095 103.19H127.456C127.136 102.765 126.816 102.337 126.496 101.911H125.857L124.258 99.9931H123.619L122.02 98.0748C121.807 97.9692 121.594 97.8605 121.381 97.755V97.1156C120.848 96.6903 120.315 96.2619 119.782 95.8367V95.1972C119.462 94.983 119.143 94.772 118.823 94.5577V93.9183C118.503 93.7041 118.184 93.493 117.864 93.2788V92.6394C117.651 92.5339 117.438 92.4252 117.224 92.3196V91.6802C117.011 91.5747 116.798 91.466 116.585 91.3605V90.721H116.265V90.0816H115.945V89.4421C115.732 89.3366 115.519 89.2279 115.306 89.1224C115.199 88.6971 115.093 88.2687 114.986 87.8435C114.773 87.7379 114.56 87.6292 114.347 87.5237C114.134 86.8843 113.92 86.2448 113.707 85.6054H113.388V84.9659H113.068C112.855 84.3264 112.642 83.687 112.428 83.0475H112.109C111.256 80.3842 110.403 77.7198 109.551 75.0543L108.911 67.7006H108.592V65.4625C108.277 64.353 107.831 57.7091 108.272 56.1904H108.592V54.5917H108.911V53.9523C109.302 53.1817 109.938 52.7021 110.19 51.7142H109.871C109.764 51.1802 109.657 50.6495 109.551 50.1155H109.231V49.1564H108.911V48.5169H108.592V47.5577H108.272V46.9183H107.952C107.846 46.493 107.739 46.0646 107.632 45.6394H107.313C106.993 44.2549 106.673 42.8694 106.354 41.4829H106.034V40.8434H105.714V39.8842C104.9 37.9609 104.465 35.8979 104.435 33.8094C103.718 33.8925 103.588 33.8382 103.156 34.1291V34.4489H102.517C102.41 34.6631 102.304 34.8741 102.197 35.0883C101.771 35.1938 101.344 35.3025 100.918 35.4081C100.812 35.6223 100.705 35.8333 100.598 36.0475H99.959C99.6393 36.4727 99.3196 36.9012 98.9998 37.3264H98.3604L97.7209 38.2856H97.0815C96.975 38.4998 96.8682 38.7108 96.7617 38.9251H96.1223C96.0158 39.1393 95.909 39.3503 95.8025 39.5645H95.1631V39.8842H94.5236V40.204H93.8842V40.5237H93.2447V40.8434H92.6053C92.4988 41.0577 92.392 41.2687 92.2855 41.4829C91.8593 41.5884 91.4328 41.6971 91.0066 41.8026C90.9002 42.0168 90.7934 42.2279 90.6869 42.4421C89.4531 43.2574 88.5358 43.6602 86.5304 43.721C86.2283 43.1455 86.0876 43.219 85.891 42.4421H86.2107V41.8026C86.5304 41.5884 86.8502 41.3774 87.1699 41.1632V40.5237C87.4896 40.3095 87.8093 40.0985 88.1291 39.8842V39.5645H88.7685L89.408 38.6053H90.0474L90.6869 37.6462C91.1131 37.5406 91.5396 37.4319 91.9658 37.3264C92.0723 37.1122 92.1791 36.9012 92.2855 36.687H92.925V36.3672C93.2447 36.2617 93.5644 36.153 93.8842 36.0475C93.9906 35.8333 94.0974 35.6223 94.2039 35.4081H94.8434L95.4828 34.4489H96.1223L97.7209 32.5305H98.3604C98.4668 32.3163 98.5736 32.1053 98.6801 31.891H99.3196C99.426 31.6768 99.5328 31.4658 99.6393 31.2516C99.959 31.1461 100.279 31.0374 100.598 30.9319V30.6121H101.238V30.2924H101.877C101.984 30.0782 102.091 29.8672 102.197 29.653H102.837V29.3332H103.476V29.0135H104.115V28.6938H104.755V28.374H105.394C105.501 28.1598 105.608 27.9488 105.714 27.7346H106.354C106.46 27.5204 106.567 27.3093 106.673 27.0951H107.313V26.7754H107.952V26.4557H108.592V26.1359H109.231C109.338 25.9217 109.444 25.7107 109.551 25.4965C109.977 25.391 110.404 25.2823 110.83 25.1768V24.857C111.256 24.7515 111.682 24.6428 112.109 24.5373V24.2176H113.068V23.8978H113.707V23.5781C114.134 23.4726 114.56 23.3639 114.986 23.2584V22.9387H115.945V22.6189H116.585V22.2992H117.544V21.9795H118.184V21.6597H119.143V21.34H120.102V21.0203H121.061V20.7006H122.02C128.52 17.8646 135.824 15.7224 142.803 13.3468H144.401V13.0271H145.68V12.7074H146.639V12.3876H147.918V12.0679H149.517V11.7482H150.796V11.4284C151.542 11.3229 152.288 11.2142 153.034 11.1087V10.789H154.313V10.4693H155.592V10.1495H156.551V9.82981C157.297 9.7243 158.043 9.61559 158.789 9.51008V9.19035C160.174 8.97613 161.56 8.76298 162.945 8.5509V8.23117H164.224V7.91144H165.503V7.59171H166.782V7.27198H168.061V6.95225H169.34V6.63253H170.939C174.814 5.38239 179.728 4.96994 183.728 3.75497H185.646C189.94 2.47606 195.359 2.46647 199.714 1.19715C201.418 1.09164 203.124 0.985063 204.83 0.877422C206.026 0.541707 212.11 -0.299178 213.782 0.237966V0.557694H214.741V0.877422H215.701V1.19715H216.66V1.51688H217.299V1.83661H220.816V2.15633H222.735V2.47606H224.653V2.15633C226.146 2.26184 227.638 2.36842 229.129 2.47606V2.79579H230.408V3.11552H231.048C231.153 3.32974 231.262 3.54076 231.367 3.75497H232.007V4.0747C232.432 4.18021 232.86 4.28892 233.286 4.39443C233.391 4.60865 233.5 4.81967 233.605 5.03389H234.245V5.35361C234.565 5.45912 234.884 5.56783 235.204 5.67334Z" fill="black"/>
<path fill-rule="evenodd" clip-rule="evenodd" d="M108.272 30.6122C108.216 33.4962 108.538 34.7463 109.231 36.687L109.551 38.9251H109.871C109.977 39.3504 110.084 39.7788 110.19 40.204H110.51C110.617 40.8435 110.723 41.483 110.83 42.1224H111.149V43.4013H111.469V44.6802H111.789V45.9592H112.109C113.068 48.485 114.064 51.8613 114.347 52.9932H114.666V53.9524H114.986V54.5918H115.306V55.2313C115.519 55.3368 115.732 55.4455 115.945 55.551C116.052 55.9762 116.159 56.4047 116.265 56.8299C116.478 56.9354 116.691 57.0441 116.905 57.1496V57.7891H117.224C117.331 58.1088 117.437 58.4285 117.544 58.7483C117.757 58.8538 117.97 58.9625 118.184 59.068C118.184 59.2822 120.422 63.5442 120.422 63.5442L123.619 68.3401C123.619 68.3401 127.317 72.9794 128.415 73.7755C128.628 73.881 131.399 76.8673 131.612 76.9728C131.612 77.7177 133.371 77.2669 133.85 79.8503C130.601 82.1396 123.469 74.5045 118.503 66.7415C118.184 66.3162 115.945 63.0102 115.626 62.585H115.306V61.9456C115.093 61.84 114.88 61.7313 114.666 61.6258C114.56 61.2006 114.453 60.7722 114.347 60.3469C114.134 60.2414 113.921 60.1327 113.707 60.0272V59.3877H113.388V58.7483H113.068V58.1088H112.748V57.4694H112.428V56.8299C113.28 56.8299 110.938 56.0849 111.789 59.068V63.2245H112.109V64.8231C112.596 66.409 112.914 68.6662 113.388 70.2585V72.1768H113.707C113.814 73.0305 113.921 73.881 114.027 74.7347H114.347V75.6939H114.666V76.653H114.986V77.6122H115.306V78.5714H115.626V79.2109H115.945V80.1701H116.265C116.478 80.8095 116.691 81.449 116.905 82.0884H117.224V82.7279H117.544C117.651 83.1531 117.757 83.5816 117.864 84.0068C118.077 84.1123 118.29 84.221 118.503 84.3265C118.61 84.7518 118.716 85.1802 118.823 85.6054C119.036 85.7109 119.249 85.8196 119.462 85.9252C119.569 86.3504 119.676 86.7788 119.782 87.2041C119.995 87.3096 120.208 87.4183 120.422 87.5238C120.528 87.949 120.635 88.3775 120.741 88.8027C120.955 88.9082 121.168 89.0169 121.381 89.1224V89.7619C121.594 89.8674 121.807 89.9761 122.02 90.0816V90.7211C122.34 90.9353 122.66 91.1463 122.979 91.3605V92C123.512 92.4252 124.045 92.8537 124.578 93.2789V93.9184L126.816 95.8367C126.923 96.0509 127.029 96.262 127.136 96.4762H127.775C128.202 97.0101 128.628 97.5409 129.054 98.0748H129.694C130.013 98.5001 130.333 98.9285 130.653 99.3537H131.292C131.399 99.568 131.506 99.779 131.612 99.9932C131.932 100.099 132.252 100.207 132.571 100.313V100.633H133.211C133.317 100.847 133.424 101.058 133.53 101.272H134.17C134.276 101.486 134.383 101.697 134.49 101.912H135.129C135.236 102.126 135.342 102.337 135.449 102.551H136.088C136.195 102.765 136.302 102.976 136.408 103.19C137.047 103.405 137.687 103.616 138.326 103.83V104.15H138.966V104.469H139.605V104.789C140.245 105.003 140.884 105.214 141.524 105.429V105.748H142.483V106.068C143.122 106.282 143.762 106.493 144.401 106.707V107.027H145.041V107.347H146V107.667H146.639V107.986C147.065 108.092 147.492 108.201 147.918 108.306V108.626C148.451 108.731 148.984 108.84 149.517 108.946V109.265H150.476V109.585H151.435V109.905H152.394V110.224H153.673V110.544H154.952V110.864H156.231V111.184H157.51V111.503C159.748 111.609 161.986 111.715 164.224 111.823V112.143H169.66V111.823H172.857V111.503H175.415V111.184H177.333V110.864H179.252V110.544H180.53V110.224H181.809V109.905H183.088V109.585H184.047V109.265H185.326V108.946H185.966V108.626C186.925 108.412 187.884 108.201 188.843 107.986V107.667H189.483V107.347H190.442V107.027C190.976 106.922 191.507 106.813 192.041 106.707V106.388H192.68V106.068H193.639V105.748H194.279V105.429C194.704 105.323 195.132 105.214 195.558 105.109V104.789H196.197V104.469H196.837V104.15H197.476V103.83H198.116V103.51H198.755V103.19H199.394V102.871H200.034V102.551H200.673V102.231H201.313V101.912H201.952C202.058 101.697 202.166 101.486 202.272 101.272C202.697 101.167 203.126 101.058 203.551 100.952C203.656 100.738 203.765 100.527 203.871 100.313C204.296 100.207 204.724 100.099 205.15 99.9932V99.6735C205.469 99.568 205.789 99.4592 206.109 99.3537C206.214 99.1395 206.323 98.9285 206.428 98.7143H207.068C207.173 98.5001 207.282 98.289 207.388 98.0748H208.027C208.561 97.4354 209.092 96.7959 209.626 96.1565C210.799 95.0918 211.971 94.026 213.143 92.9592V92.3197C214.316 91.255 215.488 90.1893 216.66 89.1224V88.483C216.874 88.3775 217.085 88.2688 217.299 88.1633C217.405 87.738 217.513 87.3096 217.619 86.8843H217.939C218.044 86.5646 218.153 86.2449 218.258 85.9252C218.473 85.8196 218.684 85.7109 218.898 85.6054V84.966C219.112 84.8605 219.323 84.7518 219.537 84.6462V84.0068C219.752 83.9013 219.963 83.7926 220.177 83.6871V83.0476C220.391 82.9421 220.602 82.8334 220.816 82.7279C221.03 82.0884 221.241 81.449 221.456 80.8095H221.775C221.881 80.4898 221.99 80.1701 222.095 79.8503C222.309 79.7448 222.52 79.6361 222.735 79.5306V78.8911C222.949 78.7856 223.16 78.6769 223.374 78.5714V77.932H223.694V77.2925H224.013V76.653H224.333V76.0136H224.653V75.3741H224.973V74.7347H225.292V74.0952H225.612C225.826 73.4558 226.037 72.8163 226.252 72.1768H226.571V71.2177H226.891V70.2585H227.211V69.619H227.53V68.6598H227.85V68.0204H228.17C228.809 65.3571 229.449 62.6926 230.088 60.0272C230.194 58.2143 230.3 56.4025 230.408 54.5918C231.434 50.883 230.741 42.5157 229.769 39.5646V38.2857H229.449C229.343 37.5407 229.235 36.7925 229.129 36.0476H228.809V35.0884H228.49V34.1292H228.17V33.17H227.85V32.5306H227.53V31.5714C227.316 31.4659 227.105 31.3572 226.891 31.2517V30.6122H226.571V29.9727H226.252V29.3333H225.932V28.6938H225.612C225.507 28.2686 225.398 27.8402 225.292 27.4149C225.078 27.3094 224.867 27.2007 224.653 27.0952V26.136H224.333V25.1768H224.013V24.2176H223.694V23.2585H223.374V22.2993H223.054V21.6598H222.735V20.7006H222.415V20.0612H222.095V19.4217C221.67 19.102 221.241 18.7823 220.816 18.4625V17.8231H220.496V17.1836H220.177V16.5442H219.857V15.9047H219.537V15.2653H219.218V14.6258H218.898V13.9863H218.578C218.364 13.3469 218.153 12.7074 217.939 12.068H217.619V11.1088H217.299V10.4693H216.979C216.874 9.93539 216.765 9.40464 216.66 8.8707H216.34C215.915 7.6973 215.488 6.52496 215.061 5.35369C214.422 5.24818 213.782 5.13947 213.143 5.03396V4.71423H208.027V5.03396H204.51C201.805 5.8173 198.173 5.86206 195.558 6.6326H193.32C190.516 7.46709 186.807 7.71328 184.047 8.55097H182.129C179.686 9.29913 176.521 9.72437 174.136 10.4693H172.537V10.7891H170.939C169.434 11.2783 167.329 11.9017 165.823 12.3877H164.224C159.162 14.1174 153.343 15.131 148.238 16.8639C145.68 17.3978 143.122 17.9307 140.564 18.4625C134.352 20.7134 127.611 22.6062 121.701 25.1768C120.741 25.391 119.782 25.6021 118.823 25.8163V26.136H118.184V26.4557H117.224V26.7755C116.691 26.881 116.159 26.9897 115.626 27.0952V27.4149H114.986V27.7347H114.027V28.0544H113.388V28.3741H112.748C111.351 29.1159 110.011 30.2062 108.272 30.6122Z" fill="white"/>
</svg>
