<svg width="139" height="142" viewBox="0 0 139 142" fill="none" xmlns="http://www.w3.org/2000/svg">
<path fill-rule="evenodd" clip-rule="evenodd" d="M123.007 0.0133412C127.697 -0.0765024 131.617 0.310688 134.517 1.93171H135.156C135.262 2.14497 135.371 2.35791 135.476 2.57117H136.116C136.861 3.42377 137.607 4.27638 138.354 5.12899V8.32627C137.82 9.0723 137.287 9.81834 136.755 10.5644H136.116C136.01 10.7776 135.901 10.9906 135.796 11.2038C135.041 11.6668 131.55 12.2772 130.041 11.8433V11.5236H128.122V11.2038H127.163V10.8841H125.565V10.5644H123.007C120.554 9.8421 117.495 9.35579 115.014 8.646H109.258V8.96573H107.66V9.28545H106.381V9.60518H105.102V9.92491L102.864 10.2446V10.5644H102.224V10.8841C100.763 11.6425 99.382 11.858 97.1087 11.8433C96.8082 11.2678 96.6675 11.34 96.4693 10.5644H96.789V9.60518C97.0032 9.49871 97.2142 9.39192 97.4285 9.28545V8.646C97.6427 8.53953 97.8537 8.43274 98.0679 8.32627L99.0271 7.04736L100.306 6.72763C100.412 6.51437 100.52 6.30143 100.626 6.08817L102.544 5.44872V5.12899H103.184V4.80926H103.823V4.48953H104.462V4.16981L106.381 3.53035V3.21062C107.446 2.99736 108.513 2.78442 109.578 2.57117V2.25144H110.537V1.93171H111.496V1.61198H112.775C114.416 1.07452 116.868 0.812661 118.531 0.333069C119.931 -0.0701078 122.083 0.834403 123.007 0.0133412ZM1.51005 19.5168C1.15835 17.928 0.309793 18.0307 0.23114 15.9997C0.891059 15.4501 0.989855 14.8017 1.51005 14.0814H1.82978L2.78896 12.8025H3.42842L4.3876 11.5236H5.02706L5.66652 10.5644H6.30597C6.41255 10.3512 6.51912 10.1381 6.6257 9.92491L8.54407 9.28545C8.65065 9.0723 8.75722 8.85915 8.8638 8.646H9.50325C9.60983 8.43285 9.71641 8.21969 9.82298 8.00654L11.1019 7.68681C11.2085 7.47366 11.315 7.26051 11.4216 7.04736H12.0611V6.72763H12.7005V6.4079H13.6597V6.08817H14.6189V5.76845H15.2584V5.44872H16.5373V5.12899H17.8162V4.80926H18.7754V4.48953L22.6121 4.16981C25.6428 3.30047 32.3459 2.49315 36.0407 3.53035H40.5169V3.85008H42.4352V4.16981H43.3944V4.48953H44.6733V4.80926L47.5509 5.44872V5.76845H48.1903V6.08817H49.1495V6.4079L51.0679 7.04736V7.36709H51.7074V7.68681C53.1848 8.48326 54.7409 8.77389 55.2244 10.5644H55.5441V13.1222L54.5849 13.7616C54.2127 14.1165 52.9764 14.6604 52.0271 14.4011V14.0814H50.7482V13.7616H48.8298V13.4419L38.9182 13.7616V14.0814H36.9999V14.4011H34.7618V14.7208H32.8434C30.4908 15.4281 27.488 15.9233 25.1699 16.6392L21.9726 16.9589V17.2787H21.0135V17.5984H19.7346V17.9181H18.7754V18.2378H17.1767V18.5576H15.5781V18.8773H14.2992V19.197H12.7005V19.5168H11.4216V19.8365H9.82298C8.91112 20.115 4.65426 21.0428 3.10869 20.4759V20.1562H2.46924V19.8365L1.51005 19.5168ZM93.5917 12.8025C93.3519 13.9269 92.7413 14.5312 92.3128 15.3603V15.9997H91.9931V16.9589H91.6734V17.5984H91.3536V18.5576H91.0339V19.197H90.7142C90.5 20.1562 90.2889 21.1154 90.0747 22.0746H89.755V23.0338H89.4353V23.9929H89.1155V24.9521H88.7958V25.9113H88.4761V26.8705H88.1563C88.0508 27.6164 87.9421 28.3627 87.8366 29.1086H87.5169C87.4114 30.1742 87.3027 31.2402 87.1972 32.3059C86.5513 34.442 86.19 38.4805 86.8774 40.9385C86.9829 42.6437 87.0895 44.349 87.1972 46.0542H87.5169L88.4761 48.9317C88.6903 49.0382 88.9013 49.145 89.1155 49.2515V49.8909C89.3298 49.9974 89.5408 50.1042 89.755 50.2106V50.8501C89.9692 50.9566 90.1802 51.0634 90.3944 51.1698V51.8093C90.8197 52.129 91.2481 52.4487 91.6734 52.7685V53.4079L93.5917 55.0066V55.646C94.7651 56.7118 95.9375 57.7775 97.1087 58.8433V59.4828C97.8537 60.1222 98.5997 60.7617 99.3468 61.4011C101.009 63.0658 102.508 64.8859 103.823 66.8365C104.037 66.942 104.248 67.0507 104.462 67.1562V67.7957C104.677 67.9012 104.888 68.0099 105.102 68.1154C105.847 69.6075 106.593 71.0995 107.34 72.5916V74.8297H107.66V76.1086H107.34V78.027H107.02V78.9862H106.701V79.9454H106.381V80.5848H106.061V81.2243C105.847 81.3298 105.636 81.4385 105.422 81.544C105.316 81.9692 105.207 82.3977 105.102 82.8229C104.888 82.9284 104.677 83.0371 104.462 83.1426V83.7821C104.143 83.9963 103.823 84.2073 103.503 84.4215V85.061C103.184 85.2752 102.864 85.4862 102.544 85.7005V86.3399C102.33 86.4454 102.119 86.5541 101.905 86.6596V87.2991H101.585C101.255 87.6565 101.034 88.0999 100.945 88.578C102.998 88.6995 104.069 89.6715 105.102 90.8161C105.316 90.9216 105.527 91.0303 105.741 91.1358V93.0542C105.377 93.4187 105.614 93.0542 105.422 93.6937C105.102 93.7992 104.782 93.9079 104.462 94.0134C103.081 95.2347 100.683 93.0798 99.6666 92.7345H98.0679C98.0072 92.7217 97.9624 92.2229 97.4285 92.4147V92.7345C95.7723 94.1445 95.5101 97.0508 93.5917 98.1699C93.0354 98.7454 92.1881 98.8061 91.0339 98.8093C90.4712 97.8277 89.9053 97.4696 89.755 95.9318H90.0747V94.9726C90.2889 94.8671 90.5 94.7584 90.7142 94.6528C90.8197 94.2276 90.9284 93.7992 91.0339 93.3739C91.2481 93.2684 91.4591 93.1597 91.6734 93.0542C91.8876 92.4147 92.0986 91.7753 92.3128 91.1358C92.527 91.0303 92.7381 90.9216 92.9523 90.8161C93.0578 90.4964 93.1665 90.1767 93.272 89.8569C93.9115 89.323 94.5509 88.7922 95.1904 88.2583V87.6188C95.5101 87.4046 95.8298 87.1936 96.1496 86.9794C96.2551 86.6596 96.3638 86.3399 96.4693 86.0202C96.6835 85.9147 96.8945 85.806 97.1087 85.7005V85.061C97.4285 84.8468 97.7482 84.6358 98.0679 84.4215V83.7821C98.2821 83.6766 98.4932 83.5679 98.7074 83.4624V82.8229C99.0271 82.6087 99.3468 82.3977 99.6666 82.1834V81.544C99.9863 81.3298 100.306 81.1188 100.626 80.9045V80.2651H100.945C101.16 79.6256 101.371 78.9862 101.585 78.3467H101.905V77.3875H102.224V75.7889C102.247 75.693 102.634 75.6962 102.544 75.1494H102.224V73.5508H101.905C101.799 73.1255 101.69 72.6971 101.585 72.2719H101.265V71.6324C101.051 71.5269 100.84 71.4182 100.626 71.3127V70.6732C100.412 70.5677 100.201 70.459 99.9863 70.3535V69.7141C99.5611 69.3943 99.1326 69.0746 98.7074 68.7549V68.1154C97.323 66.8365 95.9375 65.5576 94.5509 64.2787V63.959C94.3367 63.8525 94.1257 63.7457 93.9115 63.6392V62.9998C92.7381 61.934 91.5657 60.8682 90.3944 59.8025V59.163L88.4761 57.5644V56.9249C88.0508 56.6052 87.6224 56.2855 87.1972 55.9657V55.3263L86.238 54.6868V54.0474C86.0238 53.9409 85.8127 53.8341 85.5985 53.7276C85.493 53.3015 85.3843 52.8749 85.2788 52.4487C85.0646 52.3423 84.8536 52.2355 84.6393 52.129C83.8944 50.4238 83.1483 48.7186 82.4012 47.0134C82.2957 44.4555 82.1892 41.8977 82.0815 39.3399C82.0815 34.3269 82.6219 31.3147 83.9999 27.8297C84.1054 27.1902 84.2141 26.5508 84.3196 25.9113H84.6393C84.8536 25.2719 85.0646 24.6324 85.2788 23.9929H85.5985V23.3535H85.9183V22.714H86.238V21.7548C86.4522 21.6484 86.6632 21.5416 86.8774 21.4351V20.7957H87.1972V20.1562H87.5169V19.5168H87.8366V18.8773C88.0508 18.7708 88.2619 18.664 88.4761 18.5576V17.9181C88.6903 17.8116 88.9013 17.7049 89.1155 17.5984C89.221 17.2787 89.3298 16.9589 89.4353 16.6392C89.9692 16.213 90.5 15.7865 91.0339 15.3603V14.7208L91.9931 14.0814C92.0986 13.7616 92.2073 13.4419 92.3128 13.1222L93.5917 12.8025ZM110.857 25.5916L115.973 25.9113C116.826 26.4442 117.679 26.9771 118.531 27.51V28.1494L119.49 28.7889V29.4283H119.809C120.024 30.0678 120.235 30.7072 120.449 31.3467H120.769V32.3059H121.088V32.9453H121.408V34.544H121.728V37.7413C121.833 39.3399 121.94 40.9385 122.048 42.5372H121.728V44.4555C121.705 48.2283 122.351 54.1475 121.408 57.2447V58.8433C120.833 60.3368 119.573 61.3186 118.531 62.3603C118.105 62.8933 117.677 63.426 117.252 63.959L115.973 64.2787V64.5984H115.014V64.9181H112.456V64.5984H110.857V64.2787L109.578 63.959C109.473 63.7457 109.364 63.5328 109.258 63.3195H108.619C108.194 62.7865 107.765 62.2538 107.34 61.7209H106.701C106.595 61.5076 106.486 61.2947 106.381 61.0814H106.061V60.4419H105.741V59.8025H105.422V58.5236H105.102V54.0474C104.52 51.9113 104.782 48.4023 104.782 45.7345C104.782 38.3324 105.086 33.8649 107.66 29.1086C107.765 28.6824 107.874 28.2559 107.979 27.8297H108.299C108.724 27.2967 109.153 26.764 109.578 26.231C110.115 25.8618 110.301 26.2211 110.857 25.5916ZM25.8094 27.51C30.5116 27.478 33.8144 29.6141 35.4012 32.6256V33.5848H35.721V34.544H36.0407V35.8229H36.3604V37.1018H36.6801V38.3807H36.9999V41.2583H37.3196V44.4555H37.6393V50.2106H37.959C38.5598 52.3797 37.6809 55.1252 37.6393 56.9249C37.5878 59.1525 37.8759 61.5795 36.9999 62.9998C35.5429 65.3622 32.6241 66.3121 29.6461 67.1562C27.9685 67.6326 24.7185 66.4336 23.891 65.8773L22.9318 64.5984L21.0135 62.9998V62.3603L20.374 62.0406V61.4011H20.0543C19.9477 60.5485 19.8411 59.6959 19.7346 58.8433C18.5631 54.8947 19.0951 48.7527 19.0951 43.8161C19.0951 39.3901 19.0794 35.0667 20.374 31.9861V31.027L21.3332 30.3875V29.7481L21.9726 29.4283V29.1086H22.6121C22.7187 28.8954 22.8253 28.6823 22.9318 28.4691H23.891V28.1494H24.5305V27.8297H25.8094V27.51ZM77.2856 88.578C79.9553 89.518 81.1991 89.9816 81.1223 93.6937C80.5298 94.0395 79.9912 94.4704 79.5237 94.9726H74.7278V94.6528H74.0883V94.3331C73.7686 94.2276 73.4489 94.1189 73.1291 94.0134V94.3331C72.1987 94.6241 71.9909 94.8543 70.891 94.9726C70.4466 94.1573 70.0661 93.9814 69.9319 92.7345C70.4658 92.095 70.9966 91.4556 71.5305 90.8161H72.17V90.4964H72.8094V90.1767H73.4489V89.8569H74.0883V89.5372L77.2856 88.578ZM33.4829 113.517C33.9768 116.014 33.291 116.832 32.8434 118.952C35.9341 118.847 39.0248 118.74 42.1155 118.632C43.7634 119.086 46.6572 118.441 48.5101 118.952V119.272H52.0271V118.952H55.5441V118.632H57.1427V118.313H59.7006V117.993H70.2516V118.313C73.1291 118.418 76.0067 118.525 78.8842 118.632C79.6292 118.84 84.4955 119.441 85.5985 118.952C85.704 118.738 85.8127 118.527 85.9183 118.313H86.5577V117.993C87.9421 117.887 89.3276 117.781 90.7142 117.673C93.2208 116.941 96.1751 116.509 98.7074 115.755C99.9863 115.649 101.265 115.543 102.544 115.435V115.115C103.503 114.901 104.462 114.69 105.422 114.476V114.156H106.061V113.837H107.02V113.517H107.979V113.197H108.619V112.877H109.258V112.558H109.898V112.238H110.537V111.918H111.177V111.598C111.496 111.493 111.816 111.384 112.136 111.279C112.046 109.661 111.867 109.248 112.136 107.762C113.127 107.237 112.711 107.154 114.374 107.122C114.799 107.656 115.228 108.187 115.653 108.721H115.973V109.36C116.187 109.466 116.398 109.575 116.612 109.68V110.32C116.932 110.534 117.252 110.745 117.571 110.959C117.677 111.384 117.786 111.813 117.891 112.238H118.211V115.115C117.851 115.392 117.528 115.714 117.252 116.075C116.424 116.474 115.103 115.806 114.694 115.755V116.075C113.735 116.423 113.031 116.561 112.136 117.034V117.354H111.496V117.673H110.857V117.993H109.898V118.313H109.258V118.632C108.619 118.738 107.979 118.847 107.34 118.952V119.272H106.381V119.592H105.422V119.911H104.462V120.231C103.398 120.337 102.33 120.445 101.265 120.551V120.871H99.0271V121.19H97.4285V121.51H95.8298V121.83H94.5509V122.149H93.272V122.469C91.7789 122.575 90.2868 122.681 88.7958 122.789V123.109C88.1563 123.323 87.5169 123.534 86.8774 123.748V124.068H85.5985V124.388C84.5882 124.701 83.2869 124.164 82.721 124.068H77.9251V123.748H75.687V123.428H73.7686V123.109H67.6938V122.789H62.5781V123.109H58.4216V123.428H56.5033V123.748H50.4284C47.2229 123.748 43.6918 123.844 41.1563 123.109C39.6643 123.214 38.1722 123.321 36.6801 123.428C34.5486 123.323 32.4171 123.216 30.2856 123.109C29.9658 123.534 29.6461 123.962 29.3264 124.388C28.5296 124.902 27.1123 125.008 25.8094 125.027C25.2607 124.081 24.6903 123.93 24.5305 122.469H24.8502V121.83H25.1699V121.19C25.4897 121.085 25.8094 120.976 26.1291 120.871L29.3264 117.034V116.394H29.6461V115.435H29.9658V114.796C30.1791 114.69 30.392 114.581 30.6053 114.476C31.1987 113.645 30.2619 113.897 31.5645 113.517V113.197H32.8434C33.2076 113.562 32.8434 113.325 33.4829 113.517ZM101.265 132.061C102.605 132.269 103.513 132.707 103.823 133.979H104.143C104.741 135.095 103.497 136.221 103.184 136.537C103.078 136.751 102.969 136.962 102.864 137.177H102.224V137.496H101.585V137.816H100.626V138.136H99.6666V138.456H98.7074V138.775C97.9624 138.881 97.2142 138.99 96.4693 139.095V139.415H95.1904V139.734H94.2312V140.054H92.9523V140.374H91.6734V140.694H90.0747V141.013H86.8774C84.1566 141.758 76.1602 142.19 73.1291 141.333H69.2924V141.013H68.0135V140.694H66.7346V140.374H65.7754V140.054H64.8162L60.0203 137.177C59.9138 136.751 59.807 136.323 59.7006 135.898H59.3808C59.4873 135.364 59.5941 134.833 59.7006 134.299C60.441 134.021 61.1096 133.973 62.2584 133.979C62.933 134.98 63.9402 134.785 65.1359 135.258V135.578H66.0951V135.898H67.374V136.217H68.9727V136.537H75.0475C77.6789 136.975 81.2502 136.911 83.6802 136.217C85.704 136.112 87.729 136.005 89.755 135.898V135.578H90.7142V135.258C91.5678 135.153 92.4183 135.044 93.272 134.939V134.619H94.2312V134.299H95.1904V133.979H96.1496V133.66H97.4285V133.34C98.0679 133.234 98.7074 133.126 99.3468 133.02V132.7H99.9863V132.381H101.265V132.061Z" fill="black"/>
</svg>
