<svg width="26" height="27" viewBox="0 0 26 27" fill="none" xmlns="http://www.w3.org/2000/svg">
<rect x="12.7351" y="0.941162" width="8" height="8" rx="2" transform="rotate(45 12.7351 0.941162)" fill="black"/>
<path d="M18.7526 9.70893C19.3384 9.12314 20.2881 9.12314 20.8739 9.70893L23.7023 12.5374C24.2881 13.1231 24.2881 14.0729 23.7023 14.6587L20.8739 17.4871C20.2881 18.0729 19.3384 18.0729 18.7526 17.4871L15.9241 14.6587C15.3384 14.0729 15.3384 13.1231 15.9241 12.5374L18.7526 9.70893Z" fill="white" stroke="black"/>
<rect x="12.7351" y="15.6483" width="7" height="7" rx="1.5" transform="rotate(45 12.7351 15.6483)" fill="white" stroke="black"/>
<path d="M4.5962 9.70893C5.18199 9.12314 6.13173 9.12314 6.71752 9.70893L9.54595 12.5374C10.1317 13.1231 10.1317 14.0729 9.54595 14.6587L6.71752 17.4871C6.13173 18.0729 5.18199 18.0729 4.5962 17.4871L1.76777 14.6587C1.18199 14.0729 1.18199 13.1231 1.76777 12.5374L4.5962 9.70893Z" fill="white" stroke="black"/>
</svg>
