<svg width="263" height="330" viewBox="0 0 263 330" fill="none" xmlns="http://www.w3.org/2000/svg">
<path fill-rule="evenodd" clip-rule="evenodd" d="M66.0202 265.265C65.9137 264.945 65.8071 264.626 65.7005 264.306C64.8481 264.2 63.9951 264.092 63.1427 263.986V263.666C61.4414 263.129 59.4338 263.957 58.027 263.347V263.027C57.6008 262.921 57.1743 262.813 56.7481 262.707V262.388H55.7889V262.068C55.1495 261.854 54.51 261.643 53.8706 261.428V261.109H53.2311V260.789H52.5916V260.469C51.9522 260.255 51.3127 260.044 50.6733 259.83C50.5668 259.615 50.46 259.404 50.3536 259.19H49.7141C49.6076 258.976 49.5008 258.765 49.3944 258.551C49.0746 258.445 48.7549 258.337 48.4352 258.231L47.7957 257.272H47.1563C47.0498 257.058 46.943 256.847 46.8365 256.632H46.1971C45.7709 256.098 45.3444 255.568 44.9182 255.034H44.2787C43.959 254.609 43.6393 254.18 43.3195 253.755H42.6801L40.1223 250.877H39.4828C39.1631 250.452 38.8433 250.024 38.5236 249.598H37.8842C37.5644 249.173 37.2447 248.745 36.925 248.319H36.2855L30.8501 242.564V241.605H30.5304V240.966H30.2107V239.687H29.891V238.408H29.5712V237.129H29.2515V235.53H28.9318V233.932C26.7934 227.163 26.3404 218.502 24.4556 211.551V209.952H24.7753V207.714H25.095V206.755H25.4148C25.5213 205.476 25.6279 204.197 25.7345 202.918L24.4556 201.959V201.319L21.578 198.762V198.122L20.6188 197.483C20.5123 197.163 20.4057 196.843 20.2991 196.524L19.6597 196.204V195.564H19.3399C19.2334 195.245 19.1268 194.925 19.0202 194.605L18.3807 194.285V193.646L17.4216 193.007V192.367L16.7821 192.047C16.6755 191.621 16.569 191.195 16.4624 190.768L15.8229 190.449C15.7163 190.129 15.6098 189.809 15.5032 189.49H15.1835V188.85H14.8637V188.211H14.544V187.571H14.2243V186.932H13.9046V186.292H13.5848V185.653H13.2651V185.013H12.9454V184.374H12.6256V183.734H12.3059V183.095H11.9862C11.8796 182.669 11.773 182.242 11.6665 181.816H11.3467V181.177H11.027C10.9204 180.537 10.8139 179.898 10.7073 179.258H10.3875V178.619H10.0678C9.85467 177.66 9.64152 176.7 9.42836 175.741H9.10864V175.102H8.78891C8.68233 174.462 8.57576 173.823 8.46918 173.183H8.14945V172.224H7.82972V171.265H7.51C7.40342 170.519 7.29684 169.773 7.19027 169.027H6.87054C6.65739 167.855 6.44424 166.682 6.23108 165.51H5.91136C5.80478 164.764 5.6982 164.018 5.59163 163.272H5.2719V161.993H4.95217V160.714H4.63244V159.435H4.31272V157.836H3.99299C3.88641 156.877 3.77983 155.918 3.67326 154.959H3.35353V153.041C2.80999 151.215 2.61816 148.506 2.07462 146.646V143.129H1.75489V137.054H1.43516V131.619C1.31271 131.184 1.19057 131.745 1.11543 131.299V127.782H0.795707V122.986H0.475978V116.911C0.475978 116.911 0.122359 116.947 0.15625 116.272H0.475978L0.15625 115.632L0.475978 114.993H0.15625V112.115H0.475978L0.15625 111.156H0.475978V105.721H0.795707V102.204H1.11543C1.22201 100.925 1.32859 99.6459 1.43516 98.367C1.28905 97.3385 0.252169 94.7103 0.795707 93.2514H1.11543L1.43516 91.9725L2.07462 91.6527V91.0133L2.71407 90.6936L3.0338 89.4146L3.67326 89.0949V88.4555L4.31272 88.1357V87.4963H4.63244V86.8568L5.2719 86.5371L5.59163 85.2582L6.23108 84.9384V84.299L6.87054 83.9793C6.97712 83.553 7.08369 83.1267 7.19027 82.7003L7.82972 82.3806C7.9363 81.9543 8.04288 81.528 8.14945 81.1017L8.78891 80.782V80.1425L9.42836 79.8228V79.1833L10.0678 78.8636C10.1744 78.4373 10.281 78.011 10.3875 77.5847L11.027 77.265C11.2402 76.6255 11.4533 75.9861 11.6665 75.3466L12.3059 75.0269C12.5191 74.3874 12.7322 73.748 12.9454 73.1085L13.5848 72.7888C13.6914 72.3625 13.798 71.9362 13.9046 71.5099H14.2243C14.3309 71.1901 14.4374 70.8704 14.544 70.5507L15.1835 70.231V69.5915L15.8229 69.2718V68.6323L16.7821 67.9929V67.3534L17.7413 66.7139V66.0745L18.3807 65.7548C18.4873 65.435 18.5939 65.1153 18.7005 64.7956H19.0202V64.1561L19.6597 63.8364V63.1969L20.2991 62.8772V62.2378L20.9386 61.918V61.2786L21.578 60.9588V60.3194L22.5372 59.6799V59.0405L23.1767 58.7207V58.0813L24.4556 57.1221V56.4826L25.4148 55.8432V55.2037L27.0134 53.9248V53.2854L28.2923 52.3262V51.6867L29.5712 50.7275V50.0881L30.8501 49.1289V48.4894L32.4488 47.2105V46.5711L34.3671 44.9724V44.333L36.2855 42.7343V42.0949L37.2447 41.4554V40.816L38.5236 39.8568V39.2173L39.1631 38.8976V38.2581L39.8025 37.9384V37.299H40.1223V36.6595H40.442V36.02L42.0406 33.782L44.9182 32.8228V32.503H45.5576V32.1833L47.1563 31.8636V31.5439L49.0746 30.9044V30.5847H49.7141V30.2649H50.3536V29.9452H51.3127V29.6255L52.5916 29.3058V28.986H53.2311V28.6663H54.1903V28.3466L56.1087 27.7071V27.3874H56.7481V27.0677L58.027 26.7479V26.4282H58.9862V26.1085L60.2651 25.7887V25.469H61.2243V25.1493L62.5032 24.8296V24.5098H63.4624V24.1901H64.4216V23.8704H65.061V23.5507L66.9794 23.2309V22.9112L68.8978 22.5915V22.2717H69.5372V21.952L72.4148 21.3126V20.9928H73.0542V20.6731L75.9318 20.0336V19.7139L78.8093 19.0745V18.7547H79.4488V18.435H80.408V18.1153L82.3264 17.7955V17.4758H82.9658V17.1561L84.8842 16.8364V16.5166L86.8026 16.1969V15.8772H87.7617V15.5574H88.7209V15.2377H89.6801V14.918H90.6393V14.5983H91.5985V14.2785L94.476 13.6391V13.3194H95.1155V12.9996L97.993 12.3602V12.0404H98.6325V11.7207H99.5917V11.401H100.231V11.0813H101.19V10.7615H102.149V10.4418H103.109V10.1221H104.068V9.80235L105.986 9.48262V9.16289L107.905 8.84316V8.52343H108.544V8.2037H109.503V7.88398L112.381 7.24452V6.92479H113.66V6.60506H114.619V6.28534H115.898V5.96561L119.095 5.32615V5.00642L121.013 4.6867V4.36697H121.973V4.04724H122.932V3.72751H123.891V3.40778H124.85V3.08806H126.129V2.76833H127.088V2.4486H127.728V2.12887H128.687V1.80914H129.326V1.48941C130.613 0.812551 134.491 -0.514641 137 0.210503V0.530231H139.558V0.849959H140.837V1.16969H142.116V1.48941L145.313 2.12887V2.4486H146.272V2.76833H147.231V3.08806H148.19V3.40778H149.15V3.72751H149.789V4.04724H150.748V4.36697L152.667 5.00642V5.32615H153.306V5.64588H153.945V5.96561H154.585V6.28534L155.864 6.60506V6.92479H156.503V7.24452H157.143C157.249 7.45767 157.356 7.67082 157.462 7.88398H158.102C158.208 8.09713 158.315 8.31028 158.422 8.52343H159.061L159.701 9.48262H160.34C160.447 9.69577 160.553 9.90892 160.66 10.1221H161.299L161.939 11.0813H162.578V11.401L165.136 11.0813C167.633 10.9741 170.83 11.337 172.809 10.7615C174.251 10.3436 178.216 10.7957 179.204 11.0813H184.639V11.401H189.435C189.873 11.292 189.304 11.1155 189.755 11.0813V11.401C190.167 11.2439 190.596 11.1366 191.034 11.0813C194.317 10.9482 198.65 10.7168 200.626 12.0404C200.84 12.3602 201.051 12.6799 201.265 12.9996C202.01 13.6391 202.756 14.2785 203.503 14.918V15.5574H203.823L204.782 16.8364C205.956 17.9021 207.128 18.9679 208.299 20.0336V20.6731C208.833 21.0993 209.364 21.5258 209.898 21.952V22.5915C210.323 22.9112 210.752 23.2309 211.177 23.5507V24.1901L213.095 25.7887V26.4282C213.629 26.8544 214.16 27.2809 214.694 27.7071V28.3466C215.439 28.986 216.185 29.6255 216.932 30.2649V30.9044L218.85 32.503V33.1425C219.704 33.8885 220.557 34.6346 221.408 35.3806V36.02C222.581 37.0858 223.754 38.1516 224.925 39.2173C226.201 40.5052 227.163 42.093 228.442 43.3738C229.507 44.333 230.573 45.2922 231.639 46.2513V46.8908C232.065 47.2105 232.493 47.5303 232.918 47.85V48.4894C233.452 48.9156 233.983 49.3422 234.517 49.7684V50.4078C234.942 50.7275 235.371 51.0473 235.796 51.367V52.0065C236.33 52.4327 236.861 52.8592 237.394 53.2854V53.9248C238.139 54.5643 238.885 55.2037 239.633 55.8432V56.4826C241.765 58.5076 243.897 60.5325 246.027 62.5575V63.1969C246.241 63.3034 246.452 63.4102 246.667 63.5167C246.772 63.8364 246.881 64.1561 246.986 64.4758H247.306C247.52 65.1153 247.731 65.7548 247.945 66.3942C248.479 66.8204 249.01 67.2469 249.544 67.6731V68.3126L251.462 69.9112C251.568 70.231 251.677 70.5507 251.782 70.8704L252.741 71.5099V72.1493L253.701 72.7888V73.4282C253.915 73.5347 254.126 73.6415 254.34 73.748V74.3874L255.299 75.0269V75.6663H255.619C255.724 75.9861 255.833 76.3058 255.939 76.6255C256.153 76.732 256.364 76.8388 256.578 76.9452V77.5847L257.537 78.2242V78.8636C257.752 78.9701 257.963 79.0769 258.177 79.1833V79.8228C258.391 79.9293 258.602 80.0361 258.816 80.1425C258.922 80.5687 259.03 80.9952 259.136 81.4214C259.35 81.5279 259.561 81.6347 259.775 81.7412V82.3806C259.99 82.4871 260.201 82.5939 260.415 82.7003C260.52 83.1265 260.629 83.5531 260.735 83.9793C260.949 84.0857 261.16 84.1925 261.374 84.299V84.9384H261.694C262.57 87.0487 262.333 91.2521 262.333 94.2106C262.333 99.4416 262.567 104.873 261.374 108.918V111.476H261.054V114.034H260.735C260.629 115.952 260.523 117.87 260.415 119.789C259.398 123.28 259.513 127.846 258.497 131.299V135.136H258.177V137.374H257.857V139.932H257.537C257.323 142.703 257.11 145.474 256.898 148.245C256.322 150.145 255.904 152.749 255.299 154.639V156.238H254.979V157.197H254.66V158.156H254.34V159.435H254.02V160.075H253.701V161.034H253.381V161.673H253.061C252.956 162.313 252.847 162.952 252.741 163.592H252.422V164.231H252.102C251.996 164.87 251.888 165.51 251.782 166.149H251.462V167.109H251.143V168.068H250.823V169.027H250.503V169.986H250.184V170.945H249.864C249.65 172.011 249.436 173.077 249.224 174.143H248.905C248.799 174.889 248.69 175.635 248.585 176.381H248.265V177.34H247.945V178.619C247.731 178.725 247.52 178.832 247.306 178.938C246.618 179.684 246.075 180.551 245.707 181.496C245.602 185.013 245.495 188.53 245.388 192.047H245.068V197.483C244.269 200.287 244.428 204.15 244.428 207.714V224.66C244.323 228.496 244.216 232.333 244.109 236.17H243.789V239.367H243.469V243.524H243.15V247.041H242.83V250.238H242.51V252.476C242.002 254.19 241.733 256.552 241.231 258.231V260.789H240.911V262.388H240.592V263.666H240.272C240.167 264.626 240.058 265.585 239.952 266.544H239.633V267.823H239.313V268.782H238.993V270.061H238.673V271.02H238.354V271.979H238.034V272.939H237.714V273.898H237.394V274.537H237.075V275.496H236.755C236.649 275.922 236.541 276.35 236.435 276.775H236.116V277.734H235.796V278.694H235.476C235.262 279.333 235.051 279.973 234.837 280.612H234.517V281.251C234.303 281.357 234.092 281.466 233.877 281.571V282.211H233.558C233.452 282.636 233.344 283.064 233.238 283.49H232.918C232.813 284.024 232.704 284.554 232.599 285.088C232.384 285.194 232.173 285.302 231.959 285.408V286.047H231.639V286.687H231.32V287.966H231V288.925H230.68C230.575 289.35 230.466 289.779 230.36 290.204H230.041V290.843H229.721V291.803C229.507 291.908 229.296 292.017 229.082 292.122V292.762C228.656 293.081 228.228 293.401 227.803 293.721V294.36C227.163 294.894 226.524 295.425 225.884 295.959V296.598C224.925 297.452 223.966 298.305 223.007 299.156V299.796C222.367 300.33 221.728 300.86 221.088 301.394C219.49 303.099 217.891 304.804 216.292 306.51H215.653C214.908 307.364 214.162 308.216 213.415 309.068H212.775C212.136 309.813 211.496 310.559 210.857 311.306H210.218C209.898 311.731 209.578 312.16 209.258 312.585H208.619C208.405 312.905 208.194 313.224 207.979 313.544H207.34C207.235 313.758 207.126 313.969 207.02 314.183C206.701 314.289 206.381 314.398 206.061 314.503V314.823H205.422C205.316 315.037 205.207 315.248 205.102 315.462H204.462C204.357 315.677 204.248 315.888 204.143 316.102H203.503C203.398 316.316 203.289 316.527 203.184 316.741H202.544C202.439 316.956 202.33 317.167 202.224 317.381H201.585C201.479 317.595 201.371 317.806 201.265 318.02C200.945 318.126 200.626 318.234 200.306 318.34V318.66C199.881 318.765 199.452 318.874 199.027 318.979C198.922 319.194 198.813 319.405 198.707 319.619C198.068 319.833 197.428 320.044 196.789 320.258C196.683 320.473 196.575 320.684 196.469 320.898C195.83 321.112 195.19 321.323 194.551 321.537V321.857H193.911V322.177C193.272 322.391 192.633 322.602 191.993 322.816V323.136H191.034V323.456H190.394V323.775H189.435V324.095C188.796 324.309 188.156 324.52 187.517 324.734V325.054H186.877V325.374H186.238V325.694H185.599V326.013C185.173 326.119 184.745 326.228 184.32 326.333V326.653H183.36V326.973H182.721V327.292C180.803 327.826 178.884 328.359 176.966 328.891H173.449C172.24 329.23 169.583 330.141 167.694 329.53V329.211H166.735V328.891H160.34V328.571H158.741V328.251H157.462V327.932C156.503 327.826 155.544 327.718 154.585 327.612V327.292C152.986 327.078 151.388 326.865 149.789 326.653V326.333H148.51V326.013H147.551V325.694H145.952V325.374H144.354V325.054H143.075V324.734H142.116V324.415H140.837V324.095H139.877V323.775H138.918V323.456H137.959V323.136H137V322.816C136.36 322.711 135.721 322.602 135.081 322.496V322.177H133.803V321.857H132.524V321.537H131.564V321.217H130.286V320.898H129.646V320.578H128.687V320.258H128.047V319.939H127.088V319.619C126.662 319.513 126.236 319.405 125.809 319.299V318.979H124.85V318.66H124.211V318.34H123.252V318.02H122.612V317.7H121.973V317.381H121.333V317.061H120.374V316.741C119.948 316.636 119.521 316.527 119.095 316.422V316.102H118.456V315.782H117.496V315.462H116.857V315.143H116.218C116.111 314.928 116.004 314.717 115.898 314.503H115.258V314.183H114.619V313.864H113.979V313.544H113.34V313.224H112.701C112.594 313.01 112.487 312.799 112.381 312.585H111.741V312.265H111.102V311.945H110.462V311.626H109.823V311.306C109.397 311.2 108.97 311.092 108.544 310.986C108.438 310.772 108.331 310.561 108.224 310.347H107.585V310.027C107.159 309.922 106.732 309.813 106.306 309.707C106.199 309.493 106.093 309.282 105.986 309.068H105.347C105.24 308.854 105.134 308.643 105.027 308.428C104.601 308.323 104.174 308.214 103.748 308.109C103.642 307.894 103.535 307.683 103.428 307.469H102.789V307.149C102.469 307.044 102.149 306.935 101.83 306.83C101.723 306.616 101.617 306.404 101.51 306.19H100.871C100.764 305.976 100.657 305.765 100.551 305.551H99.9114L99.2719 304.592H98.6325L97.993 303.632H97.3536L96.7141 302.673H96.0747C95.9682 302.459 95.8614 302.248 95.7549 302.034H95.1155C95.009 301.82 94.9022 301.609 94.7958 301.394C94.3696 301.289 93.943 301.18 93.5168 301.075C93.4104 300.86 93.3036 300.649 93.1971 300.435C92.5577 300.221 91.9182 300.01 91.2787 299.796V299.476H90.6393C90.5328 299.262 90.426 299.051 90.3196 298.837C89.6801 298.622 89.0406 298.411 88.4012 298.197C88.2947 297.983 88.1879 297.772 88.0815 297.558H87.442C87.0158 297.024 86.5893 296.493 86.1631 295.959C85.9498 295.853 85.7369 295.745 85.5236 295.639V295C84.9907 294.575 84.458 294.146 83.925 293.721V293.081C83.6053 292.867 83.2855 292.656 82.9658 292.442V291.803C82.7526 291.697 82.5396 291.588 82.3264 291.483V290.843C82.0066 290.629 81.6869 290.418 81.3672 290.204V289.564C81.1539 289.459 80.941 289.35 80.7277 289.245V288.605C80.408 288.391 80.0883 288.18 79.7685 287.966V287.326C79.5553 287.221 79.3423 287.112 79.1291 287.007C79.0225 286.687 78.9159 286.367 78.8093 286.047H78.4896V285.408C78.2764 285.302 78.0634 285.194 77.8502 285.088C77.7437 284.663 77.6369 284.235 77.5304 283.809C77.3172 283.704 77.1042 283.595 76.891 283.49C76.7845 283.064 76.6777 282.636 76.5713 282.211H76.2515C76.145 281.891 76.0384 281.571 75.9318 281.251C75.7185 281.146 75.5056 281.037 75.2923 280.932V280.292C75.0791 280.187 74.8661 280.078 74.6529 279.973C74.5464 279.547 74.4396 279.119 74.3332 278.694C74.1199 278.588 73.907 278.479 73.6937 278.374C73.5872 277.949 73.4804 277.52 73.374 277.095C73.1607 276.99 72.9478 276.881 72.7345 276.775C72.6279 276.456 72.5214 276.136 72.4148 275.816H72.0951C71.8819 275.177 71.6688 274.537 71.4556 273.898C71.2423 273.792 71.0294 273.684 70.8161 273.578V272.939H70.4964V272.299H70.1767V271.66H69.857C69.6438 271.02 69.4307 270.381 69.2175 269.741H68.8978V268.782H68.578V268.143H68.2583V267.503H67.9386C67.3103 266.397 67.4357 265.646 66.0202 265.265Z" fill="black"/>
<path fill-rule="evenodd" clip-rule="evenodd" d="M59.3059 228.816C59.4274 230.622 60.3412 232.525 60.9046 233.932V234.891H61.2243V235.85H61.544V236.809H61.8638V237.768H62.1835V238.728H62.5032V239.367H62.8229V240.326H63.1427V240.966H63.4624V241.605C63.6757 241.711 63.8886 241.819 64.1019 241.925C64.2083 242.35 64.3151 242.779 64.4216 243.204H64.7413C64.9545 243.843 65.1676 244.483 65.3808 245.122H65.7005C65.9137 246.081 66.1268 247.04 66.34 248H66.6597C66.7661 248.853 66.8729 249.704 66.9794 250.557H67.2991V251.517H67.6189C67.832 252.69 68.0452 253.862 68.2583 255.034H68.578L68.8978 257.272H69.2175C69.5372 258.656 69.857 260.042 70.1767 261.428H70.4964C70.6029 261.853 70.7097 262.282 70.8161 262.707H71.1359C71.2423 263.132 71.3491 263.561 71.4556 263.986C71.6689 264.092 71.8818 264.2 72.0951 264.306V264.945H72.4148V265.585H72.7345V266.224H73.0542V266.864H73.374V267.503H73.6937C73.8002 267.928 73.907 268.357 74.0134 268.782C74.2267 268.887 74.4396 268.996 74.6529 269.102C74.866 269.741 75.0792 270.381 75.2923 271.02C75.5056 271.126 75.7185 271.234 75.9318 271.34V271.979H76.2515V272.619C76.4648 272.724 76.6777 272.833 76.891 272.938V273.578C77.1042 273.683 77.3172 273.792 77.5304 273.898V274.537C77.7437 274.643 77.9566 274.751 78.1699 274.857V275.496H78.4896C78.5962 275.816 78.7028 276.136 78.8093 276.455C79.0226 276.561 79.2355 276.67 79.4488 276.775V277.415C79.6621 277.52 79.875 277.629 80.0883 277.734C80.1948 278.054 80.3014 278.374 80.408 278.694H80.7277C80.8342 279.119 80.941 279.547 81.0474 279.972C81.2607 280.078 81.4736 280.187 81.6869 280.292V280.932C82.0066 281.146 82.3264 281.357 82.6461 281.571C82.7527 281.891 82.8592 282.211 82.9658 282.53C83.1791 282.636 83.392 282.744 83.6053 282.85C83.8184 283.489 84.0316 284.129 84.2447 284.768C84.458 284.874 84.6709 284.983 84.8842 285.088V285.408C85.0974 285.513 85.3104 285.622 85.5236 285.728V286.367L86.8025 287.326V287.966C87.0158 288.071 87.2287 288.18 87.442 288.285V288.925L88.7209 289.884C89.4669 290.738 90.213 291.59 90.959 292.442H91.5985C92.0247 292.976 92.4512 293.507 92.8774 294.04H93.5168L94.1563 295H94.7957L95.4352 295.959H96.0747L96.7141 296.918H97.3536V297.238C97.6733 297.343 97.993 297.452 98.3128 297.557C98.4192 297.772 98.526 297.983 98.6325 298.197H99.2719L99.9114 299.156H100.551L101.19 300.115H101.83L102.469 301.075H103.109C103.215 301.289 103.322 301.5 103.428 301.714H104.068C104.174 301.928 104.281 302.139 104.388 302.353C104.707 302.459 105.027 302.568 105.347 302.673V302.993C105.773 303.098 106.199 303.207 106.626 303.313V303.632C106.945 303.738 107.265 303.847 107.585 303.952C107.691 304.166 107.798 304.377 107.905 304.592C108.331 304.697 108.757 304.806 109.184 304.911C109.29 305.125 109.397 305.336 109.503 305.551C110.143 305.765 110.782 305.976 111.422 306.19C111.528 306.404 111.635 306.615 111.741 306.83H112.381V307.149H113.02V307.469H113.66V307.789H114.299V308.109H114.939V308.428C115.365 308.534 115.791 308.642 116.218 308.748C116.324 308.962 116.431 309.173 116.537 309.387C116.963 309.493 117.39 309.602 117.816 309.707V310.027H118.456V310.347C119.095 310.561 119.735 310.772 120.374 310.986V311.306H121.333V311.626H121.973V311.945C122.612 312.159 123.252 312.37 123.891 312.585V312.904H124.85V313.224C125.276 313.33 125.703 313.438 126.129 313.544V313.864C126.769 313.969 127.408 314.078 128.047 314.183V314.503C128.474 314.609 128.9 314.717 129.326 314.823V315.143H130.286V315.462H130.925V315.782C131.564 315.888 132.204 315.996 132.843 316.102V316.421C134.122 316.636 135.401 316.849 136.68 317.061V317.381H137.639V317.7H138.598V318.02H139.558V318.34H140.197V318.66C141.05 318.765 141.903 318.874 142.755 318.979V319.299H143.714V319.619H144.993V319.938H146.272V320.258H147.871V320.578H149.15V320.898H150.428V321.217H151.707V321.537C153.306 321.751 154.905 321.964 156.503 322.177V322.496C157.462 322.602 158.422 322.711 159.381 322.816V323.136H160.66V323.455H166.415V323.775H170.252V323.455C172.704 323.35 175.155 323.243 177.605 323.136C180.163 322.071 182.721 321.005 185.279 319.938V319.619C185.704 319.513 186.132 319.405 186.558 319.299V318.979H187.517V318.66C187.942 318.554 188.371 318.445 188.796 318.34V318.02H189.755V317.7C190.394 317.486 191.034 317.275 191.673 317.061V316.741H192.313V316.421C192.952 316.207 193.592 315.996 194.231 315.782C194.337 315.568 194.445 315.357 194.551 315.143C194.976 315.037 195.405 314.928 195.83 314.823C195.935 314.609 196.044 314.398 196.15 314.183C196.575 314.078 197.003 313.969 197.428 313.864V313.544C197.748 313.438 198.068 313.33 198.388 313.224C198.493 313.01 198.602 312.799 198.707 312.585H199.347C199.452 312.37 199.561 312.159 199.667 311.945H200.306C200.412 311.731 200.52 311.52 200.626 311.306H201.265C201.371 311.092 201.479 310.881 201.585 310.666H202.224C202.33 310.452 202.439 310.241 202.544 310.027H203.184C203.289 309.813 203.398 309.602 203.503 309.387H204.143V309.068C204.462 308.962 204.782 308.854 205.102 308.748C205.207 308.534 205.316 308.323 205.422 308.109H206.061C206.486 307.575 206.915 307.044 207.34 306.51H207.979C208.513 305.87 209.044 305.231 209.578 304.592H210.218C210.963 303.738 211.709 302.885 212.456 302.034H213.095C213.52 301.5 213.949 300.969 214.374 300.435C215.439 299.476 216.504 298.517 217.571 297.557V296.918C218.53 296.064 219.49 295.212 220.449 294.36V293.721C221.303 292.976 222.155 292.23 223.007 291.483V290.843C223.432 290.523 223.86 290.204 224.286 289.884V289.245C224.5 289.139 224.711 289.03 224.925 288.925C225.031 288.605 225.139 288.285 225.245 287.966H225.565C225.779 287.326 225.99 286.687 226.204 286.047C226.418 285.942 226.629 285.833 226.843 285.728V285.088H227.163V284.449H227.483V283.809H227.803V283.17C228.017 283.064 228.228 282.956 228.442 282.85C228.656 282.211 228.867 281.571 229.082 280.932C229.296 280.826 229.507 280.717 229.721 280.612V279.972H230.041V279.333H230.36V278.374H230.68V277.734H231C231.105 277.095 231.214 276.455 231.32 275.816H231.639V275.177H231.959V274.217H232.279V273.578H232.599V272.619H232.918V271.66H233.238V270.7H233.558V269.741H233.877V268.462C234.801 265.745 235.297 262.327 236.116 259.51C236.221 257.806 236.328 256.1 236.435 254.394H236.755V252.476H237.075V250.238H237.394V247.36H237.714V243.843H238.034V240.006H238.354C238.568 237.129 238.781 234.251 238.993 231.374V225.619C239.543 223.675 239.313 220.417 239.313 217.945V203.238C239.316 201.085 239.476 198.851 239.952 197.163V191.728H240.272V187.571H240.592V184.374H240.911V166.469H241.231C241.126 166.256 241.017 166.043 240.911 165.83C240.95 165.379 241.126 165.95 241.231 165.51C241.126 163.591 241.019 161.673 240.911 159.755V155.598H240.592C240.486 148.458 240.38 141.317 240.272 134.176L239.313 133.857V133.537C238.779 133.431 238.248 133.324 237.714 133.217V132.898H237.075V132.578H236.435V132.258H235.476V131.938H234.837V131.619H234.197C234.092 131.405 233.983 131.192 233.877 130.979L232.599 130.659C232.493 130.446 232.384 130.233 232.279 130.02L231 129.7C230.786 129.381 230.575 129.061 230.36 128.741L229.401 128.421V128.102H228.762L227.803 126.823C226.738 125.864 225.672 124.904 224.605 123.945V123.306C224.071 122.88 223.541 122.453 223.007 122.027V121.387C222.792 121.281 222.581 121.174 222.367 121.068V120.428L221.408 119.789V119.149C221.194 119.043 220.983 118.936 220.769 118.83C220.663 118.51 220.554 118.19 220.449 117.87H220.129V117.231C219.915 117.124 219.704 117.018 219.49 116.911C219.384 116.591 219.275 116.272 219.17 115.952H218.85C218.745 115.526 218.636 115.099 218.53 114.673C218.316 114.567 218.105 114.46 217.891 114.353C217.786 113.927 217.677 113.501 217.571 113.074C217.357 112.968 217.146 112.861 216.932 112.755C216.826 112.329 216.718 111.902 216.612 111.476H216.292C216.078 110.836 215.867 110.197 215.653 109.557H215.333V108.598H215.013V107.959H214.694V107H214.374V106.36H214.054C213.949 105.721 213.84 105.081 213.735 104.442H213.415V103.483H213.095V102.523H212.775V101.564H212.456V100.285H212.136V99.3261H211.816V98.0472H211.496V96.7683H211.177V95.4894H210.857V94.2105H210.537C210.432 93.1448 210.323 92.0789 210.218 91.0132H209.898C209.792 89.7343 209.686 88.4554 209.578 87.1765H209.258V85.2581H208.939V83.6595H208.619V82.0608H208.299L207.34 77.5846L202.224 77.9043V78.2241H199.347V78.5438H196.469V78.8635L190.714 79.503V79.8227H189.116V80.1424H187.197V80.4622H184.639V80.7819H183.041V80.4622H181.762V80.1424H180.803V79.8227H179.524V79.503H178.245V79.1833L174.408 78.8635V78.5438H171.85V78.2241H169.292V77.9043H167.054V77.5846H163.537V77.2649H136.68V77.5846H131.564V77.9043L124.211 78.2241C123.611 79.2651 122.622 79.4605 121.653 80.1424L121.013 81.1016H120.374C120.267 81.3148 120.161 81.5279 120.054 81.7411H119.415C119.308 81.9542 119.202 82.1674 119.095 82.3805H118.775L117.816 85.5778H117.496V86.2173H117.177C117.07 86.8567 116.964 87.4962 116.857 88.1356H116.537V88.7751H116.218C116.111 89.4146 116.004 90.054 115.898 90.6935H115.578C115.365 91.6527 115.152 92.6118 114.939 93.571H114.619V94.2105H114.299V95.4894H113.979V96.4486H113.66V97.088H113.34C113.233 97.7275 113.127 98.3669 113.02 99.0064H112.701V99.6459H112.381V100.605H112.061C111.954 101.138 111.848 101.671 111.741 102.204H111.422V102.843H111.102V103.802H110.782C110.676 104.229 110.569 104.655 110.462 105.081H110.143V105.721H109.823V106.68H109.503V107.319H109.184V107.959H108.864V108.598H108.544C108.331 109.238 108.118 109.877 107.905 110.517H107.585V111.476H107.265C107.159 111.902 107.052 112.328 106.945 112.755H106.626C106.519 113.181 106.413 113.607 106.306 114.034L105.667 114.353C105.453 114.993 105.24 115.632 105.027 116.272H104.707C104.601 116.591 104.494 116.911 104.388 117.231L103.748 117.551V118.19L103.109 118.51V119.149H102.789C102.682 119.469 102.576 119.789 102.469 120.108L101.83 120.428V121.068L100.871 121.707V122.347L99.9114 122.986V123.625L98.9522 124.265V124.904L97.3536 126.183V126.823L94.1563 129.7L89.9998 134.176H89.3604L87.7617 136.095H87.1223L84.8842 138.653H84.2447L83.2855 139.932H82.6461C82.5395 140.145 82.4329 140.358 82.3264 140.571H82.0066C81.9001 140.784 81.7935 140.997 81.6869 141.21H81.0474L80.408 142.17H79.7685C79.662 142.383 79.5554 142.596 79.4488 142.809H78.8093L78.1699 143.768L76.891 144.088C76.7844 144.301 76.6778 144.514 76.5712 144.728L75.2923 145.047C75.1858 145.26 75.0792 145.474 74.9726 145.687L73.6937 146.006C73.5871 146.22 73.4805 146.433 73.374 146.646L72.0951 146.966C71.9885 147.179 71.8819 147.392 71.7753 147.605H71.1359V147.925H70.4964V148.245H69.857V148.564H69.2175V148.884H68.578V149.204H68.2583V149.523H67.9386V153.36H67.6189V154.959C67.1546 156.441 67.0318 158.764 66.34 160.074H66.0202V160.714H65.7005C65.4873 161.353 65.2742 161.993 65.061 162.632H64.7413V163.911H64.4216V164.87H64.1019C63.9953 165.616 63.8887 166.362 63.7821 167.108H63.4624C63.2492 168.387 63.0361 169.666 62.8229 170.945H62.5032V171.904H62.1835V172.864H61.8638V173.823H61.544V174.782H61.2243C61.4375 177.446 61.6506 180.111 61.8638 182.775H62.1835V185.333H62.5032V189.17H62.8229V192.687H63.1427V194.925H63.4624V196.843H63.7821C64.315 200.786 64.8479 204.73 65.3808 208.673C66.0989 210.998 66.5382 214.089 67.2991 216.347V217.625H67.6189V218.585H67.9386V220.183H68.2583V221.782H68.578V222.741C69.3636 224.861 69.6674 225.555 69.2175 228.177C68.6896 228.467 67.8046 229.273 67.2991 229.455H65.7005C63.0426 229.494 61.6348 228.899 59.3059 228.816ZM57.7073 238.728H57.0678C56.9613 239.047 56.8547 239.367 56.7481 239.687H56.4284V240.326C56.2151 240.432 56.0022 240.54 55.7889 240.646V241.285C55.5757 241.391 55.3627 241.5 55.1495 241.605C54.9363 242.245 54.7232 242.884 54.51 243.523H54.1903C53.8117 244.476 53.916 246.145 54.1903 247.04H54.51C54.6772 247.75 54.0624 248.805 53.8706 249.279C53.0875 249.627 52.8394 249.857 51.6325 249.918C51.0199 249.186 50.6733 249.512 50.3536 248.319C49.866 247.853 49.2984 245.109 49.7141 243.843H50.0338C50.3536 242.967 50.2289 242.011 50.6733 241.285C50.8865 241.18 51.0995 241.071 51.3127 240.966V240.326H51.6325C51.7389 239.901 51.8457 239.473 51.9522 239.047C52.1654 238.942 52.3784 238.833 52.5916 238.728V238.088C52.9114 237.874 53.2311 237.663 53.5508 237.449C54.0643 236.726 54.1583 236.064 54.8297 235.53V231.694H54.51V230.734H54.1903V230.095H53.8706V229.455C53.5508 229.241 53.2311 229.03 52.9114 228.816C52.6982 228.177 52.4851 227.537 52.2719 226.898C52.0587 226.792 51.8457 226.683 51.6325 226.578V225.938C51.4192 225.833 51.2063 225.724 50.993 225.619V224.979H50.6733C50.5667 224.66 50.4601 224.34 50.3536 224.02C50.1403 223.915 49.9274 223.806 49.7141 223.7V223.061C49.1811 222.636 48.6484 222.207 48.1155 221.782C47.2202 220.884 46.6617 219.589 45.2379 219.224V219.544H44.9182V220.183H44.5984V224.02H44.9182V225.299H45.2379V225.938H45.5576V226.898H45.8774V227.537H46.1971V228.177C46.4103 228.282 46.6233 228.391 46.8365 228.496C46.943 228.921 47.0498 229.35 47.1563 229.775C47.3695 229.881 47.5825 229.989 47.7957 230.095V230.734C48.009 230.84 48.2219 230.949 48.4352 231.054V231.694C48.6484 231.799 48.8614 231.908 49.0746 232.013V232.653C49.3944 232.867 49.7141 233.078 50.0338 233.292V233.932H50.3536V236.17C49.5379 236.614 49.3624 236.995 48.1155 237.129V236.809H47.1563C46.8365 236.384 46.5168 235.956 46.1971 235.53H45.8774V234.891C45.6641 234.785 45.4512 234.677 45.2379 234.571C45.1314 234.146 45.0246 233.717 44.9182 233.292C44.7049 233.187 44.492 233.078 44.2787 232.972C44.0656 232.333 43.8524 231.694 43.6393 231.054C43.426 230.949 43.2131 230.84 42.9998 230.734V230.095H42.6801C42.5736 229.67 42.4668 229.241 42.3604 228.816H42.0406C41.934 228.177 41.8275 227.537 41.7209 226.898H41.4012V225.938H41.0814V220.183H41.4012C41.5077 219.544 41.6143 218.904 41.7209 218.265H42.0406C42.493 217.686 42.7699 217.507 42.9998 216.666C42.2538 216.132 41.5077 215.599 40.7617 215.068C39.6961 214.962 38.6301 214.853 37.5644 214.748V214.428H36.2855V214.748C35.6461 214.853 35.0066 214.962 34.3672 215.068C34.1534 214.562 34.0446 214.018 34.0474 213.469C34.4116 213.105 34.1753 213.469 34.3672 212.83H35.0066C35.1131 212.615 35.2199 212.404 35.3263 212.19H38.2039C41.1102 212.19 41.8235 212.503 43.6393 213.469H44.2787V213.789H44.9182C45.0246 214.003 45.1314 214.214 45.2379 214.428H45.8774L47.476 216.347H48.1155L48.7549 217.306H49.3944V217.625C50.1297 218.239 50.5838 218.927 51.6325 219.224C51.3255 217.392 50.5348 215.71 50.0338 214.108L49.7141 210.911H49.3944V210.272H49.0746C48.4672 209.508 47.7826 209.102 47.476 208.034C46.996 207.951 46.5511 207.729 46.1971 207.394V207.074H45.5576C45.4512 206.86 45.3444 206.649 45.2379 206.435C44.8117 206.33 44.3852 206.221 43.959 206.115C43.8525 205.901 43.7457 205.69 43.6393 205.476H42.9998L42.3604 204.517H41.7209C41.6144 204.302 41.5076 204.09 41.4012 203.877L40.442 203.557V203.238H39.4828V202.918H38.8433V202.598L37.5644 202.279V201.959H36.6052C35.3171 201.438 34.1788 200.872 32.4488 200.68C31.9692 201.211 32.412 200.616 31.8093 201V201.319H31.1699C31.0633 201.533 30.9567 201.746 30.8501 201.959L29.891 202.598C29.6778 203.238 29.4647 203.877 29.2515 204.517H28.9318V206.755H28.612C28.5395 207.132 29.0996 207.305 28.9318 208.034H28.612V211.231H28.9318V212.19H29.2515V213.469H29.5712V214.748H29.891V216.027H30.2107V217.625H30.5304V219.224H30.8501V220.823H31.1699V222.421H31.4896C31.5962 223.806 31.7028 225.191 31.8093 226.578H32.1291V227.857H32.4488V229.136H32.7685L33.0882 232.333H33.408L33.7277 235.53H34.0474V237.129H34.3672V238.408H34.6869V239.687H35.0066V240.646C35.6461 241.18 36.2855 241.711 36.925 242.245C37.5644 242.99 38.2039 243.736 38.8433 244.483H39.4828L40.1223 245.442H40.7617C41.0814 245.867 41.4012 246.296 41.7209 246.721H42.3604L42.9998 247.68H43.6393C44.3853 248.534 45.1313 249.386 45.8774 250.238H46.5168C46.6233 250.452 46.7301 250.663 46.8365 250.877C47.1563 250.983 47.476 251.091 47.7957 251.197C48.2219 251.731 48.6484 252.262 49.0746 252.796H49.7141C49.8206 253.01 49.9274 253.221 50.0338 253.435C50.3536 253.541 50.6733 253.649 50.993 253.755V254.074H51.6325C51.9522 254.5 52.2719 254.928 52.5916 255.353C53.2311 255.568 53.8706 255.779 54.51 255.993V256.313H55.1495V256.632C55.7889 256.847 56.4284 257.058 57.0678 257.272V257.591H58.027V257.911H58.6665V258.231C60.2606 259.018 62.0051 259.454 63.7821 259.51C64.052 259.149 63.7415 259.462 64.1019 259.19C63.2517 256.936 62.6055 254.138 61.8638 251.836C61.7573 250.983 61.6505 250.132 61.544 249.279H61.2243V248.639H60.9046V248C60.6913 247.894 60.4784 247.785 60.2651 247.68C60.1586 247.146 60.0519 246.615 59.9454 246.081H59.6257V245.442H59.3059C58.7731 243.204 58.2402 240.966 57.7073 238.728Z" fill="white"/>
<path fill-rule="evenodd" clip-rule="evenodd" d="M58.3468 224.66C60.3478 225.059 62.3813 225.273 64.4216 225.299C64.2071 222.367 63.2856 219.109 62.5032 216.666V215.068H62.1835V213.469H61.8638V211.87H61.5441V209.952C60.4052 206.163 60.4135 201.287 59.306 197.483V195.245H58.9862C58.8797 193.646 58.7731 192.047 58.6665 190.449V187.251H58.3468C57.9861 185.983 58.3813 184.354 58.027 183.415C57.6629 183.779 57.8992 183.415 57.7073 184.054C56.9227 184.783 57.1638 185.193 56.7481 186.292H56.4284V187.891H56.1087V189.809H55.7889V190.768H55.4692V191.408H55.1495V192.367H54.8298C54.7232 192.793 54.6166 193.22 54.51 193.646H54.1903V194.605H53.8706V195.245H53.5508V196.204H53.2311C52.6288 197.425 52.7736 198.374 51.3128 198.762V199.081H50.0338C49.9273 198.762 49.8207 198.442 49.7141 198.122C49.3806 197.768 49.1335 196.071 49.3944 195.245L52.2719 186.612H52.5917V185.653H52.9114C53.018 185.226 53.1245 184.8 53.2311 184.374H53.5508C53.6574 183.841 53.764 183.308 53.8706 182.775H54.1903V182.136H54.51V181.177H54.8298V180.537H55.1495C55.2561 179.898 55.3626 179.258 55.4692 178.619H55.7889V177.66H56.1087V176.7H56.4284V175.741H56.7481V174.782H57.0679C57.1744 173.929 57.281 173.077 57.3876 172.224C58.1604 169.919 58.8241 167.083 59.6257 164.87V163.592C61.0939 159.545 63.2594 156.558 63.4624 151.122H63.1427V151.442L60.9046 151.762V152.081H59.9454V152.401H58.9862V152.721L56.1087 153.36L55.4692 154.319H54.8298L54.1903 155.279L53.2311 155.598C53.1245 155.811 53.018 156.025 52.9114 156.238H52.2719C52.1654 156.451 52.0588 156.664 51.9522 156.877L50.993 157.197V157.517H50.3536C50.247 157.73 50.1404 157.943 50.0338 158.156H49.3944C49.2878 158.369 49.1812 158.582 49.0747 158.796L48.1155 159.115V159.435L39.4828 162.632C32.4443 164.795 24.2791 158.787 22.857 154.319C22.9635 153.254 23.0701 152.188 23.1767 151.122C23.578 150.933 24.0125 150.824 24.4556 150.802C25.6459 153.059 27.4994 154.213 29.5712 155.598C29.6778 155.811 29.7844 156.025 29.891 156.238L31.8093 156.877V157.197C32.445 157.534 35.32 158.718 36.2855 158.476V158.156H38.8434V157.836H40.1223V157.517H41.0815V157.197H42.0406V156.877H42.9998V156.558L44.9182 156.238V155.918C45.7333 155.506 46.591 155.184 47.476 154.959C47.5826 154.639 47.6892 154.319 47.7957 154H41.7209V153.68L38.5236 153.36V153.04H37.5644V152.721H36.6053V152.401H35.6461V152.081H34.6869V151.762H33.7277V151.442H33.0883V151.122H32.1291V150.802H31.4896V150.483L29.891 150.163V149.843L27.9726 149.204V148.884L26.0542 148.245C25.9477 148.031 25.8411 147.818 25.7345 147.605H25.0951V147.285H24.4556L23.1767 145.687L22.2175 145.047V144.408H21.8978C21.6846 143.768 21.4715 143.129 21.2583 142.489H20.9386V141.211H20.6189V139.612H20.2991V136.734H19.9794C19.8058 136.061 20.427 132.762 20.6189 132.258C21.2615 132.442 20.8954 132.22 21.2583 132.578C22.0771 133.332 21.4978 133.4 21.8978 134.496H22.2175V135.455H22.5372C22.6438 136.095 22.7504 136.734 22.857 137.374H23.1767C23.2833 137.907 23.3898 138.44 23.4964 138.972H23.8161C23.9227 139.399 24.0293 139.825 24.1359 140.251H24.4556V140.891L25.0951 141.211L26.374 142.809H27.0134V143.129L28.9318 143.768V144.088L30.8502 144.408V144.728L32.1291 145.047V145.367H33.0883V145.687H33.7277V146.006H34.6869V146.326H35.3264V146.646H36.2855V146.966H37.2447V147.285H38.2039V147.605H39.1631V147.925H40.442V148.245H42.0406V148.564H43.959V148.884C46.0238 149.468 51.2373 148.643 52.5917 148.245H54.51V147.925H56.1087V147.605H57.3876V147.285L59.6257 146.966V146.646H60.5849V146.326H61.5441V146.006L63.4624 145.687V145.367L64.7413 145.047V144.728H65.7005V144.408L67.6189 143.768V143.449L68.8978 143.129C69.0044 142.916 69.111 142.703 69.2175 142.489L71.1359 141.85C71.2425 141.637 71.349 141.424 71.4556 141.211L73.374 140.571C73.4806 140.358 73.5871 140.145 73.6937 139.932H74.3332C74.4397 139.719 74.5463 139.505 74.6529 139.292H75.2924C75.3989 139.079 75.5055 138.866 75.6121 138.653H76.2515C76.3581 138.44 76.4647 138.226 76.5713 138.013H77.2107L77.8502 137.054H78.4896C78.5962 136.841 78.7028 136.628 78.8094 136.415L79.7686 136.095L80.7277 134.816H81.3672L83.2856 132.578H83.925L85.5237 130.66H86.1631L89.9999 126.503L93.8366 122.986V122.347L95.1155 121.387V120.748L96.3944 119.789C96.501 119.469 96.6076 119.149 96.7141 118.83L97.3536 118.51V117.87L97.9931 117.551C98.0996 117.231 98.2062 116.911 98.3128 116.592H98.6325V115.952L99.272 115.632V114.993L99.9114 114.673V114.034L100.551 113.714C100.657 113.394 100.764 113.075 100.871 112.755H101.19C101.403 112.115 101.617 111.476 101.83 110.836H102.15V110.197H102.469V109.557H102.789C103.002 108.918 103.215 108.279 103.428 107.639H103.748V106.68H104.068V106.04H104.388C104.601 105.401 104.814 104.762 105.027 104.122H105.347V103.163H105.667V102.523H105.986V101.884H106.306V101.245H106.626V100.285H106.945V99.6459H107.265C107.372 99.113 107.478 98.5802 107.585 98.0473H107.905V97.0881H108.224V96.4486H108.544V95.4895H108.864V94.5303H109.184V93.5711H109.503V92.6119H109.823V91.6527H110.143V91.0133H110.462V90.0541H110.782V89.0949H111.102V88.1357H111.422V87.1765H111.741V86.5371H112.061V85.5779H112.381V84.9384H112.701C112.807 84.4055 112.914 83.8727 113.02 83.3398H113.34V82.3806H113.66V81.7411H113.979C114.086 81.1017 114.193 80.4622 114.299 79.8228H114.619C114.725 79.2899 114.832 78.757 114.939 78.2241H115.258V77.5847H115.578V76.6255H115.898V75.986H116.218V75.3466L116.857 75.0269V74.3874H117.177C117.39 73.7479 117.603 73.1085 117.816 72.469H118.136V71.5098H118.456C118.562 71.0835 118.669 70.6572 118.775 70.2309H119.095L120.054 67.0337H120.374V66.3942H120.694V65.435H121.013V64.7956H121.333V64.1561L121.973 63.8364C122.186 63.1969 122.399 62.5575 122.612 61.918L123.252 61.5983C123.465 60.9588 123.678 60.3194 123.891 59.6799H124.211C124.317 59.3602 124.424 59.0405 124.53 58.7207L125.17 58.401C125.277 57.9747 125.383 57.5484 125.49 57.1221L126.129 56.8024V56.1629H126.449C126.555 55.8432 126.662 55.5234 126.769 55.2037L127.408 54.884V54.2445L128.367 53.6051V52.9656L130.286 51.367C130.392 51.1538 130.499 50.9407 130.605 50.7275H131.245L131.884 49.7683H132.524C132.63 49.5552 132.737 49.342 132.843 49.1289H133.483C133.589 48.9157 133.696 48.7026 133.803 48.4894H134.442C134.549 48.2763 134.655 48.0631 134.762 47.85H135.401C135.508 47.6368 135.614 47.4237 135.721 47.2105H136.36C136.467 46.9974 136.574 46.7842 136.68 46.5711L137.959 46.2513V45.9316H138.599V45.6119L140.517 44.9724V44.6527L142.435 44.333V44.0132H143.394V43.6935H144.354V43.3738H145.313V43.0541H146.272V42.7343H147.551V42.4146H149.469V42.0949C150.866 41.6994 158.054 42.0754 159.061 42.4146L164.177 44.6527C164.282 44.866 164.391 45.0789 164.496 45.2922L165.775 45.6119C165.881 45.8251 165.99 46.0381 166.095 46.2513H166.735C166.949 46.5711 167.16 46.8908 167.374 47.2105H168.014V47.5302L168.973 48.1697V48.8092L169.932 49.4486V50.0881C170.146 50.1945 170.357 50.3013 170.571 50.4078L171.531 53.9248C172.413 55.9749 173.705 57.7066 173.769 60.6391C173.334 61.0119 173.279 61.2226 173.129 61.918L171.211 61.5983L170.252 58.401H169.932V57.7615H169.612V56.8024H169.292V56.1629H168.973V55.2037H168.653V54.5643H168.333V53.6051H168.014V52.6459C167.799 52.5394 167.588 52.4326 167.374 52.3262V51.6867C167.16 51.5802 166.949 51.4735 166.735 51.367C166.201 50.7275 165.67 50.0881 165.136 49.4486H164.496C164.391 49.2354 164.282 49.0224 164.177 48.8092L162.898 48.4894V48.1697L160.979 47.5302C160.873 47.3171 160.766 47.1039 160.66 46.8908H159.701V46.5711H159.061V46.2513L154.905 45.9316V45.6119H152.347V45.9316H149.789V46.2513H148.19V46.5711H146.911V46.8908H145.952V47.2105H144.993V47.5302L143.075 47.85V48.1697L141.796 48.4894V48.8092H140.837V49.1289H140.197V49.4486H139.558C139.451 49.6618 139.345 49.8749 139.238 50.0881H138.599V50.4078L137.639 50.7275C137.533 50.9407 137.426 51.1538 137.32 51.367H136.68C136.574 51.5801 136.467 51.7933 136.36 52.0064H135.721L135.082 52.9656H134.442C134.335 53.1788 134.229 53.3919 134.122 53.6051C133.721 53.9756 133.188 54.1339 132.843 54.5643H133.163C134.168 56.0622 136.445 56.3209 137 58.401L132.843 58.0813V57.7615H132.204V57.4418H131.245V57.1221C130.593 57.0415 130.866 57.265 130.605 57.4418C129.712 58.1929 128.574 60.4693 128.047 61.5983C130.18 61.5912 132.524 62.2697 134.122 62.8772H135.082V63.1969H136.041V63.5167H136.68V63.8364H137.639V64.1561H138.279V64.4758H139.238V64.7956H139.877V65.1153L141.476 65.435C141.583 65.6482 141.689 65.8613 141.796 66.0745L143.075 66.3942C143.181 66.6074 143.288 66.8205 143.394 67.0337H144.034L144.673 67.9928H145.313C145.419 68.206 145.526 68.4191 145.633 68.6323H146.272V68.952H146.911L151.068 71.8296V72.469C153.738 72.9151 157.487 72.7888 160.66 72.7888H164.496V73.1085H168.014V73.4282H170.571V73.7479H173.129L181.762 75.3466C181.778 72.9298 182.462 70.7559 183.041 68.952C183.255 67.6731 183.468 66.3942 183.68 65.1153H184V63.5167H184.32V62.2377H184.639V59.9996H184.959V56.1629C185.979 52.8465 186.517 49.4009 186.558 45.9316H186.238C186.132 45.6119 186.024 45.2922 185.918 44.9724L184 43.3738V42.7343L183.041 42.0949V41.4554L182.082 40.816V40.1765C181.867 40.07 181.656 39.9632 181.442 39.8568V39.2173C181.017 38.8976 180.588 38.5779 180.163 38.2581V37.6187L178.245 36.02V35.3806C177.071 34.3148 175.899 33.2491 174.728 32.1833V31.5438C174.303 31.2241 173.874 30.9044 173.449 30.5847V29.9452L172.49 29.3057V28.6663L171.531 28.0268V27.3874L169.612 25.7887V25.1493C168.76 24.4033 167.907 23.6572 167.054 22.9112L166.095 21.6323H165.456C164.922 20.9928 164.391 20.3534 163.857 19.7139H163.218L160.02 16.1969H159.381L158.741 15.2377H158.102L157.462 14.2785H156.823C156.716 14.0654 156.61 13.8522 156.503 13.6391L155.544 13.3193V12.9996H154.905C154.798 12.7865 154.692 12.5733 154.585 12.3602H153.945C153.839 12.147 153.732 11.9339 153.626 11.7207L152.347 11.401V11.0813L150.428 10.4418V10.1221H149.469V9.80234L148.19 9.48261V9.16288H147.231V8.84315H146.592V8.52343L142.435 7.56424V7.24451H141.476V6.92479H140.517V6.60506L133.803 5.64587V5.9656H132.843V6.28533L130.925 6.92479V7.24451H130.286V7.56424H129.326V7.88397H128.367V8.2037H127.408V8.52343L125.17 8.84315V9.16288L123.252 9.48261V9.80234H122.292V10.1221H121.333V10.4418H120.374V10.7615L117.177 11.401V11.7207L114.939 12.0404V12.3602H113.66V12.6799H113.02V12.9996L110.782 13.3193V13.6391H110.143V13.9588H109.184V14.2785H108.224V14.5983H107.265V14.918H106.306V15.2377H105.347V15.5574H104.388V15.8772H103.428V16.1969H102.469V16.5166H101.83V16.8364L99.9114 17.1561V17.4758H99.272V17.7955L97.3536 18.1153V18.435H96.7141V18.7547L93.8366 19.3942V19.7139L91.9182 20.0336V20.3534H90.959V20.6731H89.9999V20.9928H89.0407V21.3125H88.0815V21.6323H87.1223V21.952L85.2039 22.2717V22.5915H84.5645V22.9112L82.6461 23.2309V23.5506H81.6869V23.8704H81.0475V24.1901L78.1699 24.8296V25.1493L75.2924 25.7887V26.1085H74.6529V26.4282L71.7753 27.0677V27.3874H71.1359V27.7071L69.2175 28.0268V28.3466L67.2992 28.6663V28.986H66.6597V29.3057H65.7005V29.6255H64.7413V29.9452L63.4624 30.2649V30.5847H62.5032V30.9044L61.2243 31.2241V31.5438H60.2651V31.8636H59.6257V32.1833H58.9862V32.503H58.3468V32.8228L56.4284 33.4622V33.7819H55.4692V34.1017L54.1903 34.4214V34.7411H53.5508V35.0609H52.5917V35.3806H51.9522V35.7003L49.0747 36.6595V36.9792L47.7957 37.299V37.6187L45.5577 38.2581L43.6393 42.0949L42.6801 42.7343V43.3738L42.0406 43.6935V44.333L40.442 45.6119V46.2513L38.5236 47.85V48.4894L36.925 49.7683V50.4078L35.3264 51.6867V52.3262L34.0474 53.2854V53.9248L32.7685 54.884V55.5234L31.8093 56.1629C31.7028 56.4826 31.5962 56.8024 31.4896 57.1221L29.5712 58.7207V59.3602L28.6121 59.9996V60.6391L27.3331 61.5983V62.2377L26.6937 62.5575V63.1969L25.7345 63.8364V64.4758L25.0951 64.7956C24.9885 65.1153 24.8819 65.435 24.7753 65.7547H24.4556V66.3942L23.8161 66.7139V67.3534L23.1767 67.6731V68.3126L22.5372 68.6323V69.2718L21.8978 69.5915V70.2309L20.9386 70.8704V71.5098L19.9794 72.1493V72.7888L19.3399 73.1085V73.7479L18.7005 74.0677C18.5939 74.494 18.4873 74.9203 18.3808 75.3466L17.7413 75.6663C17.5282 76.3058 17.315 76.9452 17.1019 77.5847L16.4624 77.9044C16.2492 78.5439 16.0361 79.1833 15.8229 79.8228H15.5032C15.3966 80.1425 15.2901 80.4622 15.1835 80.782L14.544 81.1017C14.4375 81.528 14.3309 81.9543 14.2243 82.3806L13.5848 82.7003V83.3398L12.9454 83.6595V84.299L12.3059 84.6187C12.1994 85.045 12.0928 85.4713 11.9862 85.8976L11.3467 86.2173C11.2402 86.6436 11.1336 87.0699 11.027 87.4963H10.7073C10.6007 87.816 10.4941 88.1357 10.3876 88.4554L9.74811 88.7752V89.4146L9.10865 89.7344C8.8955 90.3738 8.68235 91.0133 8.46919 91.6527H8.14947C8.04289 91.9725 7.93631 92.2922 7.82974 92.6119L7.19028 92.9316C7.0837 93.3579 6.97713 93.7842 6.87055 94.2105L6.2311 94.5303C6.33767 96.8749 6.44425 99.2196 6.55082 101.564H6.2311V104.442H5.91137V107.639C5.20573 110.193 5.19166 117.879 5.91137 120.428C6.33767 127.995 6.76398 135.562 7.19028 143.129H7.51001V146.006C8.02957 147.797 8.26617 150.33 8.78892 152.081V154H9.10865V155.279H9.42838V156.877H9.74811V158.476H10.0678V159.755H10.3876V161.034H10.7073C10.8139 161.78 10.9204 162.526 11.027 163.272H11.3467V164.231H11.6665L12.6257 168.707H12.9454V169.986H13.2651V170.945H13.5848V171.904H13.9046V172.864H14.2243V173.823H14.544V174.462H14.8638C14.9703 175.102 15.0769 175.741 15.1835 176.381H15.5032V177.02H15.8229C15.9295 177.66 16.0361 178.299 16.1427 178.938H16.4624C16.6755 179.578 16.8887 180.217 17.1019 180.857H17.4216V181.496H17.7413V182.136H18.061V182.775H18.3808V183.415H18.7005V184.054H19.0202V184.694H19.3399V185.333H19.6597V185.972H19.9794V186.612L20.6189 186.932C20.7254 187.358 20.832 187.784 20.9386 188.211H21.2583C21.3649 188.53 21.4715 188.85 21.578 189.17L22.2175 189.49V190.129L22.857 190.449V191.088L23.8161 191.728V192.367L24.4556 192.687V193.326L25.4148 193.966V194.605L27.0134 195.884C27.6436 196.535 27.8626 197.242 28.6121 197.802V198.122H29.2515C31.6603 194.423 39.6005 198.114 42.0406 199.401L43.959 200.041C44.0656 200.254 44.1722 200.467 44.2787 200.68H44.9182V201H45.5577C45.6642 201.213 45.7708 201.426 45.8774 201.639L47.1563 201.959C47.2629 202.172 47.3694 202.385 47.476 202.598L48.7549 202.918C48.8615 203.131 48.9681 203.344 49.0747 203.558H49.7141C50.3536 204.304 50.993 205.05 51.6325 205.796L52.9114 206.755V207.394L54.1903 208.353L55.1495 214.109H55.4692C55.5758 214.748 55.6824 215.387 55.7889 216.027H56.1087V216.986H56.4284V217.945H56.7481V218.904H57.0679V220.183H57.3876C57.7073 221.677 58.027 223.169 58.3468 224.66ZM167.054 14.918V15.5574C169.26 16.8194 170.75 18.9315 172.49 20.6731C173.024 21.0993 173.554 21.5258 174.088 21.952V22.5915C174.622 23.0177 175.153 23.4442 175.687 23.8704C175.792 24.1901 175.901 24.5098 176.007 24.8296C176.221 24.936 176.432 25.0428 176.646 25.1493V25.7887L177.605 26.4282V27.0677C178.031 27.3874 178.459 27.7071 178.884 28.0268V28.6663L179.843 29.3057C180.837 30.251 181.697 31.3265 182.401 32.503C182.763 32.2332 182.449 32.5436 182.721 32.1833H183.041C183.146 31.7571 183.255 31.3306 183.36 30.9044C183.575 30.7979 183.786 30.6911 184 30.5847V29.9452C184.214 29.8387 184.425 29.7319 184.639 29.6255V28.986C184.854 28.8796 185.065 28.7728 185.279 28.6663V28.0268L186.238 27.3874V26.7479L187.197 26.1085V25.469C187.731 25.0428 188.262 24.6163 188.796 24.1901V23.5506H189.116C189.33 23.2309 189.541 22.9112 189.755 22.5915H190.394V22.2717H191.034V21.952H192.313V22.2717C193.694 22.9336 193.611 22.8089 193.592 24.8296C193.058 25.469 192.527 26.1085 191.993 26.7479L191.034 27.3874V28.0268C190.609 28.3466 190.18 28.6663 189.755 28.986V29.6255C189.33 29.9452 188.901 30.2649 188.476 30.5847V31.2241C188.262 31.3306 188.051 31.4374 187.837 31.5438V32.1833C187.622 32.2898 187.411 32.3966 187.197 32.503C186.385 33.3641 185.148 34.3149 184.959 35.7003C185.941 36.2729 185.918 37.0211 186.558 37.9384L187.517 38.5779V39.2173L188.476 39.8568V40.4962C189.01 40.9224 189.541 41.3489 190.075 41.7751V42.4146C190.289 42.5211 190.5 42.6279 190.714 42.7343C190.82 43.1605 190.928 43.587 191.034 44.0132H191.354C191.817 45.3027 191.175 47.653 191.034 48.4894V50.4078H190.714C190.609 51.4735 190.5 52.5394 190.394 53.6051H190.075V54.884H189.755V56.1629H189.435V57.4418H189.116V59.0405H188.796C188.569 59.7643 188.722 60.3159 188.476 60.9588H188.796C189.541 59.8526 190.631 59.9037 191.993 59.3602V59.0405H192.952V58.7207H196.789V58.401C198.085 58.6477 199.366 58.968 200.626 59.3602C200.731 59.5734 200.84 59.7864 200.945 59.9996H201.585C201.799 60.3194 202.01 60.6391 202.224 60.9588L203.184 61.2786V61.918C203.718 62.3442 204.248 62.7707 204.782 63.1969V63.8364C204.996 63.9428 205.207 64.0496 205.422 64.1561V64.7956L206.381 65.435V66.0745C206.595 66.1809 206.806 66.2877 207.02 66.3942C207.126 66.7139 207.235 67.0337 207.34 67.3534H207.66C207.765 67.7796 207.874 68.2061 207.98 68.6323C208.194 68.7388 208.405 68.8456 208.619 68.952C208.724 69.3782 208.833 69.8047 208.939 70.2309H209.258C209.364 70.6571 209.473 71.0837 209.578 71.5098H209.898V72.469H210.218V73.1085H210.537C210.752 74.0677 210.963 75.0269 211.177 75.986H211.497V76.9452H211.816V77.5847H212.136C212.241 78.2241 212.35 78.8636 212.456 79.5031H212.775C212.881 80.249 212.99 80.9952 213.095 81.7411H213.415C213.52 82.8068 213.629 83.8728 213.735 84.9384C214.46 87.2558 214.921 90.3469 215.653 92.6119V94.2105C217.146 98.5802 218.638 102.95 220.129 107.319H220.449C220.554 107.746 220.663 108.172 220.769 108.598H221.088C221.194 109.025 221.303 109.451 221.408 109.877C221.622 109.984 221.833 110.09 222.048 110.197C222.153 110.623 222.262 111.05 222.367 111.476C222.582 111.582 222.793 111.689 223.007 111.796V112.435C223.221 112.542 223.432 112.648 223.646 112.755V113.394C223.86 113.501 224.071 113.607 224.286 113.714V114.353H224.605C224.711 114.673 224.82 114.993 224.925 115.313C225.139 115.419 225.35 115.526 225.565 115.632V116.272L226.524 116.911V117.551C226.738 117.657 226.949 117.764 227.163 117.87V118.51C227.697 118.936 228.228 119.363 228.762 119.789V120.428C229.187 120.748 229.616 121.068 230.041 121.387C230.575 122.027 231.105 122.666 231.639 123.306H232.279C232.493 123.626 232.704 123.945 232.918 124.265H233.558C233.663 124.478 233.772 124.691 233.877 124.904L234.837 125.224V125.544L236.116 125.864C236.221 126.077 236.33 126.29 236.435 126.503L237.714 126.823V127.143L238.993 127.462V127.782H239.952V128.102L241.231 128.421V128.741H242.19V129.061C242.881 129.331 245.918 129.705 246.986 129.381V129.061C247.52 128.954 248.051 128.848 248.585 128.741V129.061H248.905V131.299L246.986 133.537H246.347C246.241 133.75 246.133 133.963 246.027 134.177L245.068 134.496V140.571C245.743 141.346 245.388 146.056 245.388 147.605C245.602 153.147 245.815 158.689 246.027 164.231H246.347V163.592H246.667V162.313H246.986V161.353H247.306C247.412 160.608 247.52 159.861 247.626 159.115H247.946C248.051 158.369 248.16 157.623 248.265 156.877H248.585V155.918H248.905C249.119 154.746 249.332 153.573 249.544 152.401H249.864C249.969 151.655 250.078 150.909 250.184 150.163H250.503C250.609 149.417 250.718 148.671 250.823 147.925H251.143V146.646H251.463V145.047H251.782V143.129H252.102V140.891H252.422C252.636 138.013 252.849 135.136 253.061 132.258C254.03 128.869 254.004 124.475 254.98 121.068C255.085 119.256 255.192 117.444 255.299 115.632H255.619V112.755H255.939V110.517H256.258V107.959C256.935 105.35 257.258 102.661 257.218 99.9656C257.221 96.8848 257.832 88.6259 256.898 86.5371H256.578V85.8976C256.364 85.7911 256.153 85.6844 255.939 85.5779C255.833 85.1517 255.725 84.7252 255.619 84.299H255.299C255.194 83.9792 255.085 83.6595 254.98 83.3398C254.765 83.2333 254.554 83.1265 254.34 83.0201C254.235 82.5939 254.126 82.1673 254.02 81.7411C253.806 81.6347 253.595 81.5279 253.381 81.4214V80.782C253.167 80.6755 252.956 80.5687 252.741 80.4622V79.8228C252.527 79.7163 252.316 79.6095 252.102 79.5031V78.8636C251.888 78.7571 251.677 78.6503 251.463 78.5439V77.9044C251.248 77.7979 251.037 77.6912 250.823 77.5847V76.9452H250.503C250.398 76.6255 250.289 76.3058 250.184 75.986C249.969 75.8796 249.758 75.7728 249.544 75.6663V75.0269L248.585 74.3874V73.7479L247.626 73.1085V72.469L246.667 71.8296V71.1901L244.748 69.5915V68.952C244.003 68.3126 243.257 67.6731 242.51 67.0337V66.3942C241.445 65.435 240.38 64.4758 239.313 63.5167V62.8772C237.609 61.2786 235.904 59.6799 234.197 58.0813V57.4418C233.663 57.0156 233.133 56.5891 232.599 56.1629V55.5234C232.173 55.2037 231.745 54.884 231.32 54.5643V53.9248C230.786 53.4986 230.255 53.0721 229.721 52.6459V52.0064C229.296 51.6867 228.867 51.367 228.442 51.0473V50.4078C227.588 49.6618 226.736 48.9157 225.884 48.1697V47.5302C223.752 45.5053 221.62 43.4804 219.49 41.4554V40.816C218.636 40.0699 217.783 39.3239 216.932 38.5779V37.9384C216.187 37.299 215.441 36.6595 214.694 36.02V35.3806L212.775 33.7819V33.1425C212.03 32.503 211.284 31.8636 210.537 31.2241V30.5847C210.003 30.1585 209.473 29.7319 208.939 29.3057V28.6663C208.724 28.5598 208.513 28.453 208.299 28.3466C208.085 28.0268 207.874 27.7071 207.66 27.3874H207.34V26.7479C206.806 26.3217 206.275 25.8952 205.741 25.469V24.8296C205.316 24.5098 204.888 24.1901 204.463 23.8704V23.2309C203.718 22.5915 202.972 21.952 202.224 21.3125V20.6731H201.905C201.799 20.4598 201.69 20.2469 201.585 20.0336H200.945V19.3942C199.881 18.435 198.815 17.4758 197.748 16.5166C197.643 16.3034 197.534 16.0904 197.429 15.8772H184.639C183.763 15.1121 181.819 15.9286 180.483 15.5574C178.929 15.1258 176.17 15.7259 174.408 15.2377C172.554 14.7233 169.43 14.9071 167.054 14.918ZM186.238 75.986C187.952 75.8559 189.931 75.1621 191.354 74.7071L196.469 74.0677V73.7479H197.109V73.4282H199.667C201.297 72.9259 203.014 72.2878 205.102 72.1493C204.84 70.8327 204.063 69.9393 203.503 68.952V68.3126C203.289 68.2061 203.078 68.0993 202.864 67.9928V67.3534C202.65 67.2469 202.439 67.1401 202.224 67.0337C202.119 66.6075 202.01 66.1809 201.905 65.7547C201.69 65.6483 201.479 65.5415 201.265 65.435V64.7956C201.051 64.6891 200.84 64.5823 200.626 64.4758C200.201 63.9428 199.772 63.4102 199.347 62.8772C198.807 62.5079 198.624 62.8663 198.068 62.2377C194.19 62.1335 191.929 62.5946 189.755 64.1561C189.541 64.4758 189.33 64.7956 189.116 65.1153C188.431 65.789 187.805 65.9031 187.517 67.0337C186.462 68.1038 187.335 69.259 186.877 70.8704C186.405 72.533 186.189 74.2582 186.238 75.986ZM126.449 64.1561C126.236 64.7956 126.023 65.435 125.809 66.0745H125.49V66.7139H125.17V67.6731H124.85C124.744 68.0994 124.637 68.5257 124.53 68.952H124.211C124.104 69.5915 123.998 70.2309 123.891 70.8704H123.571V71.5098H123.252C123.145 72.1493 123.038 72.7888 122.932 73.4282H122.612C122.399 74.0677 122.186 74.7071 121.973 75.3466H122.292C123.701 73.787 124.886 75.0154 127.088 74.3874V74.0677H129.646V73.7479H132.524V73.4282H136.041V73.1085H140.837V72.7888C142.032 72.4511 143.581 73.1485 144.354 72.469L143.394 72.1493V71.8296L142.435 71.5098C142.329 71.2967 142.222 71.0835 142.116 70.8704H141.476L140.837 69.9112H140.197C140.091 69.6981 139.984 69.4849 139.877 69.2718L137.959 68.6323C137.852 68.4191 137.746 68.206 137.639 67.9928L135.721 67.3534V67.0337L132.843 66.0745C130.93 65.2272 129.194 64.2728 126.449 64.1561Z" fill="#4B81D7"/>
</svg>
