<svg width="22" height="24" viewBox="0 0 22 24" fill="none" xmlns="http://www.w3.org/2000/svg">
<path d="M18.9998 0H1.99976V3H-0.000244141V5H1.99976V7H-0.000244141V9H1.99976V11H-0.000244141V13H1.99976V15H-0.000244141V17H1.99976V19H-0.000244141V21H1.99976V24H18.9998C19.7954 24 20.5585 23.6839 21.1211 23.1213C21.6837 22.5587 21.9998 21.7956 21.9998 21V3C21.9998 2.20435 21.6837 1.44129 21.1211 0.878679C20.5585 0.31607 19.7954 0 18.9998 0V0ZM11.9998 4C12.692 4 13.3687 4.20527 13.9443 4.58985C14.5198 4.97444 14.9684 5.52106 15.2333 6.16061C15.4982 6.80015 15.5676 7.50388 15.4325 8.18281C15.2975 8.86175 14.9641 9.48539 14.4746 9.97487C13.9851 10.4644 13.3615 10.7977 12.6826 10.9327C12.0036 11.0678 11.2999 10.9985 10.6604 10.7336C10.0208 10.4687 9.4742 10.0201 9.08961 9.44449C8.70503 8.86892 8.49976 8.19223 8.49976 7.5C8.49976 6.57174 8.86851 5.6815 9.52488 5.02513C10.1813 4.36875 11.0715 4 11.9998 4ZM17.9998 18H15.9998V16C15.9998 15.7348 15.8944 15.4804 15.7069 15.2929C15.5193 15.1054 15.265 15 14.9998 15H8.99976C8.73454 15 8.48019 15.1054 8.29265 15.2929C8.10511 15.4804 7.99976 15.7348 7.99976 16V18H5.99976V16C5.99976 15.2043 6.31583 14.4413 6.87844 13.8787C7.44104 13.3161 8.20411 13 8.99976 13H14.9998C15.7954 13 16.5585 13.3161 17.1211 13.8787C17.6837 14.4413 17.9998 15.2043 17.9998 16V18ZM10.4998 7.5C10.4998 7.20333 10.5877 6.91332 10.7526 6.66664C10.9174 6.41997 11.1516 6.22771 11.4257 6.11418C11.6998 6.00065 12.0014 5.97094 12.2924 6.02882C12.5834 6.0867 12.8506 6.22956 13.0604 6.43934C13.2702 6.64912 13.4131 6.91639 13.4709 7.20736C13.5288 7.49833 13.4991 7.79993 13.3856 8.07402C13.272 8.34811 13.0798 8.58238 12.8331 8.7472C12.5864 8.91202 12.2964 9 11.9998 9C11.6019 9 11.2204 8.84196 10.9391 8.56066C10.6578 8.27935 10.4998 7.89782 10.4998 7.5Z" fill="#374957"/>
</svg>
