<svg width="24" height="24" viewBox="0 0 24 24" fill="none" xmlns="http://www.w3.org/2000/svg">
<g clip-path="url(#clip0_10_20319)">
<path d="M12.0322 19C12.4263 19.0007 12.8166 18.9234 13.1808 18.7728C13.545 18.6221 13.8758 18.4009 14.1542 18.122L18.0732 14.2L16.6592 12.79L13.0262 16.424L13.0002 0H11.0002L11.0262 16.408L7.40619 12.788L5.99219 14.2L9.91119 18.119C10.1893 18.3983 10.5198 18.6199 10.8838 18.7711C11.2478 18.9223 11.638 19.0001 12.0322 19Z" fill="#374957"/>
<path d="M22 16.0002V21.0002C22 21.2655 21.8946 21.5198 21.7071 21.7073C21.5196 21.8949 21.2652 22.0002 21 22.0002H3C2.73478 22.0002 2.48043 21.8949 2.29289 21.7073C2.10536 21.5198 2 21.2655 2 21.0002V16.0002H0V21.0002C0 21.7959 0.31607 22.5589 0.87868 23.1216C1.44129 23.6842 2.20435 24.0002 3 24.0002H21C21.7956 24.0002 22.5587 23.6842 23.1213 23.1216C23.6839 22.5589 24 21.7959 24 21.0002V16.0002H22Z" fill="#374957"/>
</g>
<defs>
<clipPath id="clip0_10_20319">
<rect width="24" height="24" fill="white"/>
</clipPath>
</defs>
</svg>
