<svg width="34" height="34" viewBox="0 0 34 34" fill="none" xmlns="http://www.w3.org/2000/svg">
<g clip-path="url(#clip0_212_34)">
<path d="M9.89964 7.80772L15.2029 2.50441C15.6718 2.03557 16.3077 1.77218 16.9707 1.77218C17.6337 1.77218 18.2696 2.03557 18.7385 2.50441L24.0418 7.80772L16.9707 14.8788L9.89964 7.80772Z" stroke="black"/>
<path d="M31.1128 14.8788L31.4664 15.2323C31.9352 15.7012 32.1986 16.337 32.1986 17.0001C32.1986 17.6631 31.9352 18.299 31.4664 18.7679L26.1631 24.0712L19.092 17.0001L26.1631 9.92903L31.1128 14.8788Z" stroke="black"/>
<path d="M1.74279 17.0001C1.74279 16.337 2.00619 15.7012 2.47503 15.2323L7.77832 9.92903L14.8494 17.0001L7.77833 24.0712L2.47503 18.7679C2.00619 18.299 1.7428 17.6631 1.74279 17.0001Z" stroke="black"/>
<path d="M15.2029 31.4958L9.89964 26.1925L16.9707 19.1214L24.0418 26.1925L18.7385 31.4958C18.2696 31.9646 17.6337 32.228 16.9707 32.228C16.3077 32.228 15.6718 31.9646 15.2029 31.4958Z" stroke="black"/>
</g>
<defs>
<clipPath id="clip0_212_34">
<rect width="24" height="24" fill="white" transform="translate(16.9707 0.029541) rotate(45)"/>
</clipPath>
</defs>
</svg>
