<svg width="34" height="34" viewBox="0 0 34 34" fill="none" xmlns="http://www.w3.org/2000/svg">
<g clip-path="url(#clip0_212_39)">
<path d="M14.8494 2.15086L9.19253 7.80772L16.9707 15.5859L24.7489 7.80772L19.092 2.15086C18.5294 1.58825 17.7664 1.27218 16.9707 1.27218C16.1751 1.27218 15.412 1.58825 14.8494 2.15086V2.15086Z" fill="black"/>
<path d="M31.8199 14.8788L26.1631 9.22192L18.3849 17.0001L26.1631 24.7783L31.8199 19.1214C32.3825 18.5588 32.6986 17.7957 32.6986 17.0001C32.6986 16.2044 32.3825 15.4414 31.8199 14.8788V14.8788Z" fill="black"/>
<path d="M2.12147 14.8788C1.55886 15.4414 1.24279 16.2044 1.24279 17.0001C1.2428 17.7957 1.55887 18.5588 2.12148 19.1214L7.77833 24.7783L15.5565 17.0001L7.77832 9.22192L2.12147 14.8788Z" fill="black"/>
<path d="M9.19254 26.1925L14.8494 31.8493C15.412 32.4119 16.1751 32.728 16.9707 32.728C17.7664 32.728 18.5294 32.4119 19.092 31.8493L24.7489 26.1925L16.9707 18.4143L9.19254 26.1925Z" fill="black"/>
</g>
<defs>
<clipPath id="clip0_212_39">
<rect width="24" height="24" fill="white" transform="translate(16.9707 0.029541) rotate(45)"/>
</clipPath>
</defs>
</svg>
