<svg width="34" height="34" viewBox="0 0 34 34" fill="none" xmlns="http://www.w3.org/2000/svg">
<g clip-path="url(#clip0_212_49)">
<path d="M14.8494 2.15086L9.19253 7.80772L16.9707 15.5859L24.7489 7.80772L19.092 2.15086C18.5294 1.58825 17.7664 1.27218 16.9707 1.27218C16.1751 1.27218 15.412 1.58825 14.8494 2.15086V2.15086Z" fill="white"/>
<path d="M31.1128 14.8788L31.4664 15.2323C31.9352 15.7012 32.1986 16.337 32.1986 17.0001C32.1986 17.6631 31.9352 18.299 31.4664 18.7679L26.1631 24.0712L19.092 17.0001L26.1631 9.92903L31.1128 14.8788Z" stroke="white"/>
<path d="M1.74279 17.0001C1.74279 16.337 2.00619 15.7012 2.47503 15.2323L7.77832 9.92903L14.8494 17.0001L7.77833 24.0712L2.47503 18.7679C2.00619 18.299 1.7428 17.6631 1.74279 17.0001Z" stroke="white"/>
<path d="M15.2029 31.4958L9.89964 26.1925L16.9707 19.1214L24.0418 26.1925L18.7385 31.4958C18.2696 31.9646 17.6337 32.228 16.9707 32.228C16.3077 32.228 15.6718 31.9646 15.2029 31.4958Z" stroke="white"/>
</g>
<defs>
<clipPath id="clip0_212_49">
<rect width="24" height="24" fill="white" transform="translate(16.9707 0.029541) rotate(45)"/>
</clipPath>
</defs>
</svg>
