<svg width="22" height="22" viewBox="0 0 22 22" fill="none" xmlns="http://www.w3.org/2000/svg">
<path d="M11.0639 3.73242C8.99409 3.73242 8.73433 3.74147 7.92138 3.77847C7.11001 3.81562 6.55619 3.94408 6.0716 4.13256C5.57033 4.32723 5.14512 4.58763 4.7215 5.01143C4.29756 5.43506 4.03716 5.86029 3.84186 6.36141C3.65291 6.84618 3.5243 7.40018 3.48778 8.21125C3.45142 9.02422 3.44189 9.28415 3.44189 11.3541C3.44189 13.424 3.4511 13.6829 3.48794 14.4959C3.52525 15.3073 3.65371 15.8611 3.84202 16.3458C4.03684 16.847 4.29724 17.2723 4.72102 17.6959C5.14448 18.1198 5.5697 18.3809 6.07064 18.5756C6.55556 18.764 7.10954 18.8925 7.92074 18.9296C8.73369 18.9666 8.9933 18.9757 11.063 18.9757C13.133 18.9757 13.392 18.9666 14.2049 18.9296C15.0163 18.8925 15.5707 18.764 16.0556 18.5756C16.5567 18.3809 16.9813 18.1198 17.4048 17.6959C17.8287 17.2723 18.0891 16.847 18.2844 16.3459C18.4718 15.8611 18.6004 15.3071 18.6385 14.4961C18.675 13.6831 18.6845 13.424 18.6845 11.3541C18.6845 9.28415 18.675 9.02438 18.6385 8.2114C18.6004 7.40002 18.4718 6.84618 18.2844 6.36157C18.0891 5.86029 17.8287 5.43506 17.4048 5.01143C16.9808 4.58747 16.5569 4.32707 16.0552 4.13256C15.5693 3.94408 15.0152 3.81562 14.2038 3.77847C13.3908 3.74147 13.132 3.73242 11.0616 3.73242H11.0639ZM10.3802 5.1059C10.5832 5.10559 10.8096 5.1059 11.0639 5.1059C13.0989 5.1059 13.34 5.11321 14.1436 5.14973C14.8867 5.18371 15.29 5.30788 15.5587 5.4122C15.9143 5.55034 16.1679 5.71548 16.4345 5.98223C16.7012 6.24899 16.8664 6.50305 17.0048 6.85872C17.1091 7.12707 17.2335 7.53038 17.2673 8.27349C17.3038 9.07694 17.3117 9.31829 17.3117 11.3523C17.3117 13.3863 17.3038 13.6277 17.2673 14.4311C17.2333 15.1742 17.1091 15.5776 17.0048 15.8459C16.8667 16.2016 16.7012 16.4548 16.4345 16.7214C16.1677 16.9882 15.9145 17.1533 15.5587 17.2915C15.2903 17.3963 14.8867 17.5201 14.1436 17.5541C13.3402 17.5906 13.0989 17.5986 11.0639 17.5986C9.02886 17.5986 8.78768 17.5906 7.98425 17.5541C7.24117 17.5198 6.83787 17.3956 6.56905 17.2913C6.21339 17.1532 5.95934 16.988 5.69259 16.7213C5.42584 16.4545 5.26071 16.2011 5.12226 15.8453C5.01794 15.5769 4.89361 15.1736 4.85979 14.4305C4.82327 13.6271 4.81597 13.3857 4.81597 11.3504C4.81597 9.31511 4.82327 9.07503 4.85979 8.27158C4.89377 7.52847 5.01794 7.12516 5.12226 6.8565C5.26039 6.50082 5.42584 6.24677 5.69259 5.98001C5.95934 5.71325 6.21339 5.54812 6.56905 5.40966C6.83771 5.30486 7.24117 5.18101 7.98425 5.14687C8.68733 5.11511 8.95979 5.10559 10.3802 5.104V5.1059ZM15.1322 6.37141C14.6273 6.37141 14.2176 6.7806 14.2176 7.28569C14.2176 7.79063 14.6273 8.20029 15.1322 8.20029C15.6371 8.20029 16.0467 7.79063 16.0467 7.28569C16.0467 6.78076 15.6371 6.3711 15.1322 6.3711V6.37141ZM11.0639 7.44003C8.90247 7.44003 7.15003 9.19253 7.15003 11.3541C7.15003 13.5156 8.90247 15.2673 11.0639 15.2673C13.2254 15.2673 14.9772 13.5156 14.9772 11.3541C14.9772 9.19253 13.2252 7.44003 11.0638 7.44003H11.0639ZM11.0639 8.81351C12.4669 8.81351 13.6044 9.95088 13.6044 11.3541C13.6044 12.7571 12.4669 13.8946 11.0639 13.8946C9.6608 13.8946 8.52347 12.7571 8.52347 11.3541C8.52347 9.95088 9.6608 8.81351 11.0639 8.81351Z" fill="white"/>
</svg>
