<svg width="24" height="24" viewBox="0 0 24 24" fill="none" xmlns="http://www.w3.org/2000/svg">
<g clip-path="url(#clip0_10_25648)">
<path d="M9.87824 12.5462C10.4418 13.1076 11.2048 13.4227 12.0002 13.4227C12.7957 13.4227 13.5587 13.1076 14.1222 12.5462L23.7812 2.88624C23.5589 2.33022 23.1752 1.85347 22.6796 1.51735C22.1839 1.18124 21.5991 1.00114 21.0002 1.00024H3.00024C2.4014 1.00114 1.81653 1.18124 1.32091 1.51735C0.825293 1.85347 0.441607 2.33022 0.219238 2.88624L9.87824 12.5462Z" fill="#374957"/>
<path d="M15.536 13.9602C14.5974 14.8965 13.3257 15.4223 12 15.4223C10.6743 15.4223 9.40263 14.8965 8.464 13.9602L0 5.50024V23.0002H24V5.50024L15.536 13.9602Z" fill="#374957"/>
</g>
<defs>
<clipPath id="clip0_10_25648">
<rect width="24" height="24" fill="white"/>
</clipPath>
</defs>
</svg>
