<svg xmlns="http://www.w3.org/2000/svg" xmlns:xlink="http://www.w3.org/1999/xlink" viewBox="0,0,256,256" width="24px" height="24px" fill-rule="nonzero"><g fill="#ffffff" fill-rule="nonzero" stroke="none" stroke-width="1" stroke-linecap="butt" stroke-linejoin="miter" stroke-miterlimit="10" stroke-dasharray="" stroke-dashoffset="0" font-family="none" font-weight="none" font-size="none" text-anchor="none" style="mix-blend-mode: normal"><g transform="scale(10.66667,10.66667)"><path d="M8.02539,1c-1.517,0 -2.6685,1.81795 -3.0625,4.75195l-1.03125,0.30469c-0.376,0.112 -0.65403,0.43327 -0.70703,0.82227l-1.76367,12.77539c-0.073,0.53 0.28355,1.02214 0.81055,1.11914l11.37305,2.08594l0.75195,-19.90625l-0.90039,0.26758c-0.639,-1.418 -1.56658,-2.2207 -2.64258,-2.2207c-0.392,0 -0.92094,0.11273 -1.46094,0.55273c-0.507,-0.447 -1.01019,-0.55273 -1.36719,-0.55273zM7.98828,2.99414c0.095,0.038 0.49989,0.42833 0.83789,1.61133l-1.73047,0.51172c0.309,-1.417 0.77358,-2.05205 0.89258,-2.12305zM10.85352,3c0.106,0 0.40003,0.21492 0.70703,0.79492l-0.81641,0.24023c-0.079,-0.276 -0.16295,-0.52981 -0.25195,-0.75781c0.153,-0.174 0.29233,-0.27734 0.36133,-0.27734zM16.39258,3.07422l-0.74414,19.7207l6.0918,-1.19727c0.526,-0.104 0.87692,-0.60281 0.79492,-1.13281l-2.35937,-15.30859c-0.053,-0.346 -0.28442,-0.63848 -0.60742,-0.77148zM9.39844,9.00391c0.388,-0.003 0.78094,0.06358 1.33594,0.26758c0.499,0.184 0.69566,0.78002 0.47266,1.29102c-0.236,0.542 -0.86334,0.822 -1.40234,0.625c0,0 -0.42525,-0.23828 -1.03125,-0.23828c-1.058,0 -1.10937,0.6758 -1.10937,0.8418c0,0.915 2.36328,1.26987 2.36328,3.42188c0,1.695 -1.05928,2.78516 -2.48828,2.78516c-0.841,0 -1.46548,-0.25653 -1.89648,-0.51953c-0.003,-0.002 -0.50195,-0.32812 -0.50195,-0.32812c-0.359,-0.238 -0.46909,-0.74195 -0.24609,-1.12695c0.221,-0.384 0.69078,-0.50167 1.05078,-0.26367c0,0 0.10056,0.0635 0.10156,0.0625c0.308,0.18 0.6813,0.3457 1.0293,0.3457c0.503,0 0.70898,-0.39455 0.70898,-0.68555c0,-1.196 -1.93164,-1.24861 -1.93164,-3.22461c0,-1.654 1.17092,-3.25391 3.54492,-3.25391z"></path></g></g></svg>